/* XPM */
static char *result[] = {
/* columns rows colors chars-per-pixel */
"64 64 65 1 ",
"  c #FE6745",
". c #FE6947",
"X c #FE6B49",
"o c #FF724E",
"O c #FF7650",
"+ c #FF7B54",
"@ c #FF8057",
"# c #FF845A",
"$ c #FF8A5E",
"% c #FF8E61",
"& c #FF9364",
"* c #FF9867",
"= c #FE9368",
"- c #FF9C6A",
"; c #FFA26E",
": c #FFA672",
"> c #FFAB74",
", c #FFB37A",
"< c #FFBA7F",
"1 c #FFB481",
"2 c #FFBC82",
"3 c #FFC386",
"4 c #FFC589",
"5 c #FFCA8A",
"6 c #FFD18E",
"7 c #FFC591",
"8 c #FFCD94",
"9 c #FFCB99",
"0 c #FFD494",
"q c #FFDB96",
"w c #FFD59A",
"e c #FFDD9C",
"r c #FFE49D",
"t c #FFD7A2",
"y c #FFDFA5",
"u c #FFD7AD",
"i c #FFE4A2",
"p c #FFEBA3",
"a c #FFE1AB",
"s c #FFEBAC",
"d c #FFF2A5",
"f c #FFF2AC",
"g c #FFFBAD",
"h c #FFE5B4",
"j c #FFEAB4",
"k c #FFECBC",
"l c #FFF4B3",
"z c #FFFAB4",
"x c #FFF3BA",
"c c #FFFABC",
"v c #FFEFC8",
"b c #FFF7C4",
"n c #FFFBC4",
"m c #FFF4CC",
"M c #FFFBCB",
"N c #FFF6D1",
"B c #FFFDD4",
"V c #FFF6DB",
"C c #FFFDDB",
"Z c #FFF5E4",
"A c #FFFEE5",
"S c #FFFEED",
"D c #FFFFF4",
"F c #FFFFFB",
"G c None",
/* pixels */
"GGGGGGGGGGGGGGGGGGGGGGGGGGGGGGGGGGGGGGGGGGGGGGGGGGGGGGGGGGGGGGGG",
"GGGGGGGGGGGGGGGGGGGGGGGGGGGGGGGGGGGGGGGGGGGGGGGGGGGGGGGGGGGGGGGG",
"GGGGGGGGGGGGGGGGGGGGGGGGGGGGGGGGGGGGGGGGGGGGGGGGGGGGGGGGGGGGGGGG",
"GGGGGGGGGGGGGGGGGGGGGGGGGGGGGGGGGGGGGGGGGGGGGGGGGGGGGGGGGGGGGGGG",
"GGGGGGGGGGGGGGGGGGGGGGGGGGGGGGGGGGGGGGGGGGGGGGGGGGGGGGGGGGGGGGGG",
"GGGGGGGGGGGGGGGGGGGGGGGGGGGGGGGGGGGGGGGGGGGGGGGGGGGGGGGGGGGGGGGG",
"GGGGGGGGGGGGGGGGGGGGGGGGGGGGGGGGGGGGGGGGGGGGGGGGGGGGGGGGGGGGGGGG",
"GGGGGGGGGGGGGGGGGGGGGGGGGGGGGGGGGGGGGGGGGGGGGGGGGGGGGGGGGGGGGGGG",
"GGGGGGGGGGGGGGGGGGGGGGGGGGGGGGGGGGGGGGGGGGGGGGGGGGGGGGGGGGGGGGGG",
"GGGGGGGGGGGGGGGGGGGGGGGGGGGGXXXXGGGGGGGGGGGGGGGGGGGGGGGGGGGGGGGG",
"GGGGGGGGGGGGGGGGGGGGGGGGGGGXXXXXGGGGGGGGGGGGGGGGGGGGGGGGGGGGGGGG",
"GGGGGGGGGGGGGGGGGGGGGGGGGGXXXXXXGGGGGGGGGGGGGGGGGGGGGGGGGGGGGGGG",
"GGGGGGGGGGGGGGGGGGGGGGGGGGXXXXXXGGGGGGGGGGGGGGGGGGGGGGGGGGGGGGGG",
"GGGGGGGGGGGGGGGGGGGGGGGGGGXXXXXXGGGGGGGGGGGGGGGGGGGGGGGGGGGGGGGG",
"GGGGGGGGGGGGGGGGGGGGGGGGGXXXXXXXGGGG...GGGGGGGGGGGGGGGGGGGGGGGGG",
"GGGGGGGGGGGGGGGGGGGGGGGGG XXXXXXGGGXX+oXXGGGGGGGGGGGGGGGGGGGGGGG",
"GGGGGGGGGGGGGGGGGGGGGGXXX....XXGGGo#%-$oXGGGGGGGGGGGGGGGGGGGGGGG",
"GGGGGGGGGGGGGGGGGGGGGGo$#o.XXX.GGX$>,,-+XXGGGGGGGGGGGGGGGGGGGGGG",
"GGGGGGGGGGGGGGGGGG...o&,>&+++oo.GX*<34>#oXGGGGGGGGGGGGGGGGGGGGGG",
"GGGGGGGGGGGGGGGGGX+oX&<354,&+@o.GX-354>+XXXGGGGGGGGGGGGGGGGGGGGG",
"GGGGGGGGGGGGGGGG.o#@*<5qrzpq,:&.GX$:>:&+X.XGGGGGGGGGGGGGGGGGGGGG",
"GGGGGGGGGGGGGGGG.X@$,3qggnCBMf<oGGXo+@oXXXXGGGGGGGGGGGGGGGGGGGGG",
"GGGGGGGGGGGGGGGGG.o$,3qddcDFFb2+.XXXXX.XXX.GGGGGGGGGGGGGGGGGGGGG",
"GGGGGGGGGGGGGGGGG..@,espqiCADb2+Xo+OooXXGG.GGGGGGGGGGGGGGGGGGGGG",
"GGGGGGGGGGGGGGGGX.X&rCAxrsfAFj>%O++++++GGXXXGGGGGGGGGGGGGGGGGGGG",
"GGGGGGGGGGGGGGGX.o@:rcAMbMlDAi35:1%%;:=+OX+XXGGGGGGGGGGGGGGGGGGG",
"GGGGGGGGGGGGGGGXo$:3rMAAAMlBMNsMxb>%:-=%OO&#XGGGGGGGGGGGGGGGGGGG",
"GGGGGGGGGGGGGG.o@;5qlSDACMxsbFNZZM2:=%11%%-&X.GGGGGGGGGGGGGGGGGG",
"GGGGGGGGGGGGGGGX$,0rdAFCcMZwaFDZjj82%%,1>:&#XGGGGGGGGGGGGGGGGGGG",
"GGGGGGGGGGGGGGGXo$20fCFCbBAk7CDFbbV01002i0%XXGGGGGGGGGGGGGGGGGGG",
"GGGGGGGGGGGGGGGXoX+3cCFFFDMjCCAFmVFkilxiqf3+GGGGGGGGGGGGGGGGGGGG",
"GGGGGGGGGGGGGGGGo.o,znCBBASNSDFFFFFmrlci6qs-GGGGGGGGGGGGGGGGGGGG",
"GGGGGGGGGGGGGGGGX+@*<sBxrwmAAADFFFAMxjj>36l4o.GGGGGGGGGGGGGGGGGG",
"GGGGGGGGGGGGGGGGGX+@+:acq&9CCADDFCCDSCB7wq35+.GGGGGGGGGGGGGGGGGG",
"GGGGGGGGGGGGGGGGGGX+$$$,52jtkSDFFVCFFDC9,6,>#.GGGGGGGGGGGGGGGGGG",
"GGGGGGGGGGGGGGGGGGG#,&X$,55&yADFDDBAFFSu@>>&#.GGGGGGGGGGGGGGGGGG",
"GGGGGGGGGGGGGGGGGGG%;>--,:-#2sjVhkMADDS8+-;oGGGGGGGGGGGGGGGGGGGG",
"GGGGGGGGGGGGGGGGGGG=-:>,4:++2s3pqjSSAFFuO$;@GGGGGGGGGGGGGGGGGGGG",
"GGGGGGGGGGGGGGGGGGGG++%>sj-X#4<55tADASAh@+#OXGGGGGGGGGGGGGGGGGGG",
"GGGGGGGGGGGGGGGGGGGGGX+%8p3#X+-;&&enSMMj<;:%oGGGGGGGGGGGGGGGGGGG",
"GGGGGGGGGGGGGGGGGGXXXXX+&-&%@O#$++3fnllz3>;+XGGGGGGGGGGGGGGGGGGG",
"GGGGGGGGGGGGGGGGGXXXOoX..  ++XooX$0lzzcr4,$oGGGGGGGGGGGGGGGGGGGG",
"GGGGGGGGGGGGGGGGGXX+&&@..GGGGGX.o;3pzfrr5;oGGGGGGGGGGGGGGGGGGGGG",
"GGGGGGGGGGGGGGGGGXX+;*$X..GGGGGX@,5rgcxr:@GGGGGGGGGGGGGGGGGGGGGG",
"GGGGGGGGGGGGGGGGGGG+--$o.XGGGGG.#<0qrzBs:@oGGGGGGGGGGGGGGGGGGGGG",
"GGGGGGGGGGGGGGGGGGGGo++oX..GGGGXo$,rzcx4;O.GGGGGGGGGGGGGGGGGGGGG",
"GGGGGGGGGGGGGGGGGGGG.....X.GGGGX.o$-5i0,>$XGGGGGGGGGGGGGGGGGGGGG",
"GGGGGGGGGGGGGGGGGGGGG...XXGGGG ..XO@&:%OoOGGGGGGGGGGGGGGGGGGGGGG",
"GGGGGGGGGGGGGGGGGGGGGXGGGGGGGGXXXXX+++XXXGGGGGGGGGGGGGGGGGGGGGGG",
"GGGGGGGGGGGGGGGGGGGGGGGGGGGGGGXXXXXXXXXGGGGGGGGGGGGGGGGGGGGGGGGG",
"GGGGGGGGGGGGGGGGGGGGGGGGGGGGGGGX.GGGXGGGGGGGGGGGGGGGGGGGGGGGGGGG",
"GGGGGGGGGGGGGGGGGGGGGGGGGGGGGGGGGGGGGGGGGGGGGGGGGGGGGGGGGGGGGGGG",
"GGGGGGGGGGGGGGGGGGGGGGGGGGGGGGGGGGGGGGGGGGGGGGGGGGGGGGGGGGGGGGGG",
"GGGGGGGGGGGGGGGGGGGGGGGGGGGGGGGGGGGGGGGGGGGGGGGGGGGGGGGGGGGGGGGG",
"GGGGGGGGGGGGGGGGGGGGGGGGGGGGGGGGGGGGGGGGGGGGGGGGGGGGGGGGGGGGGGGG",
"GGGGGGGGGGGGGGGGGGGGGGGGGGGGGGGGGGGGGGGGGGGGGGGGGGGGGGGGGGGGGGGG",
"GGGGGGGGGGGGGGGGGGGGGGGGGGGGGGGGGGGGGGGGGGGGGGGGGGGGGGGGGGGGGGGG",
"GGGGGGGGGGGGGGGGGGGGGGGGGGGGGGGGGGGGGGGGGGGGGGGGGGGGGGGGGGGGGGGG",
"GGGGGGGGGGGGGGGGGGGGGGGGGGGGGGGGGGGGGGGGGGGGGGGGGGGGGGGGGGGGGGGG",
"GGGGGGGGGGGGGGGGGGGGGGGGGGGGGGGGGGGGGGGGGGGGGGGGGGGGGGGGGGGGGGGG",
"GGGGGGGGGGGGGGGGGGGGGGGGGGGGGGGGGGGGGGGGGGGGGGGGGGGGGGGGGGGGGGGG",
"GGGGGGGGGGGGGGGGGGGGGGGGGGGGGGGGGGGGGGGGGGGGGGGGGGGGGGGGGGGGGGGG",
"GGGGGGGGGGGGGGGGGGGGGGGGGGGGGGGGGGGGGGGGGGGGGGGGGGGGGGGGGGGGGGGG",
"GGGGGGGGGGGGGGGGGGGGGGGGGGGGGGGGGGGGGGGGGGGGGGGGGGGGGGGGGGGGGGGG"
};
