/* XPM */
static char *result[] = {
/* columns rows colors chars-per-pixel */
"64 64 63 1 ",
"  c #FE6745",
". c #FE6947",
"X c #FE6C49",
"o c #FE724D",
"O c #FE7650",
"+ c #FF7B54",
"@ c #FE7F58",
"# c #FF8157",
"$ c #FF845A",
"% c #FF8A5E",
"& c #FF8E61",
"* c #FF9364",
"= c #FF9967",
"- c #FF9769",
"; c #FF9C6A",
": c #FFA26E",
"> c #FFA671",
", c #FFAB74",
"< c #FFB177",
"1 c #FFB37A",
"2 c #FFB97E",
"3 c #FFBD81",
"4 c #FFC485",
"5 c #FFC887",
"6 c #FFC58B",
"7 c #FFCB8B",
"8 c #FFD18E",
"9 c #FFC491",
"0 c #FFCB92",
"q c #FFC898",
"w c #FFD491",
"e c #FFDB94",
"r c #FFDD9A",
"t c #FFE197",
"y c #FFE39C",
"u c #FFE99E",
"i c #FFDDA3",
"p c #FFE4A5",
"a c #FFEBA3",
"s c #FFE3AA",
"d c #FFEDAB",
"f c #FFF2A6",
"g c #FFF3AB",
"h c #FFF9AE",
"j c #FFEFB3",
"k c #FFEEB9",
"l c #FFF4B3",
"z c #FFFBB3",
"x c #FFF6BB",
"c c #FFFCBB",
"v c #FFECC1",
"b c #FFF5C4",
"n c #FFFCC4",
"m c #FFF6C9",
"M c #FFFDCB",
"N c #FFFED3",
"B c #FFF7DB",
"V c #FFFFDB",
"C c #FFFEE4",
"Z c #FFFEEC",
"A c #FFFFF3",
"S c #FFFFFE",
"D c None",
/* pixels */
"DDDDDDDDDDDDDDDDDDDDDDDDDDDDDDDDDDDDDDDDDDDDDDDDDDDDDDDDDDDDDDDD",
"DDDDDDDDDDDDDDDDDDDDDDDDDDDDDDDDDDDDDDDDDDDDDDDDDDDDDDDDDDDDDDDD",
"DDDDDDDDDDDDDDDDDDDDDDDDDDDDDDDDDDDDDDDDDDDDDDDDDDDDDDDDDDDDDDDD",
"DDDDDDDDDDDDDDDDDDDDDDDDDDDDDDDDDDDDDDDDDDDDDDDDDDDDDDDDDDDDDDDD",
"DDDDDDDDDDDDDDDDDDDDDDDDDDDDDDDDDDDDDDDDDDDDDDDDDDDDDDDDDDDDDDDD",
"DDDDDDDDDDDDDDDDDDDDDDDDDDDDDDDDDDDDDDDDDDDDDDDDDDDDDDDDDDDDDDDD",
"DDDDDDDDDDDDDDDDDDDDDDDDDDDXX.DDDDDDDDDDDDDDDDDDDDDDDDDDDDDDDDDD",
"DDDDDDDDDDDDDDDDDDDDDDDDDD..XXXDDDDDDDDDDDDDDDDDDDDDDDDDDDDDDDDD",
"DDDDDDDDDDDDDDDDDDDDDDDDDD..X..XDDDDDDDDDDDDDDDDDDDDDDDDDDDDDDDD",
"DDDDDDDDDDDDDDDDDDDDDDDD. ....X.DDDDD&&DDDDDDDDDDDDDDDDDDDDDDDDD",
"DDDDDDDDDDDDDDDDDDDDDD..ooXoooX.DDDD@-;OODDDDDDDDDDDDDDDDDDDDDDD",
"DDDDDDDDDDDDDDDDD.....+*;*#oXoX.XDDDO@&@XXDDDDDDDDDDDDDDDDDDDDDD",
"DDDDDDDDDDDDDDDD..oo@*>244,%oXX@ODDO$=*&+XXDDDDDDDDDDDDDDDDDDDDD",
"DDDDDDDDDDDDDD...+*,7teragaw,$O&$XX@6s3>&XXDDDDDDDDDDDDDDDDDDDDD",
"DDDDDDDDDDDDD.Xo$%;7zccNVZCVb7*$@+%>pne1&XXDDDDDDDDDDDDDDDDDDDDD",
"DDDDDDDDDDDDD.O*,12anMCASSSSAMp7,>8ucng7&XXDDDDDDDDDDDDDDDDDDDDD",
"DDDDDDDDDDDD..+>7efnNVASSSSSSSCMe5ucCAVr$..XDDDDDDDDDDDDDDDDDDDD",
"DDDDDDDDDDDD.O,egnMNNZSSSSSSSSSMfafzNZCs=oX.DDDDDDDDDDDDDDDDDDDD",
"DDDDDDDDDDD.@>anNZAZZASSSSSSSSSVchfhMMMe=@X.DDDDDDDDDDDDDDDDDDDD",
"DDDDDDDDDDDo:ezNCSSSSSSSSSSSSSSCnhfzMMz4*#X.DDDDDDDDDDDDDDDDDDDD",
"DDDDDDDDDD.o:ezNCSSSSSSSSSSSSSSSCcznNnw:&*+XDDDXX.DDDDDDDDDDDDDD",
"DDDDDDDDDXX+;5ycNZSSSSSSSSSSSSSSSCMNna,>%*$DDoO$$oXDDDDDDDDDDDDD",
"DDDDDDDDD.o+;5ecVZSSSSSSSSSSSSSSSCVxdls;O++DD$133>$ooDDDDDDDDDDD",
"DDDDDDDDD.o&18yMSSSSSSSSSASSSSSSAVn81pp*-0>+X%0afe1;&o.DDDDDDDDD",
"DDDDDDDDDX&,4tfVSSSSSSSSSSSSSSSSSZi31lp7rNk,$*1anzgr1-OXXDDDDDDD",
"DDDDDDDDDo>7efcASSSSSSSSSSSSSSSSSC33ednzzcVk0iacMVNn81*oXXDDDDDD",
"DDDDDDDDDo=7azMASSSSZSSSSASSSSSSSABmntmbcNZVCACVZACny4;OXXDDDDDD",
"DDDDDDDDD.$3fznZSSAASSSSSSSSSSSSSSASZbBMZZCASSSAZSSCl6=o.XDDDDDD",
"DDDDDDDDDDX&4ttbSSAASSSSSSSSSSSSSSSSSSAASZASSSSSASSCg2$XXXDDDDDD",
"DDDDDDDDDD.X+*8gNZAASSSSSSSSSSSSAASSSSSSSSSSSSSSSSAMr;XX.DDDDDDD",
"DDDDDDDDDXXDDo2hzMCSSSSSSSSSSSSSSSSSAASSSSSSSSSSSSAne=X.DDDDDDDD",
"DDDDDDDDDDXXD.*7uflNVSSSSSSSSSSSSSSAbiZSSSSSSSSSSSZcy;o.DDDDDDDD",
"DDDDDDDDDDXXX.X$,ykNNZSZCASSSSSASSSSACASSSSSSSSSSSCz8%XXDDDDDDDD",
"DDDDDDDDDDDXX.. X>bASSVzjZSSSSSSSSSSSSSSSSSSSSSSSSVi;o.DDDDDDDDD",
"DDDDDDDDDDDDD....@3qkVmw3CSASSSSSSSSSSSSSSSSSSSSSAx1+ DDDDDDDDDD",
"DDDDDDDDDDDDDDDX.o+%,0r19AAAZAASSSSSSSSASSSSSSSSSV7%XDDDDDDDDDDD",
"DDDDDDDDDDDDDDDD.%,4::6yjNNSnlmASSSSSSSSSSSSSSSZms;XDDDDDDDDDDDD",
"DDDDDDDDDDDDDDDDDo=u4%%6mCZSZMCZZASSSSSSSSSSSSZj1*oDDDDDDDDDDDDD",
"DDDDDDDDDDDDDOO...+wew78jCSSSAAAASSSSSSSSSSSSSMw% DDDDDDDDDDDDDD",
"DDDDDDDDDDDD*1;&@O-wednldBAASSAAZASSSSSSSSSSSZc1o DDDDDDDDDDDDDD",
"DDDDDDDDDDDD&312,2rbnnMxzNAAASAcBASSSSSSSSSSSCa,ODDDDDDDDDDDDDDD",
"DDDDDDDDDDDDX&17pnNZACNu8lMMNVAAASSSSSSSSSZZSZd1ODDDDDDDDDDDDDDD",
"DDDDDDDDDDDDXO=ehNSSSSCd7uewthNASSSSSSSSSAMnVl5=oDDDDDDDDDDDDDDD",
"DDDDDDDDDDDDD.$4eMASSZNgeereeylMVSASSSSSAMazz7;+.DDDDDDDDDDDDDDD",
"DDDDDDDDDDDDD.O,wnVASCcu48ghttyubZZSSSSSSne82&OXDDDDDDDDDDDDDDDD",
"DDDDDDDDDDDDDDX%3lNAAnf84rzczgasMNZAZSSSAx6>+XDDDDDDDDDDDDDDDDDD",
"DDDDDDDDDDDDDDD.+7MACgw57gnVZCNVVnMcMVZAAM6=XDDDDDDDDDDDDDDDDDDD",
"DDDDDDDDDDDDDDDDX*8xs7<17gMNCkiskaahnNNNMn1ODDDDDDDDDDDDDDDDDDDD",
"DDDDDDDDDDDDDDDDDX*1,**=17ygd2;,37wtuxnczu1ODDDDDDDDDDDDDDDDDDDD",
"DDDDDDDDDDDDDDDDDDX$$@@$%%*<1=***>377e7w0*+oDDDDDDDDDDDDDDDDDDDD",
"DDDDDDDDDDDDDDDDDDDXXXXXXXXXOoO$@%>111,,*o.DDDDDDDDDDDDDDDDDDDDD",
"DDDDDDDDDDDDDDDDDDD........X.XXO$$&>>*1:@XXDDDDDDDDDDDDDDDDDDDDD",
"DDDDDDDDDDDDDDDDDDDDDDDDDDDX.XXX#%@+@$=@X.XDDDDDDDDDDDDDDDDDDDDD",
"DDDDDDDDDDDDDDDDDDDDDDDDDDDXX.XXXoXXoXXX..XDDDDDDDDDDDDDDDDDDDDD",
"DDDDDDDDDDDDDDDDDDDDDDDDDDDDXXXX.XXXXX.XDDDDDDDDDDDDDDDDDDDDDDDD",
"DDDDDDDDDDDDDDDDDDDDDDDDDDDDDD.XDDDD..DDDDDDDDDDDDDDDDDDDDDDDDDD",
"DDDDDDDDDDDDDDDDDDDDDDDDDDDDDDDDDDDDDDDDDDDDDDDDDDDDDDDDDDDDDDDD",
"DDDDDDDDDDDDDDDDDDDDDDDDDDDDDDDDDDDDDDDDDDDDDDDDDDDDDDDDDDDDDDDD",
"DDDDDDDDDDDDDDDDDDDDDDDDDDDDDDDDDDDDDDDDDDDDDDDDDDDDDDDDDDDDDDDD",
"DDDDDDDDDDDDDDDDDDDDDDDDDDDDDDDDDDDDDDDDDDDDDDDDDDDDDDDDDDDDDDDD",
"DDDDDDDDDDDDDDDDDDDDDDDDDDDDDDDDDDDDDDDDDDDDDDDDDDDDDDDDDDDDDDDD",
"DDDDDDDDDDDDDDDDDDDDDDDDDDDDDDDDDDDDDDDDDDDDDDDDDDDDDDDDDDDDDDDD",
"DDDDDDDDDDDDDDDDDDDDDDDDDDDDDDDDDDDDDDDDDDDDDDDDDDDDDDDDDDDDDDDD",
"DDDDDDDDDDDDDDDDDDDDDDDDDDDDDDDDDDDDDDDDDDDDDDDDDDDDDDDDDDDDDDDD"
};
