/* XPM */
static char *result[] = {
/* columns rows colors chars-per-pixel */
"64 64 62 1 ",
"  c #FD6744",
". c #FD6946",
"X c #FE6C49",
"o c #FE734D",
"O c #FE7751",
"+ c #FE7C53",
"@ c #FF8157",
"# c #FF8459",
"$ c #FF8C5E",
"% c #FF8F60",
"& c #FF9464",
"* c #FF9967",
"= c #FF9C6A",
"- c #FFA26D",
"; c #FFA670",
": c #FFAC74",
"> c #FFAE78",
", c #FFB177",
"< c #FFB47A",
"1 c #FFBA7D",
"2 c #FFB480",
"3 c #FFBE81",
"4 c #FFC484",
"5 c #FFC987",
"6 c #FFC58A",
"7 c #FFCC8A",
"8 c #FFD28E",
"9 c #FFCD90",
"0 c #FFD592",
"q c #FFDB95",
"w c #FFD599",
"e c #FFDD9A",
"r c #FFE097",
"t c #FFE49B",
"y c #FFE99F",
"u c #FFDCA6",
"i c #FFE3A2",
"p c #FFECA3",
"a c #FFE5AC",
"s c #FFECAC",
"d c #FFF2A5",
"f c #FFF4AB",
"g c #FFFAAD",
"h c #FFE5B2",
"j c #FFEDB4",
"k c #FFEDB9",
"l c #FFF4B4",
"z c #FFFCB4",
"x c #FFF4BA",
"c c #FFFDBB",
"v c #FFF4C2",
"b c #FFFDC3",
"n c #FFF5CA",
"m c #FFFECC",
"M c #FFF5D6",
"N c #FFFED3",
"B c #FFFFDB",
"V c #FFFFE3",
"C c #FFFFEB",
"Z c #FFFFF3",
"A c #FFFFFD",
"S c None",
/* pixels */
"SSSSSSSSSSSSSSSSSSSSSSSSSSSSSSSSSSSSSSSSSSSSSSSSSSSSSSSSSSSSSSSS",
"SSSSSSSSSSSSSSSSSSSSSSSSSSSSSSSSSSSSSSSSSSSSSSSSSSSSSSSSSSSSSSSS",
"SSSSSSSSSSSSSSSSSSSSSSSSSSSSSSSSSSSSSSSSSSSSSSSSSSSSSSSSSSSSSSSS",
"SSSSSSSSSSSSSSSSSSSSSSSSSSSSSSSSSSSSSSSSSSSSSSSSSSSSSSSSSSSSSSSS",
"SSSSSSSSSSSSSSSSSSSSSSSSSSSSSSSSSSSSSSSSSSSSSSSSSSSSSSSSSSSSSSSS",
"SSSSSSSSSSSSSSSSSSSSSSSSSSSSSSSSSSSSSSSSSSSSSSSSSSSSSSSSSSSSSSSS",
"SSSSSSSSSSSSSSSSSSSSSSSSSSSSSSSSSSSSSS<2SSSSSSSSSSSSSSSSSSSSSSSS",
"SSSSSSSSSSSSSSS.S...X.SSSSSSSSSSSSSSSS==SSSSSSSSSSSSSSSSSSSSSSSS",
"SSSSSSSSSSSSSX.......... SSSSSSSSSSSSSSSSSSSSSSSSSSSSSSSSSSSSSSS",
"SSSSSSSSSSSSS.XX......oX.XooSSSSSSSSSSSSSSSSSSSSSSSSSSSSSSSSSSSS",
"SSSSSSSSSSSS....... .XO+.o*#XSSOSSSSSSSSSSSSSSSSSSSSSSSSSSSSSSSS",
"SSSSSSSSSSSS.X... .XoO@##-,&o .oOSSX.....SSSSSSSSSSSSSSSSSSSSSSS",
"SSSSSSSSSSS.X.... X@%&;:8kl5:#@-#XXXX+#O..SSSSSSSSSSSSSSSSSSSSSS",
"SSSSSSSSSSSX......o$-1eyxZZnf8--%+++&>>=O..SSSSSSSSSSSSSSSSSSSSS",
"SSSSSSSSSSS.......@-1ycbNCZVbg4$+#%&>55<+..SSSSSSSSSSSSSSSSSSSSS",
"SSSSSSSSSSS. .oOO$=,qgmVCCZBgy4%+%=;>34>+X.SSSSSSSSSSSSSSSSSSSSS",
"SSSSSSSSS....o$-,447rzmVZZABde1%$%*;>,>&++OSSSSSSSSSSSSSSSSSSSSS",
"SSSSSSSSS.XoO*4qtdpy8dbmVAABgd5,:*&=13:$O#SSSSSSSSSSSSSSSSSSSSSS",
"SSSSSSSS..O+&4qdzBNd58pgbBCNgdq84;=;:>*OXSSSSSSSSSSSSSSSSSSSSSSS",
"SSSSSSSXX.o$-5qfNVBce7rzcmZBdttxe-&&%#O..S++.....X.SSSSSSSSSSSSS",
"SSSSSSSX..X#=,5dNVBmdrxbzcNNp8zBl4=$%X.XX.OOO+OX##X..SSSSSSSSSSS",
"SSSSSSS....o#*<ecmNNfgbsypzccxmVlr5-&X.+O..+<=+%6>#o....XXSSSSSS",
"SSSSSSSS...o+-4rggzgypq580dbVVbmsq,+X.....X+3>%*33;%+XoXoX.SSSSS",
"SSSSSSSX...Xo*8ggggdt8:178pbNBxpp8$@X+o+S.X#68-:34>;;*#+%OXXSSSS",
"SSSSSSXX....o&8dzczgde*-*qgdljset7:::3+O .o&1808q01451-%++o.SSSS",
"SSSSSSX...XX+:rzcmczzy-,1tplaenCM76qp0<@o#%<4qgzzdyyr81*#OX.SSSS",
"SSSSSSS...XO@<fmmNVmbsqe14-hCvMZZBkit1ta64:15pgzmNzgdt5;%o..SSSS",
"SSSSSSSS...XO;pmBCAVbcxtq1,hBvVCxMNk3>whc0:3sbzdcbgggy8;#X..SSSS",
"SSSSSSSSS...O=0bBBZVcgbcxxNnNZAVlkVmvp;%qfjkVmldddddpe4*o.XSSSSS",
"SSSSSSSSSSS.+=4sVZAZmysxVVklnZZCxnBxut6>4xmVVBVBdydgp0:@...SSSSS",
"SSSSSSSSSSSSX*1qbCBxfe3hCn5kVMnVxaBa&&q0jVvnZAAZNzdzg7=+..SSSSSS",
"SSSSSSSSSSSS.+=>8sl4571pcp5nZCnbbmCu$@4:aZNNAAAAZBccz9;+X.SSSSSS",
"SSSSSSSSS..S X+#1rt10yqtdewlxksbZnaw<-t8wbNZAAAAAACNl8:@..SSSSSS",
"SSSSSSSSSS.. ..O$:55te;<7q77ss8jNvfp37r1emVCAAAAAAAZb8;+..SSSSSS",
"SSSSSSSSSSS.. o#+#@-1<oO+3044dyyt5edy714ixcbZAAAAAAAb7=o.SSSSSSS",
"SSSSSSSSSSSSS.XoooXo&=X.+58*=48pe<;4esydttjBVCAAAAAVfq;XSSSSSSSS",
"SSSSSSSSSSSSS...o$*oO#%+*<@X+@@*:-5dtrbbffVCZAAAAAZbpt:oSSSSSSSS",
"SSSSSSSSSSSSS...X&;O.O*&+&+@@o$@+$0csdzzzzmBZAAAZVbgy4&.SSSSSSSS",
"SSSSSSSSSSSSS...o+$oX++X+;%-$&;*X#7xft7pBNcNZAAVBmd05;oSSSSSSSSS",
"SSSSSSSSSSS....o*#oo@*O@:e73;<1*#-edzprxBNzBZACNcfr1&o.SSSSSSSSS",
"SSSSSSSSSS.OXX.o-&$%>3&%<60:1,1-3*5dcccbccbNVVmzd8,@X SSSSSSSSSS",
"SSSSSSSSSS.XXoO$380qt>&>%O-45<&*&-tcbzzbbbNccbzgr4#.SSSSSSSSSSSS",
"SSSSSSSSSS..X+&,tygcp1;4;+O;1$-4=umcbmczczzggzzde:O.SSSSSSSSSSSS",
"SSSSSSSSSSS..o&4pgfx0444:$++O@-17NbvNCBmmczzgzzy8:#.SSSSSSSSSSSS",
"SSSSSSSSSSSS..O-0ddt77804-+. .+-3xmbVAVVmbcggggq1:&X.SSSSSSSSSSS",
"SSSSSSSSSSSSS.X$18t71<qd6&o   @=<mBBZCNmNNzprty7,;&o.SSSSSSSSSSS",
"SSSSSSSSSSSSS .O%,3<&&8dr-o.XX&:0bbBVmccCCzt754;$&#o.SSSSSSSSSSS",
"SSSSSSSSSSSSS..X+*-%O+-48<$$-:14500xbzzgnmf0<=*+XXo.SSSSSSSSSSSS",
"SSSSSSSSSSSSSS..O+#X..+=,:=:q01=-=<0ree0484=+OO...SSSSSSSSSSSSSS",
"SSSSSSSSSSSSSSS.O+.....X&=;,93-%=-3i4:;-*$+o....SSSSSSSSSSSSSSSS",
"SSSSSSSSSSSSSSSS##X.S...+*=;;>=;::1w:$+OoX .XSSSSSSSSSSSSSSSSSSS",
"SSSSSSSSSSSSSSSSSX..SS. .O+#%&=:;=,,;#o..oS+#SSSSSSSSSSSSSSSSSSS",
"SSSSSSSSSSSSSSSSSS... .S... X+&:;;::-#X..OSSSSSSSSSSSSSSSSSSSSSS",
"SSSSSSSSSSSSSSSSSSSS..SSSS ..X#=-==%#o .SSSSSSSSSSSSSSSSSSSSSSSS",
"SSSSSSSSSSSSSSSSSSSSSSSSSSSSS.X+###O. SoSSSSSSSSSSSSSSSSSSSSSSSS",
"SSSSSSSSSSSSSSSSSSSSSSSSSSSSSSS.... .SS+SSSSSSSSSSSSSSSSSSSSSSSS",
"SSSSSSSSSSSSSSSSSSSSSSSSSSSSSSSSSSSSSSSSSSSSSSSSSSSSSSSSSSSSSSSS",
"SSSSSSSSSSSSSSSSSSSSSSSSSSSSSSSSSSSSSSSSSSSSSSSSSSSSSSSSSSSSSSSS",
"SSSSSSSSSSSSSSSSSSSSSSSSSSSSSSSSSSSSSSSSSSSSSSSSSSSSSSSSSSSSSSSS",
"SSSSSSSSSSSSSSSSSSSSSSSSSSSSSSSSSSSSSSSSSSSSSSSSSSSSSSSSSSSSSSSS",
"SSSSSSSSSSSSSSSSSSSSSSSSSSSSSSSSSSSSSSSSSSSSSSSSSSSSSSSSSSSSSSSS",
"SSSSSSSSSSSSSSSSSSSSSSSSSSSSSSSSSSSSSSSSSSSSSSSSSSSSSSSSSSSSSSSS",
"SSSSSSSSSSSSSSSSSSSSSSSSSSSSSSSSSSSSSSSSSSSSSSSSSSSSSSSSSSSSSSSS",
"SSSSSSSSSSSSSSSSSSSSSSSSSSSSSSSSSSSSSSSSSSSSSSSSSSSSSSSSSSSSSSSS"
};
