/* XPM */
static char *result[] = {
/* columns rows colors chars-per-pixel */
"64 64 60 1 ",
"  c #FE6644",
". c #FE6947",
"X c #FE6C49",
"o c #FF724E",
"O c #FF7650",
"+ c #FF7C54",
"@ c #FF8157",
"# c #FF845A",
"$ c #FF8A5E",
"% c #FF8E61",
"& c #FF9364",
"* c #FF9867",
"= c #FF9C6A",
"- c #FFA26E",
"; c #FFA571",
": c #FFAB74",
"> c #FFAF78",
", c #FFB177",
"< c #FFB47B",
"1 c #FFBA7E",
"2 c #FFBE81",
"3 c #FFC384",
"4 c #FFC688",
"5 c #FFCC8B",
"6 c #FFD18E",
"7 c #FFCE90",
"8 c #FFD592",
"9 c #FFDC96",
"0 c #FFD69A",
"q c #FFDD9A",
"w c #FFE49D",
"e c #FFE99F",
"r c #FFD8A6",
"t c #FFDAB3",
"y c #FFE4A2",
"u c #FFECA3",
"i c #FFE5AC",
"p c #FFEDAC",
"a c #FFF1A5",
"s c #FFF3AB",
"d c #FFE7B4",
"f c #FFEEB3",
"g c #FFEDBD",
"h c #FFF5B3",
"j c #FFFBB4",
"k c #FFF4BD",
"l c #FFFCBB",
"z c #FFF3C3",
"x c #FFFCC4",
"c c #FFF6C8",
"v c #FFFDCC",
"b c #FFF5D2",
"n c #FFFFD3",
"m c #FFF7DE",
"M c #FFFEDC",
"N c #FFFEE3",
"B c #FFFFEB",
"V c #FFFFF4",
"C c #FFFFFE",
"Z c None",
/* pixels */
"ZZZZZZZZZZZZZZZZZZZZZZZZZZZZZZZZZZZZZZZZZZZZZZZZZZZZZZZZZZZZZZZZ",
"ZZZZZZZZZZZZZZZZZZZZZZZZZZZZZZZZZZZZZZZZZZZZZZZZZZZZZZZZZZZZZZZZ",
"ZZZZZZZZZZZZZZZZZZZZZZZZZZZZZZZZZZZZZZZZZZZZZZZZZZZZZZZZZZZZZZZZ",
"ZZZZZZZZZZZZZZZZZZZZZZZZZZZZZZZZZZZZZZZZZZZZZZZZZZZZZZZZZZZZZZZZ",
"ZZZZZZZZZZZZZZZZZZZZZZZZZZZZZZZZZZZZZZZZZZZZZZZZZZZZZZZZZZZZZZZZ",
"ZZZZZZZZZZZZZZZZZZZZZZZZZZZZZZZZZZZZZZZZZZZZZZZZZZZZZZZZZZZZZZZZ",
"ZZZZZZZZZZZZZZZZZZZZZZZZZZZZZZXZZZZZZZZZZZZZZZZZZZZZZZZZZZZZZZZZ",
"ZZZZZZZZZZZZZZZZZZZZZZZZZZZXXXXXZZZZZZZZZZZZZZZZZZZZZZZZZZZZZZZZ",
"ZZZZZZZZZZZZZZZZZZZZZZZZZZXXXX.XZZZZZZZZZZZZZZZZZZZZZZZZZZZZZZZZ",
"ZZZZZZZZZZZZZZZZZZZZZZZZZZXXXXXXZZZZZZZZZZZZZZZZZZZZZZZZZZZZZZZZ",
"ZZZZZZZZZZZZZZZZZZZZZZZZZX.XoXXXZZZZZZZZZZZZZZZZZZZZZZZZZZZZZZZZ",
"ZZZZZZZZZZZZZZZZZZZZZZZZZX.XOOoXXZZZZZXXZZZZZZZZZZZZZZZZZZZZZZZZ",
"ZZZZZZZZZZZZZZZZZZZZZZZZ.XXOOOOX.ZZZO++oXZZZZZZZZZZZZZZZZZZZZZZZ",
"ZZZZZZZZZZZZZZZZZZZZZZZZ.XOooOO.ZZZ#;<;$oXZZZZZZZZZZZZZZZZZZZZZZ",
"ZZZZZZZZZZZZZZZZZZZZXooOO%%%$@X.ZZo;kh5>O..ZZZZZZZZZZZZZZZZZZZZZ",
"ZZZZZZZZZZZZZZZZZZZZO:353588q,+XXX+<piw2$o.ZZZZZZZZZZZZZZZZZZZZZ",
"ZZZZZZZZZZZZZZZZ.XXO-8alvvvNMu<-$O*5www3%XXZZZZZZZZZZZZZZZZZZZZZ",
"ZZZZZZZZZZZZZZZO$&%;waxBCVVCVxq3*$-8ew5>+XX.ZZZZZZZZZZZZZZZZZZZZ",
"ZZZZZZZZZZZZZZZ&365ulvMVCCCCVNp,&&:8ae1&+X.XZZZZZZZZZZZZZZZZZZZZ",
"ZZZZZZZZZZZZZZo1ajjvnnMVCCCCCMh3--<6ue<+OXXXZZZZZZZZZZZZZZZZZZZZ",
"ZZZZZZZZZZZZZZO2jlxNNVBNVCCCVnnky61,58<+XX.XZZZZZZZZZZZZZZZZZZZZ",
"ZZZZZZZZZZZZZZo-ejnBVCMvNCCCVNBCbw3683-oOXXXXXX.ZZZZZZZZZZZZZZZZ",
"ZZZZZZZZZZZZZ.o$9xBCCCNjnVCCCCCCVngju2=O%+OoX+@o.ZZZZZZZZZZZZZZZ",
"ZZZZZZZZZZZZZ.#1hNCCCCNjxNVCCCCCVMz5q2#O#+O+$;:%o.ZZZZZZZZZZZZZZ",
"ZZZZZZZZZZZZ.o;exVCCCVMvVVCCNVCCMj8;6=XoOoO=223:+XX.ZZZZZZZZZZZZ",
"ZZZZZZZZZZZZX#3jMCCCCCCVCVVVbBCCBNd8e<%%$Oo%>22<=%#XXXZZZZZZZZZZ",
"ZZZZZZZZZZZZo&9lBCCCCVCCVbNVVCCCCCBxupq00,-20w3,;;&OXXXZZZZZZZZZ",
"ZZZZZZZZZZZZo*qvVCCCCBVCviNCCCCCCCCbslfpvxkMNp1;:;%OXX.ZZZZZZZZZ",
"ZZZZZZZZZZZZX#3hnVCCVBNBMMVBCCCCCVCNvnnnNBVCBxy1>=+XX.XZZZZZZZZZ",
"ZZZZZZZZZZZZZX@2lBCCVBMMBCCMBCCCVVCVVCVVVCCCCVny<&o.X.ZZZZZZZZZZ",
"ZZZZZZZZZZZ.ZZZ&pnBBVCCBMCCCCCCCCCCCVCCCCCCCCCNl6=o.ZZZZZZZZZZZZ",
"ZZZZZZZZZZZ..ZZ@4alvnMMvvVCCCCCCCCCBdNCCCCCCCCBMw-X ZZZZZZZZZZZZ",
"ZZZZZZZZZZZZXXXX@:yjllpqiVVCCCCCCCCVzBCCCCCCCCCB0$..ZZZZZZZZZZZZ",
"ZZZZZZZZZZZZZ....X=wMNz25bVVVCCCCCCCVCCCCCCCCCVm:X.ZZZZZZZZZZZZZ",
"ZZZZZZZZZZZZZZZ...o:rtzz7iCCVCCCCCCCCCCCCCCCCVcyOZZZZZZZZZZZZZZZ",
"ZZZZZZZZZZZZZZZZ..#$@O%87iMCCCCCCCVmNCCCCCCVVc21@ZZZZZZZZZZZZZZZ",
"ZZZZZZZZZZZZZZZZZ.=22$X%0NgNCVNVVVBNBCCCCVBci<@OZZZZZZZZZZZZZZZZ",
"ZZZZZZZZZZZZZZZooXO,s5<:<gNBCVVCBbVCVCCCCMiu8@ ZZZZZZZZZZZZZZZZZ",
"ZZZZZZZZZZZZZZ%&%&@&uxxh54svVCCVBBVCCVVCBf<15$.ZZZZZZZZZZZZZZZZZ",
"ZZZZZZZZZZZZZZ&;;:;2ukMnkwuakVCBBBVVCCVCn8--&O.ZZZZZZZZZZZZZZZZZ",
"ZZZZZZZZZZZZZZOO$>5ulMVVNphjkBVVVmvVVCCCg<>21@..ZZZZZZZZZZZZZZZZ",
"ZZZZZZZZZZZZZZZXO,9jlBVCN7iNBBNNcygVCCCBk5-1>OXZZZZZZZZZZZZZZZZZ",
"ZZZZZZZZZZZZZZZX+&5sjvnMx35kNvxpwuzVCCCBu2,3=X.ZZZZZZZZZZZZZZZZZ",
"ZZZZZZZZZZZZZZZo@=5wajss6>:wvju9u9unVCCBf22-+.ZZZZZZZZZZZZZZZZZZ",
"ZZZZZZZZZZZZZZZX+#388qww3::6jjlla6ejNCCMs4&oZZZZZZZZZZZZZZZZZZZZ",
"ZZZZZZZZZZZZZZZZ.O<85<1461;<uyqq51ulnBVNs4=oZZZZZZZZZZZZZZZZZZZZ",
"ZZZZZZZZZZZZZZZZZX$;,*$%;;$@-&%#=3sxNNnkw<+oZZZZZZZZZZZZZZZZZZZZ",
"ZZZZZZZZZZZZZZZZZZXoOoXXooX.Xo.o$<9ukBMlw3#XZZZZZZZZZZZZZZZZZZZZ",
"ZZZZZZZZZZZZZZZZZZZ.........X..X+->20ky82&$ZZZZZZZZZZZZZZZZZZZZZ",
"ZZZZZZZZZZZZZZZZZZZZ..ZZ..Z.XXXXO%*-;<2:$oXZZZZZZZZZZZZZZZZZZZZZ",
"ZZZZZZZZZZZZZZZZZZZZ.ZZZZZZ....O+++&%&=%o.ZZZZZZZZZZZZZZZZZZZZZZ",
"ZZZZZZZZZZZZZZZZZZZZZZZZZZZZ..XOXOO+$+Oo..ZZZZZZZZZZZZZZZZZZZZZZ",
"ZZZZZZZZZZZZZZZZZZZZZZZZZZZZZ.XXXXXoOXX.ZZZZZZZZZZZZZZZZZZZZZZZZ",
"ZZZZZZZZZZZZZZZZZZZZZZZZZZZZZX.XX..X..ZZZZZZZZZZZZZZZZZZZZZZZZZZ",
"ZZZZZZZZZZZZZZZZZZZZZZZZZZZZZZZZZZZZZZZZZZZZZZZZZZZZZZZZZZZZZZZZ",
"ZZZZZZZZZZZZZZZZZZZZZZZZZZZZZZZZZZZZZZZZZZZZZZZZZZZZZZZZZZZZZZZZ",
"ZZZZZZZZZZZZZZZZZZZZZZZZZZZZZZZZZZZZZZZZZZZZZZZZZZZZZZZZZZZZZZZZ",
"ZZZZZZZZZZZZZZZZZZZZZZZZZZZZZZZZZZZZZZZZZZZZZZZZZZZZZZZZZZZZZZZZ",
"ZZZZZZZZZZZZZZZZZZZZZZZZZZZZZZZZZZZZZZZZZZZZZZZZZZZZZZZZZZZZZZZZ",
"ZZZZZZZZZZZZZZZZZZZZZZZZZZZZZZZZZZZZZZZZZZZZZZZZZZZZZZZZZZZZZZZZ",
"ZZZZZZZZZZZZZZZZZZZZZZZZZZZZZZZZZZZZZZZZZZZZZZZZZZZZZZZZZZZZZZZZ",
"ZZZZZZZZZZZZZZZZZZZZZZZZZZZZZZZZZZZZZZZZZZZZZZZZZZZZZZZZZZZZZZZZ",
"ZZZZZZZZZZZZZZZZZZZZZZZZZZZZZZZZZZZZZZZZZZZZZZZZZZZZZZZZZZZZZZZZ",
"ZZZZZZZZZZZZZZZZZZZZZZZZZZZZZZZZZZZZZZZZZZZZZZZZZZZZZZZZZZZZZZZZ"
};
