/* XPM */
static char *result[] = {
/* columns rows colors chars-per-pixel */
"64 64 66 1 ",
"  c #FD6745",
". c #FE6947",
"X c #FE6C49",
"o c #FE724D",
"O c #FE7650",
"+ c #FE7C54",
"@ c #FF8157",
"# c #FF845A",
"$ c #FF8A5D",
"% c #FF8E61",
"& c #FF9364",
"* c #FF9967",
"= c #FF9668",
"- c #FF9C6A",
"; c #FF9F71",
": c #FFA26D",
"> c #FFA672",
", c #FFAB74",
"< c #FFB077",
"1 c #FFB47A",
"2 c #FFBA7E",
"3 c #FFBE81",
"4 c #FFC384",
"5 c #FFCA87",
"6 c #FFC589",
"7 c #FFCD8B",
"8 c #FFD28E",
"9 c #FFCA92",
"0 c #FFD491",
"q c #FFDB95",
"w c #FFD79A",
"e c #FFDD9A",
"r c #FFE39B",
"t c #FFE99E",
"y c #FFDFA3",
"u c #FFD5A9",
"i c #FFDEAA",
"p c #FFE4A3",
"a c #FFEBA3",
"s c #FFE6AA",
"d c #FFECAB",
"f c #FFF2A5",
"g c #FFF3AB",
"h c #FFFBAD",
"j c #FFE4B0",
"k c #FFEDB4",
"l c #FFE0BC",
"z c #FFEDBD",
"x c #FFF4B4",
"c c #FFFBB3",
"v c #FFF5BA",
"b c #FFFCBC",
"n c #FFEDC2",
"m c #FFF5C4",
"M c #FFFDC4",
"N c #FFF1C8",
"B c #FFFECC",
"V c #FFF5D2",
"C c #FFFDD3",
"Z c #FFF7D8",
"A c #FFFEDC",
"S c #FFFFE4",
"D c #FFFFEC",
"F c #FFFFF4",
"G c #FFFFFE",
"H c None",
/* pixels */
"HHHHHHHHHHHHHHHHHHHHHHHHHHHHHHHHHHHHHHHHHHHHHHHHHHHHHHHHHHHHHHHH",
"HHHHHHHHHHHHHHHHHHHHHHHHHHHHHHHHHHHHHHHHHHHHHHHHHHHHHHHHHHHHHHHH",
"HHHHHHHHHHHHHHHHHHHHHHHHHHHHHHHHHHHHHHHHHHHHHHHHHHHHHHHHHHHHHHHH",
"HHHHHHHHHHHHHHHHHHHHHHHHHHHHHHHHHHHHHHHHHHHHHHHHHHHHHHHHHHHHHHHH",
"HHHHHHHHHHHHHHHHHHHHHHHHHHHHHHHHHHHHHHHHHHHHHHHHHHHHHHHHHHHHHHHH",
"HHHHHHHHHHHHHHHHHHHHHHHHHHHHHHHHHHHHHHHHHHHHHHHHHHHHHHHHHHHHHHHH",
"HHHHHHHHHHHHHHHHHHHHHHHHHHHHHHHHHHHHHHHHHHHHHHHHHHHHHHHHHHHHHHHH",
"HHHHHHHHHHHHHHHHHHHHHHHHHHH.HHHHHHHHH%-&HHHHHHHHHHHHHHHHHHHHHHHH",
"HHHHHHHHHHHHHHHHX.....  H .....HHHHHH%;%HHHHHHHHHHHHHHHHHHHHHHHH",
"HHHHHHHHHHHHHHHX.......oo  .....HHHHH%>%OHHHHHHHHHHHHHHHHHHHHHHH",
"HHHHHHHHHHHHHHXXXX...o$:*+X...X+OHHHH+#OXHHHHHHHHHHHHHHHHHHHHHHH",
"HHHHHHHHHHHHH.XXo...O%:11-&+X.X++HHHXoXXXXHHHHHHHHHHHHHHHHHHHHHH",
"HHHHHHHHHHHH.XXOoX@*>14458w92@XoXX..X++OXX.HHHHHHHHHHHHHHHHHHHHH",
"HHHHHHHHHHHH.XO@Oo&30radvCDDC9>2-@$&=13:+XXHHHHHHHHHHHHHHHHHHHHH",
"HHHHHHHHHHH..o@&$@-5rhBDFGGGGSda3<35pbxe*O.HHHHHHHHHHHHHHHHHHHHH",
"HHHHHHHHHHH..o$::&2rhBFGGGGGGFB0360rbCCc<O.HHHHHHHHHHHHHHHHHHHHH",
"HHHHHHHHHHH.X@-257acbAFGGGGGGFCe35rthMbs>+X.HHHHHHHHHHHHHHHHHHHH",
"HHHHHHHHHHo@$,0fxBAAADGGGGGGGFMrq8qthch0-+X.HHHHHHHHHHHHHHHHHHHH",
"HHHHHHHHH.@,18hCDFGGFSFGGGGGGGCch08rccf83OX.HHHHHHHHHHHHHHHHHHHH",
"HHHHHHHH..#,4tMAFGGGFASFGGGGGFSSbtrtgf4=%O+XXXXHHHHHHHHHHHHHHHHH",
"HHHHHHHX.XO-2rcBDGGGGSBDGGGGFSDGSgere1#o++,%XXXXXX..HHHHHHHHHHHH",
"HHHHHHHX..o%14tbSGGGGFDFGFGGGFFGFCcf8%@-#+;,&XO>-@oo.XXXHHHHHHHH",
"HHHHHHHX..o&<4fMSGGGGGFFFSGGGGGGDCx3*O%:o+6d2@$001>=@+XXXHHHHHHH",
"HHHHHHH..o#:,4xAGGGGGFSSFAFGGGGGSM7$o.$$@=qbs>>27q06,-:%+oHHHHHH",
"HHHHHHHXO$*:>4gSFGGGFFZCCSGFFGGFCv3->>%@%:8bMae8qrghr34,*@XHHHHH",
"HHHHHHHXo%>130MDGGGFGGAxvSGFFFFGDmpsme&$*:8BMCABxcMBbr2<>$XXHHHH",
"HHHHHHHXX#>25rCFGGGGGGSDCDSDFFFGGDSSCpi9qsxCAFGFDCSABc81*+XHHHHH",
"HHHHHHHHXo%>24vFGGGGGFGFDCdVGGFGGGGSkyAAMbbSFDDFFSDFSMa2%XXHHHHH",
"HHHHHHHHHXo@&:pSGGGGGFGGGFFFGGGGFDGFAZsVFDFGFFDDDSFDSb7*OX.HHHHH",
"HHHHHHHHHHH.O>abDGGGGFFFGGGGGGGGFGGGFFnzDGGGGGGFSDGDCg2@X..HHHHH",
"HHHHHHHHHHHH.-rhBDGGGFDVGGFFGGFGGFGZunBBFGGGGGGGFFGFBr<@X.HHHHHH",
"HHHHHHHHH.HHH@2rgMSSADBBGFSFGGFFFGGl*3kVFGGGGGGGGGGFBf2@..HHHHHH",
"HHHHHHHHH... .#:0bACMSMmADSFFGDFGFDAzVASFGGGGGGGGGGFMa1@..HHHHHH",
"HHHHHHHHHHX....X,dmCSCe3sADVSGDFGGFFSDmZFGGGGGGGGGGFM0*o.HHHHHHH",
"HHHHHHHHHHHH. .X:419dx6$,nSBAGGGFSDFFACSFDGGGGGGGGGFx,o.HHHHHHHH",
"HHHHHHHHHHHHHH.o#&**:2-%7nZjsVDFFBmZFFFSSSGGGGGGGGGDx>XHHHHHHHHH",
"HHHHHHHHHHHHHH.X+,r0##27szy4219zCbDFDFGFFGGGGGGGGGFAp&.HHHHHHHHH",
"HHHHHHHHHHHHHHH.O:60$X>e7r0re,5fapSGDDSFGGGGGGGGFABb2XHHHHHHHHHH",
"HHHHHHHHHHHHHH .o*,4>*1-9CzvvwdeqySDDBBFGGGGGGGGDbt7#HHHHHHHHHHH",
"HHHHHHHHHHHo#OX.O1>247p5eCSbBMmnvnSSFSFGGGGGGGFSBs,#XHHHHHHHHHHH",
"HHHHHHHHHH.$1-%@$0ppdxepxpsvMbaxsdCDGGGGGGFFGFSMf,o.HHHHHHHHHHHH",
"HHHHHHHHHH.o=:,>9vADDCsrbr8eAmreyAFGFGGGGFSFFGSMr& HHHHHHHHHHHHH",
"HHHHHHHHHHH.+=3ebSFGFCcfhgaq70nkmGFSFGGGGGFSFFCcr*XHHHHHHHHHHHHH",
"HHHHHHHHHHHHX@1eMDFFDCMbMf02=*9MCFFAFGGGGGFSDSbt8:o.HHHHHHHHHHHH",
"HHHHHHHHHHHH o&1gCSDABbBBp4:$#2qmGFFGGGGGGSCCMa75-o.HHHHHHHHHHHH",
"HHHHHHHHHHHHH.O>rhCAMtqMBg5>:-17NDFFGGGGGGAbae1*:&XHHHHHHHHHHHHH",
"HHHHHHHHHHHHH.o*6aMbp513fhr7805exMSGFFFFGFBf3:@ooo.HHHHHHHHHHHHH",
"HHHHHHHHHHHHHHXo>rfp4,:,0ffcCCcfaaADAAASAvr1#o...HHHHHHHHHHHHHHH",
"HHHHHHHHHHHHHHH.+60,=$$>7fhcCMfratxbggbcr52$..HHHHHHHHHHHHHHHHHH",
"HHHHHHHHHHHHHHHHX=>+XXO$1rfhsr0rfafht8082>-&XHHHHHHHHHHHHHHHHHHH",
"HHHHHHHHHHHHHHHHHoOX.XXX+:24135trrafr5<:=@$&oHHHHHHHHHHHHHHHHHHH",
"HHHHHHHHHHHHHHHHHXXX.....Xo+$=2088q85,&@++XOHHHHHHHHHHHHHHHHHHHH",
"HHHHHHHHHHHHHHHHHHH.........Xo$,112<:#o.XXXHHHHHHHHHHHHHHHHHHHHH",
"HHHHHHHHHHHHHHHHHHHHH..HHHH...Xo$*=#+.o+XXHHHHHHHHHHHHHHHHHHHHHH",
"HHHHHHHHHHHHHHHHHHHHHHHHHHHH....oOo...O+HHHHHHHHHHHHHHHHHHHHHHHH",
"HHHHHHHHHHHHHHHHHHHHHHHHHHHHHXX......XHHHHHHHHHHHHHHHHHHHHHHHHHH",
"HHHHHHHHHHHHHHHHHHHHHHHHHHHHHHHHHHHHHHHHHHHHHHHHHHHHHHHHHHHHHHHH",
"HHHHHHHHHHHHHHHHHHHHHHHHHHHHHHHHHHHHHHHHHHHHHHHHHHHHHHHHHHHHHHHH",
"HHHHHHHHHHHHHHHHHHHHHHHHHHHHHHHHHHHHHHHHHHHHHHHHHHHHHHHHHHHHHHHH",
"HHHHHHHHHHHHHHHHHHHHHHHHHHHHHHHHHHHHHHHHHHHHHHHHHHHHHHHHHHHHHHHH",
"HHHHHHHHHHHHHHHHHHHHHHHHHHHHHHHHHHHHHHHHHHHHHHHHHHHHHHHHHHHHHHHH",
"HHHHHHHHHHHHHHHHHHHHHHHHHHHHHHHHHHHHHHHHHHHHHHHHHHHHHHHHHHHHHHHH",
"HHHHHHHHHHHHHHHHHHHHHHHHHHHHHHHHHHHHHHHHHHHHHHHHHHHHHHHHHHHHHHHH",
"HHHHHHHHHHHHHHHHHHHHHHHHHHHHHHHHHHHHHHHHHHHHHHHHHHHHHHHHHHHHHHHH"
};
