/* XPM */
static char *result[] = {
/* columns rows colors chars-per-pixel */
"64 64 39 1 ",
"  c #FC613F",
". c #FC6644",
"X c #FD6946",
"o c #FE6C49",
"O c #FE734D",
"+ c #FE784F",
"@ c #FE7750",
"# c #FF7B53",
"$ c #FF8156",
"% c #FF8459",
"& c #FF8B5D",
"* c #FF905F",
"= c #FF8E60",
"- c #FF9363",
"; c #FF9967",
": c #FF9C69",
"> c #FFA36E",
", c #FFA671",
"< c #FFAB73",
"1 c #FFB076",
"2 c #FFB479",
"3 c #FFBB7E",
"4 c #FFBD81",
"5 c #FFC283",
"6 c #FFC987",
"7 c #FFCD8B",
"8 c #FFD28E",
"9 c #FFCE90",
"0 c #FFD791",
"q c #FFDC95",
"w c #FFDC99",
"e c #FFE097",
"r c #FFE49B",
"t c #FFE99D",
"y c #FFECA3",
"u c #FFF3A6",
"i c #FFF4AB",
"p c #FFF9AE",
"a c None",
/* pixels */
"aaaaaaaaaaaaaaaaaaaaaaaaaaaaaaaaaaaaaaaaaaaaaaaaaaaaaaaaaaaaaaaa",
"aaaaaaaaaaaaaaaaaaaaaaaaaaaaaaaaaaaaaaaaaaaaaaaaaaaaaaaaaaaaaaaa",
"aaaaaaaaaaaaaaaaaaaaaaaaaaaaaaaaaaaaaaaaaaaaaaaaaaaaaaaaaaaaaaaa",
"aaaaaaaaaaaaaaaaaaaaaaaaaaaaaaaaaaaaaaaaaaaaaaaaaaaaaaaaaaaaaaaa",
"aaaaaaaaaaaaaaaaaaaaaaaaaaaaaaaaaaaaaaaaaaaaaaaaaaaaaaaaaaaaaaaa",
"aaaaaaaaaaaaaaaaaaaaaaaaaaaaaaaaaaaaaa>4aaaaaaaaaaaaaaaaaaaaaaaa",
"aaaaaaaaaaaaaaaaaaaaaaaaaaaaaaaaaaaaaaaaaaaaaaaaaaaaaaaaaaaaaaaa",
"aaaaaaaaaaaaaaaaaaaaaaaaaaaaaaaaaaaaaaaaaaaaaaaaaaaaaaaaaaaaaaaa",
"aaaaaaaaaaaaaaaaaaaaaXXaaa&aaaaaaaaaaaaaaaaaaaaaaaaaaaaaaaaaaaaa",
"aaaaaaaaaaaaaooaaaaaXXXXaa#aaaaaaaaaaaaaaaaaaaaaaaaaaaaaaaaaaaaa",
"aaaaaaaaaaaaoXXaaaaaX...XXXaaaaaaaaaaaaaaaaaaaaaaaaaaaaaaaaaaaaa",
"aaaaaaaaaaaaXXXaaaX.XX.X#&@.Xaa&#aaaaaoaaaaaaaaaaaaaaaaaaaaaaaaa",
"aaaaaaaaaaaaXoXaaaX.XooO:52%+oX#@oXXoXoXaaaaaaaaaaaaaaaaaaaaaaaa",
"aaaaaaaaaaaaaXXaaa..X@##;35:-#oXXXXXoXXXoaaaaaaaaaaaaaaaaaaaaaaa",
"aaaaaaaaaaaaaXX...XXo#=-:,2:$#X.X.XXXXXXoaaaaaaaaaaaaaaaaaaaaaaa",
"aaaaaaaaaaaaaX.X.X.o@#;,<25;+o...XXXXoooXaaaaaaaaaaaaaaaaaaaaaaa",
"aaaaaaaaaaaaXXooooXXo$;;,79=+o...XXXoXXooaaaaaaaaaaaaaaaaaaaaaaa",
"aaaaaaaaaXXXXXo#&-@XXO##&,2=##oX.X.XoXooaaaaaaaaaaaaaaaaaaaaaaaa",
"aaaaaaaaaXXXoo@-,4-o.XOO@,q:#Oo@oXXXXXoaaaaaaaaaaaaaaaaaaaaaaaaa",
"aaaaaaaaaXXXoo#,2<:#O=-#$;1*oo%:@.XXXXaaaaaaaaXooXoooaaaaaaaaaaa",
"aaaaaaaaaaXXXX+;,<2&+--@+$**$+*<=OXXXXaXoaaaa#Oo@#ooXaaaaaaaaaaa",
"aaaaaaaaaaXXXXX%&-:++#@oOO$->>,1=@oXXaaXXaaa#%oo#-oXoXoaaaaaaaaa",
"aaaaaaaaaaaXXXX@#%#oOoXooO+>65>*=%oXXaaaaaaaO%OX@#OoXXXXo@Oaaaaa",
"aaaaaaaaaaaa..O@##+Oo...XO$;<<%+##XXoOXoaaaXo%Oo@##@XXXXXoooaaaa",
"aaaaaaaaaaaaa.o#=&%#+O   +$&%%*$=@@%&&X.aa.XXX@%&==#@oooXXoXaaaa",
"aaaaaaaaaaaa..+%;::;&O.XO+$>&&2e5@@%-%#@XoX.Xo%&-<,=&%@oXXoaaaaa",
"aaaaaaaaaaaa.X$;<55<;#+Oo  <2%<6<<,=%@&,>$...o$$-49>-&%OX.Xaaaaa",
"aaaaaaaaaaaXXo#>5qq3;--++o$<>>33=,<:&O-&;$o.+;>*=,,-&%@oXXaaaaaa",
"aaaaaaaaaaaXXX@>3505-%;%**<;10q2:;5-<%+ o$*$,4:%%&=&$@OXXXaaaaaa",
"aaaaaaaaaaaaX.+>70q3*$%-2<&*;682&;3&#oo++*2;32,2:#%%&@XXXXaaaaaa",
"aaaaaaaaaaaa.Xo=<5,&+oO>5:o><&;,%+<;oao#-55&2re05>&%=#X..aaaaaaa",
"aaaaaaaaaaaaaXXo#;#oXX+&&+X*31>&*,5*o.ooO47;8ue0y0,;-%X..Xaaaaaa",
"aaaaaaaaaaaaaaXXX+oX#%%%%+X+#&%&2>*+o ++o*<4rttpue85,&o..Xaaaaaa",
"aaaaaaaaaaaaaaXXXX.X#%++$+Xo#OO+-*&o..ooo;27qptputrq5*o..aaaaaaa",
"aaaaaaaaaaaaaoO.X...OOX..o+oXXo...o+o...O&-*3r0uuett7;O..aaaaaaa",
"aaaaaaaaaaaaaXX....XXXaa Oo.. XX...oo$$$#++-227reqte4&$+.aaaaaaa",
"aaaaaaaaaaaaaaX...XX..o.o. ...a....O+o*:&@-27700err8>&&+Xaaaaaaa",
"aaaaaaaaaaaaaXXX.XXX......a..aaaaaX%$+**#%->5yrqq873:%#oXaaaaaaa",
"aaaaaaaaaaaaaXXXXXX.oXXa .......aaO&&#++=:;>5uuq554>*$oXaaaaaaaa",
"aaaaaaaaaaaaaa.XX.X..X.XXooo.o..aXO%&%+#;<=,7ur52<<*#oX.aaaaaaaa",
"aaaaaaaaaaaaaXXX..XX#oXXo%+.oOO.X.X#-&%&&&->7w52,;%+XXaaaaaaaaaa",
"aaaaaaaaaaaXX.XXXXO@%oXX.o+Oo.o.XX+-:%$&&%>1<1,,:%O..aaaaaaaaaaa",
"aaaaaaaaaaaXXX.o+@;=@XXo..oooaoO.+::;;&&&&>,=;--&@X.aaaaaaaaaaaa",
"aaaaaaaaaaaa.XXo@@&=XoooX.XX.o#Oo:>>,2>&-----=-;&@XXaaaaaaaaaaaa",
"aaaaaaaaaaaaa..X##OoXXOXX..aaaao@,:<47,-;:--==;-%+oXaaaaaaaaaaaa",
"aaaaaaaaaaaaaa.XoOXXXX#@o.aaaaa.O;1<55&=>>:===-;%OoXXaaaaaaaaaaa",
"aaaaaaaaaaaaaaXXXXXX.o&=@.aaaaooo,421:@#=,;%#%==#oXXoaaaaaaaaaaa",
"aaaaaaaaaaaaaa.X.X....@&@XXXXXO@@;=;=%@o%7,&@@#@oXXXaaaaaaaaaaaa",
"aaaaaaaaaaaaaaaXXXXaaXXOo.X.OoXoooo#&#@o#<=OoXXoXoXXaaaaaaaaaaaa",
"aaaaaaaaaaaaaaaaaaaaaaXo.XXo#OXXo.XoooooooXoXXXoaaaaaaaaaaaaaaaa",
"aaaaaaaaaaaaaaaa=aaaaaaaXXXXOoXXooo@OooXXaaaaaaaaaaaaaaaaaaaaaaa",
"aaaaaaaaaaaaaaaaaaaaaaaaXXXXXXXX.oO-#oaaaaaaaaaaaaaaaaaaaaaaaaaa",
"aaaaaaaaaaaaaaaaaaaaaaaaaXoXoXoXoXo@ooaaaaaaaaaaaaaaaaaaaaaaaaaa",
"aaaaaaaaaaaaaaaaaaaaaaaaaaaaXXXXXXoXXoaaaaaaaaaaaaaaaaaaaaaaaaaa",
"aaaaaaaaaaaaaaaaaaaaaaaaaaaaaaooooXXoaaaaaaaaaaaaaaaaaaaaaaaaaaa",
"aaaaaaaaaaaaaaaaaaaaaaaaaaaaaaaoXooaaaaaaaaaaaaaaaaaaaaaaaaaaaaa",
"aaaaaaaaaaaaaaaaaaaaaaaaaaaaaaaaaaaaaaaaaaaaaaaaaaaaaaaaaaaaaaaa",
"aaaaaaaaaaaaaaaaaaaaaaaaaaaaaaaaaaaaaaaaaaaaaaaaaaaaaaaaaaaaaaaa",
"aaaaaaaaaaaaaaaaaaaaaaaaaaaaaaaaaaaaaaaaaaaaaaaaaaaaaaaaaaaaaaaa",
"aaaaaaaaaaaaaaaaaaaaaaaaaaaaaaaaaaaaaaaaaaaaaaaaaaaaaaaaaaaaaaaa",
"aaaaaaaaaaaaaaaaaaaaaaaaaaaaaaaaaaaaaaaaaaaaaaaaaaaaaaaaaaaaaaaa",
"aaaaaaaaaaaaaaaaaaaaaaaaaaaaaaaaaaaaaaaaaaaaaaaaaaaaaaaaaaaaaaaa",
"aaaaaaaaaaaaaaaaaaaaaaaaaaaaaaaaaaaaaaaaaaaaaaaaaaaaaaaaaaaaaaaa",
"aaaaaaaaaaaaaaaaaaaaaaaaaaaaaaaaaaaaaaaaaaaaaaaaaaaaaaaaaaaaaaaa"
};
