/* XPM */
static char *result[] = {
/* columns rows colors chars-per-pixel */
"64 64 87 1 ",
"  c #452506",
". c #482708",
"X c #47280A",
"o c #4A2A0C",
"O c #4D2E10",
"+ c #4E3013",
"@ c #4F3318",
"# c #523315",
"$ c #54361A",
"% c #56391B",
"& c #583B1E",
"* c #533B23",
"= c #5B3E21",
"- c #553E2A",
"; c #5E4125",
": c #56422F",
"> c #5D432A",
", c #574330",
"< c #5B4634",
"1 c #5B4A3C",
"2 c #604327",
"3 c #62452A",
"4 c #65492E",
"5 c #674C31",
"6 c #694E33",
"7 c #6C5136",
"8 c #65513F",
"9 c #6E543A",
"0 c #70563D",
"q c #72583F",
"w c #5D4E43",
"e c #5D5047",
"r c #5E5148",
"t c #605042",
"y c #63554A",
"u c #66584F",
"i c #6E5C4C",
"p c #755C44",
"a c #785E46",
"s c #665950",
"d c #6A5D53",
"f c #7A6147",
"g c #7B634C",
"h c #7E6751",
"j c #7C6957",
"k c #746559",
"l c #75685D",
"z c #7E6C5C",
"x c #7B6D63",
"c c #7F7166",
"v c #826B54",
"b c #856E59",
"n c #877059",
"m c #89735D",
"M c #8C7661",
"N c #8E7A65",
"B c #84766A",
"V c #8B7B6E",
"C c #907B66",
"Z c #927E6A",
"A c #8D7F74",
"S c #95816D",
"D c #98836F",
"F c #958474",
"G c #998672",
"H c #9C8976",
"J c #928479",
"K c #978A7F",
"L c #9D8B7B",
"P c #A18E7D",
"I c #A2907E",
"U c #9B8D81",
"Y c #A59383",
"T c #A89787",
"R c #A89887",
"E c #A19488",
"W c #A79A8C",
"Q c #AC9C8B",
"! c #AC9D90",
"~ c #B0A08F",
"^ c #AEA092",
"/ c #B2A394",
"( c #B8A797",
") c #B5A798",
"_ c #B6A89A",
"` c #B8AA9C",
"' c None",
/* pixels */
"''''''''''''''''''''''''''''''''''''''''''''''''''''''''''''''''",
"''''''''''''''''''''''''&;+'''''''''''''''''''''''''''''''''''''",
"''''''''''''''''''''''o0I~fX''''''''''''''''''''''''''''''''''''",
"'''''''''''''''''''''Of~``I%''''''''''''o#''''''''''''''''''''''",
"''''''''''''''''''''ov/(__(9''''''''''';NF4'''''''''''''''''''''",
"'''''''''''''''''''Of/(`__`Mo''''''''o5Y``Vo''''''''''''''''''''",
"''''''''''''oo''''op~````__F*;;OOo''o0Q``_Q;''''''''''''''''''''",
"''''''''''''''oooo7b7fmDIQQktUBwib:@a~`_`_)a''''''''''''''''''''",
"''''''''''''''''.;I>.o#%;;;$-h81AJwd^`_____S+'''''''''''''''''''",
"'''''''''''oooo'%GR%ooO$%#o#p0=O&>=iGY~(___R;'''''''''''''''''''",
"'''''''''''''''on`I#Xoo#%%#v((Coo+$%=&;9D_`_q'''''''''''''''''''",
"'''''''''''''''9/`Q&oooo$%4QnGGooo#$&$o.f_Hv3ooooo''''''''''''''",
"''''''''''''''&P`_/9.oooO;HI=SY#ooO$%&$oS~ghm%''''''''''''''''''",
"'''''''''''''ob`__`H=..o4HR93aQ2..o#$&%4Q)(/Q5''''''''''''''''''",
"'''''''''''''4^`____ImvSQ_/RQm/vo.oo$$;D__R07%ooo'''''''''''''''",
"''''''''''''#S`_____````_(``___/f#..#4S(__~LIS+''oo'''''''''''''",
"''''''''''''0/__________________/HnvSQ___(_``Q2'''''''''''''''''",
"'''''''''''$L`__________________`_`_____)___`_p'''''''''''''''''",
"'''''''''''p)________________________________`Mo''''''''''''''''",
"''''''''''#H_____________`___________________`I$''''''''''''''''",
"''''''''''0)_____________YPQ_`______________)`^4''''''''''''''''",
"'''''''''#F`___________)v465vQ_________)___)))U<''''''''''''''''",
"'''''''''6/__________Ymf&H)YgL______________`Es,o'''''''''''''''",
"''''''''OM__________`Navq0YQQ________________Be1+'''''''''''''''",
"''''''''2Q__________(TQ`)624M`_______________xrw$'''''''''''''''",
"''''''''v(__________`n6bn4SR!________________Awr*'''''''''''''''",
"'''''''$L___________(/SgfG(`_________________!xr-o''''''''''''''",
"'''''''5/___________((`_``____________________/Uz$''''''''''''''",
"''''''.v`_____________________________)_______``W;''''''''''''''",
"''''''#H`_________)____________________________!B*''''''''''''''",
"''''''2Q_________________________)_____________Bw-''''''''''''''",
"''''''0)______________________________________Wdr,o'''''''''''''",
"'''''ov`)____________________________________`!sr1o'''''''''''''",
"'''''OZ`_______________________________)______)cew@'''''''''''''",
"'''''#L`________)______)______________________`!xu@'''''''''''''",
"'''''=T`__________________)_______________)__)__)!9'''''''''''''",
"''''';Q`_____________________________________))))`h'''''''''''''",
"'''''3/_____________________)________________`))_`no'''XOO''''''",
"'''''5!__________________________________________`No''o*1<+'''''",
"'''''5/____________________)________)____________`Vo''&err*'''''",
"'''''3/_____________________)__________)________``Zo'$ZUlr*'''''",
"''''';Q__________________________________________`ZOog_`^V$'''''",
"'''''&Y`____________)_____________)______________`Co$J__`ZO'''''",
"'''''#L`________)________________________________`no1sJ_/6''''''",
"'''''oM`__________)__________________)____________g-reyJNO''''''",
"''''''a_____________________________)`______)_____9jdeew$'''''''",
"''''''3^_________________)__________)`)__________Q5TEdw*X'''''''",
"''''''#H____)_______________________`)__________`G7/_U,O''''''''",
"'''''''g`________________________________________fg(`D$'''''''''",
"'''''''3Q______________________)_______________`Q=i_G=''''''''''",
"'''''''OV`(______________________)______________n*yj&'''''''''''",
"''''''''7/_______________)_____________________Q2-*o''''''''''''",
"''''''''+S`___________________________________)aoO''''''''''''''",
"'''''''''7^__________________________________`n#''''''''''''''''",
"'''''''''+m`________________________________`C$'''''''''''''''''",
"'''''''''';Y________________)______________)M$''''''''''''''''''",
"'''''''''''9/___________________________``Qg#'''''''''''''''''''",
"'''''''''''og)__``____``________________QC4o''''''''''''''''''''",
"''''''''''''0)_LY!_`````___```(`__//__Sp2O''''''''''''''''''''''",
"'''''''''''OS`I&%30hnZGLPPPPGSCnf93b_)9 ''''''''''''''''''''''''",
"'''''''''''+C~pX''''oo##$$$##ooo'''7)/7'''''''''''''''''''''''''",
"''''''''''''&3O''''''''''''''''''''&GG&'''''''''''''''''''''''''",
"''''''''''''''''''''''''''''''''''''$%''''''''''''''''''''''''''",
"''''''''''''''''''''''''''''''''''''''''''''''''''''''''''''''''"
};
