/* XPM */
static char *result[] = {
/* columns rows colors chars-per-pixel */
"64 64 87 1 ",
"  c #452506",
". c #482708",
"X c #47280A",
"o c #4A2A0C",
"O c #4D2E10",
"+ c #4E3013",
"@ c #4F3318",
"# c #523315",
"$ c #54361A",
"% c #56391B",
"& c #583B1E",
"* c #533B23",
"= c #5B3E21",
"- c #553E2A",
"; c #5E4125",
": c #56422F",
"> c #5D432A",
", c #574330",
"< c #5B4634",
"1 c #5B4A3C",
"2 c #604327",
"3 c #62452A",
"4 c #65492E",
"5 c #674C31",
"6 c #694E33",
"7 c #6C5136",
"8 c #65513F",
"9 c #6E543A",
"0 c #70563D",
"q c #72583F",
"w c #5D4E43",
"e c #5D5047",
"r c #5E5148",
"t c #605042",
"y c #63554A",
"u c #66584F",
"i c #6E5C4C",
"p c #755C44",
"a c #785E46",
"s c #665950",
"d c #6A5D53",
"f c #7A6147",
"g c #7B634C",
"h c #7E6751",
"j c #7C6957",
"k c #746559",
"l c #75685D",
"z c #7E6C5C",
"x c #7B6D63",
"c c #7F7166",
"v c #826B54",
"b c #856E59",
"n c #877059",
"m c #89735D",
"M c #8C7661",
"N c #8E7A65",
"B c #84766A",
"V c #8B7B6E",
"C c #907B66",
"Z c #927E6A",
"A c #8D7F74",
"S c #95816D",
"D c #98836F",
"F c #958474",
"G c #998672",
"H c #9C8976",
"J c #928479",
"K c #978A7F",
"L c #9D8B7B",
"P c #A18E7D",
"I c #A2907E",
"U c #9B8D81",
"Y c #A59383",
"T c #A89787",
"R c #A89887",
"E c #A19488",
"W c #A79A8C",
"Q c #AC9C8B",
"! c #AC9D90",
"~ c #B0A08F",
"^ c #AEA092",
"/ c #B2A394",
"( c #B8A797",
") c #B5A798",
"_ c #B6A89A",
"` c #B8AA9C",
"' c None",
/* pixels */
"''''''''''''''''''''''''''''''''''''''''''''''''''''''''''''''''",
"'''''''''''''''''''''''''''''''''''''O2&''''''''''''''''''''''''",
"''''''''''''''''''''''''''''''''''''Xf!I0o''''''''''''''''''''''",
"''''''''''''''''''''''#o''''''''''''&I``~fO'''''''''''''''''''''",
"'''''''''''''''''''''5FN;'''''''''''9/__(~vO''''''''''''''''''''",
"''''''''''''''''''''OZ``Y6o''''''''oM`__))~gO'''''''''''''''''''",
"'''''''''''''''''''';R__`Qqo''oO+>=*G``````^fX''''oo''''''''''''",
"''''''''''''''''''''a_``)`~a$-bi1BLekQQPGmg7v7oooo''''''''''''''",
"'''''''''''''''''''+S_____`^deJS1tv-%;;;&#o >I>o''''''''''''''''",
"''''''''''''''''''';R)__)~YGp*>&O=0q#o#&$ooo&RH%'oooo'''''''''''",
"'''''''''''''''''''p``_S7;&=%$OooC((vO&%+oo.$I`bo'''''''''''''''",
"''''''''''''''ooooo2vG)f.o%&$@oooGGmQ4$$Oooo&R`~9'''''''''''''''",
"''''''''''''''''''&mhf~So#&%$Oo.#YS;IH;#oooX7/__P&''''''''''''''",
"''''''''''''''''''4~))_Q4&&$#oo.2Qf27TH3o.X&H`__`bo'''''''''''''",
"'''''''''''''''ooo&70R``D;$$ooXXm/mRR/_QSvmR(___`!5'''''''''''''",
"'''''''''''''oo''oSIL~___S4#.o#f~)_`````((```(__``S#''''''''''''",
"'''''''''''''''''2Q``____`WShnH)_`______________)`)9''''''''''''",
"'''''''''''''''''p__`_)___`````_))_____________)__`H$'''''''''''",
"''''''''''''''''oM`_____)_______`))_)`)))__________/p'''''''''''",
"''''''''''''''''$I`_____________)``)````__________``H$''''''''''",
"''''''''''''''''4/______________`_`_QLY)____________)9''''''''''",
"''''''''''''''''<U______________)`Wh564v)``_________`F#'''''''''",
"'''''''''''''''o:uU`_________)___`LgY/H&fmY)_________/6'''''''''",
"'''''''''''''''O1eB______________))/QYqqvaN`)`)______`No''''''''",
"'''''''''''''''@eez_______________`M5;6/`~T))`_____)_`R;''''''''",
"'''''''''''''''*eeJ______)______)__^RF4nb6m())________`v''''''''",
"''''''''''''''o:rx^)____________`)__`)DfgS/(`_________`L#'''''''",
"''''''''''''''#zK^___________)__)`____````(()_________)/6'''''''",
"'''''''''''''';Q``_____________________________________`v.''''''",
"''''''''''''''*B^__)_______________)___________________`H#''''''",
"''''''''''''''-eB)_________)__________________________)`Q2''''''",
"'''''''''''''o,rs!`)___)_________________)_______)_____`/q''''''",
"'''''''''''''o1rs!___________________________)___________jo'''''",
"'''''''''''''+wrc)___________________________________)__`ZO'''''",
"'''''''''''''$yx!__________________)_______________)____`L$'''''",
"'''''''''''''9W____________)____________________________`T&'''''",
"'''''''''''''h`__)______________)____)__)___________)___`Q2'''''",
"''''''OOO'''ob`__)_______________________________________~4'''''",
"'''''+11*o''oN`_________________________________________)/4'''''",
"'''''*www*''oZ`______)__________________________________)/4'''''",
"'''''*rlLZ$'OZ`______)___________________________________/3'''''",
"'''''$V/`)gXOZ`_______________)______________________)__`R;'''''",
"'''''OV```J$oC`_________________________________________`T&'''''",
"''''''6/)Js1Ob`________________________`________)_______`H+'''''",
"''''''OMJywr-g``__)_____)________))`)`_)________`)______`No'''''",
"'''''''&trrdj9))________________)``)_)__________)`______)a''''''",
"'''''''o*wdET5R`________________`________________`_____`!3''''''",
"''''''''o,K_/7F`________________)________________)`)___`H#''''''",
"'''''''''$S``va_)__)`))___________`))`___)_____________`h'''''''",
"''''''''''&G/i=Q`___)``)_________`)``)_________________W2'''''''",
"'''''''''''&hy*m`_____)`_____)_____))_________)_______`N+'''''''",
"''''''''''''o*-2R`____`)______________________________/7''''''''",
"''''''''''''''Ooa/`__________________________________`S+''''''''",
"''''''''''''''''OM______)___________________________`!7'''''''''",
"'''''''''''''''''$C`___________________)____________`Mo'''''''''",
"''''''''''''''''''$M)`)____________________________`E=''''''''''",
"'''''''''''''''''''#gQ``___________________________/9'''''''''''",
"''''''''''''''''''''o4NQ_`_________`___________```/go'''''''''''",
"''''''''''''''''''''''O2pS`_)//````````_`````)!YL_/0''''''''''''",
"'''''''''''''''''''''''' 9/_b2qgbMSGLPPLLGZmhq3%&I`S+'''''''''''",
"'''''''''''''''''''''''''7/)7'''ooo##$$###oo''''Xp~Z+'''''''''''",
"'''''''''''''''''''''''''&GH&''''''''''''''''''''O2&''''''''''''",
"''''''''''''''''''''''''''$$''''''''''''''''''''''''''''''''''''",
"''''''''''''''''''''''''''''''''''''''''''''''''''''''''''''''''"
};
