/* XPM */
static char *b530539659be43c0ede1ddeb80daf44cpFxL5MlvSTmX3ybD[] = {
/* columns rows colors chars-per-pixel */
"64 64 130 2 ",
"   c None",
".  c #D68E00",
"X  c #D79101",
"o  c #D99505",
"O  c #DA9907",
"+  c #DD9C0A",
"@  c #E09E0C",
"#  c #DEA10D",
"$  c #E2A20F",
"%  c #E3A412",
"&  c #E4AB14",
"*  c #E8AB16",
"=  c #E7A51B",
"-  c #EAAF19",
";  c #E5B117",
":  c #E6B319",
">  c #ECB31B",
",  c #EBBA1E",
"<  c #F0B71F",
"1  c #ECAC24",
"2  c #EEAE28",
"3  c #EEB027",
"4  c #ECBD21",
"5  c #EFB229",
"6  c #F0B720",
"7  c #F3BC23",
"8  c #F3B42F",
"9  c #F2B92E",
"0  c #F7B935",
"q  c #FABF3C",
"w  c #EEC425",
"e  c #EFC827",
"r  c #EFC928",
"t  c #F4C226",
"y  c #F6C428",
"u  c #F9C52A",
"i  c #F1CB2A",
"p  c #FCCA2E",
"a  c #F4D22E",
"s  c #F6C732",
"d  c #F8C237",
"f  c #FECC30",
"g  c #FECD30",
"h  c #FFCD31",
"j  c #FFCE31",
"k  c #FFCF31",
"l  c #FFCF32",
"z  c #FFCE31",
"x  c #FDC13F",
"c  c #FCC23E",
"v  c #FBCD3B",
"b  c #F5D530",
"n  c #F5D631",
"m  c #F6D731",
"M  c #F6D732",
"N  c #F6D631",
"B  c #FDD132",
"V  c #FFD334",
"C  c #F6D832",
"Z  c #F7D832",
"A  c #F7D933",
"S  c #F7DA34",
"D  c #F7DB34",
"F  c #F7D833",
"G  c #F8DB34",
"H  c #F8DB35",
"J  c #F9DB37",
"K  c #F8DD36",
"L  c #F9DD36",
"P  c #F9DF37",
"I  c #FDDA36",
"U  c #FFDD39",
"Y  c #F9E037",
"T  c #F9E037",
"R  c #FAE038",
"E  c #FAE138",
"W  c #FAE139",
"Q  c #FBE239",
"!  c #FBE33A",
"~  c #FBE33B",
"^  c #FCE43B",
"/  c #FCE53B",
"(  c #FCE63C",
")  c #FDE73D",
"_  c #FDE63E",
"`  c #FEE73E",
"'  c #FDE33B",
"]  c #FDE83D",
"[  c #FDE93E",
"{  c #FEE93E",
"}  c #FEEA3F",
"|  c #FEEB3F",
" . c #FEE93E",
".. c #FEC441",
"X. c #FFC443",
"o. c #FFC543",
"O. c #FFC743",
"+. c #FFC943",
"@. c #FFCB43",
"#. c #FFCD43",
"$. c #FFCC44",
"%. c #FFCD44",
"&. c #FFD142",
"*. c #FFD043",
"=. c #FFD143",
"-. c #FFD342",
";. c #FFD243",
":. c #FED440",
">. c #FFD742",
",. c #FFDA41",
"<. c #FFD942",
"1. c #FFDE42",
"2. c #FFE041",
"3. c #FFE341",
"4. c #FFE142",
"5. c #FFE541",
"6. c #FFE640",
"7. c #FFE840",
"8. c #FFE940",
"9. c #FFE841",
"0. c #FFE941",
"q. c #FFEB40",
"w. c #FFEA41",
"e. c #FFEB41",
"r. c #FFEC40",
"t. c #FFED40",
"y. c #FFEC41",
"u. c #FFED41",
"i. c #FFEE41",
"p. c #FFEC40",
/* pixels */
"                                                                                                                                ",
"                                                                                                                                ",
"                                                                                                                                ",
"                                                                                                                                ",
"                                                                                                                                ",
"                                                                                                                                ",
"                                                                                                                                ",
"                                                                                                                                ",
"                                                                                                                                ",
"                                                          r.r.r.r.r.r.r.                                                        ",
"                                                  r.r.r.r.r.| r.r.r.r.r.r.r.r.r.[ W b w                                         ",
"                                              r.r.r.r.r.r.r.| 5.<.>.2.r.r.r.r.r.r.w.w.W m e , &                                 ",
"                                            a | r.r.r.r.| r.5.@.X.x x #.w.w.r.r.r.r.r.r.r.r.( m w ; &                           ",
"                                            & [ r.r.r.r.w.w.*.0 = + + % i w.r.r.r.r.| | r.w.w.r.r./ a , & &                     ",
"                                          O i | r.r.r.r.r.w.9 o . . . . & w.r.r.r.r.r.1.>.#.$.*.4.r.r.r.W e ; $                 ",
"                                      O & a r.r.r.r.r.r.w._ % . . . . o i r.r.r.r.r.<.@.X.q 8 2 5 P r.r.| r.( i & #             ",
"                                r.W a a ~ w.w.w.r.r.r.r.r.[ : X . . o w r.r.r.r.r.5.+.X.2 O X . X r r.w.r.r.r.r._ 4 + +         ",
"                              r.r.r.w.1.*.$.$.*.1.w.r.r.r.r.W : # ; r r.r.r.r.r.r.5.X.3 X . . X : ( r.r.r.r.r.r.r.r.m O o &     ",
"                            r.r.r.r.<.X.0 2 1 1 2 s [ r.r.r.r.| [ [ i.r.r.r.r.r.r.w.v + . . O , ( r.r.r.r.r.r.r.[ T r O . O     ",
"                          r.r.r.r.w.d % o . . . . o a r.r.r.r.r.r.r.r.r.r.r.r.r.r.r.( r 4 e D r.i.r.[ _ L i e : & # # % % $     ",
"                      r.r.r.r.r.r._ % . . . . . . O L r.r.r.r.| r.r.W a m H [ r.r.r.r.r.Y , : Z Z r 4 > * * > 7 y u p h h 6     ",
"                  r.r.r.r.r.r.r.r.p.: . . . . . o r r.r.r.r.r.| r._ # X o + 4 L Z a i i > X o y u t u p h B h B h h B h h t     ",
"                  r.r.r.r.r.r.r.r.r.W & O o O & m r.r.r.i.i.| [ [ D # X . - , 7 t y g h p * * p B B h B h p p p B h B h h p     ",
"                r.r.r.r.r.r.r.| r.r.r.[ L S W w.[ ( Y m a i r t t t t + . + p h B h B h B h u p h h h t * @ + $ < p h h h p     ",
"        r.r.r.r.r.r.r.r.[ | r.r.r.| _ T Z i e 4 , , < 7 t u p p g B B y > 7 h h h h B h B p B h h l t O . . . . X * h h h B     ",
"      r.r.r.r.r.i.i.r.r $ ; r e 4 : ; ; > < 7 u p p h h h B h h h h h B h B h h h B h h h B h h h l * . . . . . . O p B h h     ",
"    r.r.| [ Q L a e , + O > 7 7 7 u p h h B h B p B h B h h h h B h B h p B h B h h h h h h h B h B * . . . . . . % B h h h     ",
"    U i t 4 < 7 7 7 7 t p h h B h B h h h B h h B h h h h B h B h h h h B h h h h h h p B h B p h B y O . . . . O i B h B h     ",
"    h p p h p B B B B h h B B h B h h h h B B h h h h B h h h h h h h B h h h h h h B h B h h h h B V b ; $ # ; m U h h h B     ",
"    h B h B B h h h h h h h h p y > * * > y h h h B h h B h B p h B h p h B p B u 7 , < 7 u h h h h h I [ ( ( [ U p B h h h     ",
"    B h h h h h h p B B h p p * o . . . . o * p h p B B p B h B B p h B h h u * O . . . . o * u B h h h I U Q I B h h B h h     ",
"    h h B h B h h B h h B p $ X . . . . . . O h h B h h B h h h h B h h B u @ . . . X . . . . $ p h B h h h h h h h h h B h     ",
"      > 7 h h B h B h B h > . . . . . . . . # U h B h B h h h B h B h h B > . . . X . X . . . X > B h h h B h B h h h B h B     ",
"      . o 7 B h h h h h h & . . . X . X . . , ' h h h h h B h p h h B h p % . . . . . . . X . . > B h h h h h h B h h B h h     ",
"        X < h h h B h h V S # . . . . . . & W U B p h h B p h B h h h B h $ . . . X . . . . . o i h B h h B h h h h h p h h     ",
"        O u B B h h h h I r.W : + o o # 4 ( w.V h B B h h B h h B h B p h 7 X . . . X . . X . ; I B h h h h B B B h h B B h     ",
"      @ 7 h h p h B h h V r.r.r.( D D [ r.r.Q h h h h B h B h B B h B h h V 4 o . . . . . X ; U V h h B p h y 7 u h h h h B     ",
"      p B p h B B p h B B ( r.r.| r.r.r.r.Q V h B h B p h h h h h h h h B B ( a ; # O + & r [ U h h h h u % o X O * p h h h     ",
"    h h h B h h B h h h h I [ | | w.r.[ U B h B p B h h h B h h h h B h B h V r.r./ Y ( [ r.Q h B h B p $ X X . . . * p h h     ",
"    h h h h B B p h h B B h V U U U I V B h h h B h h B u t 7 y p B h h h h h U [ r.r.r.w.U B h h h h t X X . . . . # p B h     ",
"    h h h B h h h h h h h h B p B h B h h h h B h B u * o X X o * u h h h h h h V U Q U V B h h B h B B + . . X . X w I h h     ",
"    B h B p h B h h B B B h h h h h p B B h B p h u @ . . . . . . > B h B h B h B p h h h h h B h h h Q n & O o + e ( I h h     ",
"    h h B h h h h h 7 7 7 u h h B h B h B h h h h % . . . . . . X t B h B h h h h B h B p B h B h h B I r.[ L L ( w.U B h B     ",
"    B h p h h B p * o . X + 7 h h h h h p h h B u o . . X . X . & Q B h p B h B h h h h B h h h h B h B U [ r.r.( I h h h h     ",
"    h h B B h B t X . . . . O y h B B p B B h h I w o . . . X & L Q h B h h h h h B h h B p h h h h h h h B V V B h B h h h     ",
"    u h h h h h y X . . . . X 7 B h h B h h B h U r.m , & ; r ( [ I h h B h h h B p h B h B B h h B p B B h B h h h h h B       ",
"      y p B h B p t # O O % i I h h h h h B h h V r.r.r.r.r.r.r.Q B h B h p u < > u h h B h B h B h B h h h B                   ",
"      > B h h h h I / Y Y [ | V B h h B h p B h h I [ r.r.r.[ U h h h h B t @ . . < h h h h p B                                 ",
"      $ p p B h B h B U ( / I h h h p p p h h h h B B V I V V h h h h h p *                                                     ",
"      $ p B h h h h B h B h h h h p * + @ > p h h h h B h h h B B h B                                                           ",
"    * < h h h h B h h h h h B h h ,       . $ t h B h h                                                                         ",
"    h h h h B h p B B h h B h h p                                                                                               ",
"    B h h h h B h B h h B h                                                                                                     ",
"    h h h B h                                                                                                                   ",
"                                                                                                                                ",
"                                                                                                                                ",
"                                                                                                                                ",
"                                                                                                                                ",
"                                                                                                                                ",
"                                                                                                                                ",
"                                                                                                                                ",
"                                                                                                                                ",
"                                                                                                                                ",
"                                                                                                                                "
};
