/* XPM */
static char *_10e89964eea477f8caad9ae14e22e05qJ0dGSWHYQTW7JuY[] = {
/* columns rows colors chars-per-pixel */
"64 64 202 2 ",
"   c None",
".  c black",
"X  c #000101",
"o  c #010101",
"O  c #000202",
"+  c #010202",
"@  c #010302",
"#  c #010303",
"$  c #020202",
"%  c #020303",
"&  c gray1",
"*  c #020403",
"=  c #030403",
"-  c #020404",
";  c #030404",
":  c #020504",
">  c #030504",
",  c #030505",
"<  c #030605",
"1  c #030706",
"2  c #040404",
"3  c #040605",
"4  c #040606",
"5  c #040706",
"6  c #060606",
"7  c #070707",
"8  c #040806",
"9  c #040807",
"0  c #050807",
"q  c #040907",
"w  c #050908",
"e  c #060808",
"r  c #060908",
"t  c #050A09",
"y  c #060A09",
"u  c #060B09",
"i  c #060B0A",
"p  c #070B0A",
"a  c #070C0B",
"s  c #070D0B",
"d  c #070D0C",
"f  c #090909",
"g  c gray4",
"h  c #0B0A0A",
"j  c #0B0B0B",
"k  c #080D0C",
"l  c #080E0C",
"z  c #090E0D",
"x  c #080F0D",
"c  c #0C0C0C",
"v  c #0C0D0D",
"b  c #08100E",
"n  c #0A110F",
"m  c #0A120F",
"M  c #0A1210",
"N  c #101010",
"B  c #111111",
"V  c gray7",
"C  c #121313",
"Z  c #131313",
"A  c #121413",
"S  c #131413",
"D  c #131414",
"F  c gray8",
"G  c #141515",
"H  c #151515",
"J  c #161616",
"K  c #171A19",
"L  c #1B2E28",
"P  c #1C2F2A",
"I  c #202020",
"U  c #232323",
"Y  c #252525",
"T  c #272727",
"R  c gray16",
"E  c gray17",
"W  c #2C2C2C",
"Q  c #2D2D2D",
"!  c gray18",
"~  c #273430",
"^  c #273531",
"/  c #313131",
"(  c #323232",
")  c gray20",
"_  c #343434",
"`  c #353535",
"'  c gray21",
"]  c gray22",
"[  c #393838",
"{  c #393939",
"}  c #3A3A3A",
"|  c gray23",
" . c #3C3C3C",
".. c gray24",
"X. c #3E3E3E",
"o. c #3F3F3F",
"O. c #2E4B42",
"+. c #374F48",
"@. c #3D6257",
"#. c #3D6358",
"$. c gray25",
"%. c #414141",
"&. c gray26",
"*. c #434343",
"=. c gray27",
"-. c #464646",
";. c gray28",
":. c #484848",
">. c #494949",
",. c gray29",
"<. c #4B4B4B",
"1. c #4C4C4C",
"2. c gray30",
"3. c #4E4E4E",
"4. c gray31",
"5. c #505050",
"6. c #515151",
"7. c gray32",
"8. c #535353",
"9. c gray33",
"0. c #555555",
"q. c #585858",
"w. c #5A5A5A",
"e. c #5B5B5B",
"r. c #5D5D5D",
"t. c gray37",
"y. c #5F5E5F",
"u. c #5F5F5F",
"i. c #446259",
"p. c #44625A",
"a. c #497165",
"s. c #4F7167",
"d. c #4F756A",
"f. c #4A796C",
"g. c #4D796D",
"h. c #4E7B6F",
"j. c #52776D",
"k. c #53786E",
"l. c #4E7C70",
"z. c #606060",
"x. c #626262",
"c. c gray39",
"v. c #656565",
"b. c DimGray",
"n. c #6A6A6A",
"m. c gray42",
"M. c gray43",
"N. c #727272",
"B. c gray45",
"V. c gray46",
"C. c gray47",
"Z. c #797979",
"A. c gray48",
"S. c #7B7B7B",
"D. c #7C7C7C",
"F. c gray49",
"G. c gray50",
"H. c gray51",
"J. c #838383",
"K. c #848484",
"L. c #8B8B8B",
"P. c gray55",
"I. c gray56",
"U. c gray57",
"Y. c #939393",
"T. c gray58",
"R. c #979797",
"E. c #989898",
"W. c #9A9A9A",
"Q. c #9B9B9B",
"!. c gray61",
"~. c #9D9D9D",
"^. c gray62",
"/. c #9F9F9F",
"(. c #A0A0A0",
"). c gray63",
"_. c #A4A4A4",
"`. c #A5A5A5",
"'. c gray65",
"]. c #A7A7A7",
"[. c gray66",
"{. c #A9A9A9",
"}. c gray67",
"|. c #ACACAC",
" X c #AEAEAE",
".X c #AFAFAF",
"XX c #B1B1B1",
"oX c #B2B2B2",
"OX c #B4B4B4",
"+X c #B7B7B7",
"@X c gray72",
"#X c #BBBBBB",
"$X c #BCBCBC",
"%X c gray74",
"&X c gray",
"*X c gray76",
"=X c #C5C5C5",
"-X c #CECECE",
";X c gray86",
":X c gainsboro",
">X c gray88",
",X c #E4E4E4",
/* pixels */
"  U ..1.:.1.:.:.1.:.:.:.1.:.1.:.:.:.1.:.:.1.:.:.1.:.:.1.:.:.1.:.:.1.:.:.1.:.:.1.:.:.1.:.:.1.:.:.1.:.:.1.:.:.1.:.:.1.:.1.1...U   ",
"  M.#X,X:X;X:X:X:X:X;X;X:X;X:X:X;X;X:X;X:X:X;X;X:X:X:X:X;X;X:X:X:X:X;X;X:X:X:X:X;X;X:X;X:X:X;X;X:X:X:X:X;X;X:X:X:X:X;X;X>X.Xt.  ",
"| ).*X+XoX.X.X.XoXoX.X.X.X.X.X.X.X.X.XoX.X.X.X.X.X.X.X.X.X.X.X.X.X.X.X.X.X.X.X.X.X.X.XoX.X.X.X.X.X.X.X.X.X.X.X.X.X.X.X+XoX'.G./ ",
"R 1.w.7.1.1.1.1.:.1.1.1.1.1.1.1.1.1.1.:.1.1.1.1.1.1.1.1.1.1.1.1.1.1.1.1.1.1.1.1.1.1.1.:.1.1.1.1.1.1.1.1.1.1.1.1.1.1.1.1.1.7.*.U ",
"  ` V.V.` g g g g g g g g g g g g g g g g g g g g g g g g 2 g g g g g g g g g g g g g g g g g g g g g g g 2 g g g g g *.S.b.Q   ",
"  :.^.^...2 . . . . . . . . . . . . . . . . . . . . . . . . . . . . . . . . . . . . . . . . . . . . . . . . . . . . . 0.{.I.`   ",
"  :.^.^...2 . . . . . . . . . . . . . . . . . . . . . . . . . . . . . . . . . . . . . . . . . . . . . . . . . . . . . 0.'.I.`   ",
"  :.^.^...2 . . . . . . . . . . . . . . . . . . . . . . . . . . . . . . . . . . . . . . . . . . . . . . . . . . . . . 0.'.I.`   ",
"  -.^.^...2 . . . . . . . . . . . . . . . . . . . . . . . . . . . . . . . . . . . . . . . . . . . . . . . . . . . . 2 0.'.L.`   ",
"  -.^.^...2 . . . . . . . . . . . . . . . . . . . . . . . . . . . . . . . . . . . . . . . . . . . . . . . . . . . . 2 0.'.I.`   ",
"  :.^.^...2 . . . . . . . . . . . . . . . . . . . . . . . . . . . . . . . . . . . . . . . . . . . . . . . . . . . . . 0.'.L.`   ",
"  :.).)...2 . . . . . . . . . . . . . . . . . . . . . . . . . . . . . . . . . . . . . . . . . . . . . . . . . . . . 2 0.'.L.`   ",
"  :..XoX:.. . . . . . . . . . . . . . . . . . . . . . . . . . . . . . . . . . . . . . . . . . . . . . . . . . . . . . 1.U.G./   ",
"  -.{.$Xb.V . . . . . . . . . . . . . . . . . . . . . . . . . . . . . . . . . . . . . . . . . . . . . . . . . . . . J 7.V.c.Q   ",
"    w.^.{...2 . . . . . . . . . . . . . . . . . . . . . . . . . . . . . . . . . . . . . . . . . . . . . . . . . . g :.).S.|     ",
"    7.U.'...2 . . . . . . . . . . . . . . . . . . . . . . . . . . . . . . . . . . . . . . . . . . . . . . . . . . g 7..XK.|     ",
"    7.U.'.| 2 . . . . . . . . . . . . . . . . . . . . . . . . . . . . . . . . . . . . . . . . . . . . . . . . . . 2 7..XH.|     ",
"    7.T.'.| 2 . . . . . . . . . . . . . . . . . . . . . . . . . . . . . . . . . . . . . . . . . . . . . . . . . . g 7..XH.|     ",
"    7.T.'...g . . . . . . . . . . . . . . . . . . . . . . . . . . . . . . . . . . . . . . . . . . . . . . . . . . g 7..XH.|     ",
"    7.U.)...2 . . . . . . . . . . . . . . . . . . . . . . . . . . . . . . . . . . . . . . . . . . . . . . . . . . 2 7..XH.|     ",
"    7.T.'...2 . . . . . . . . . . . . . . . . . . . . . . . . . . . . . . . . . . . . . . . . . . . . . . . . . . 2 7..XH.|     ",
"    7.T.)...2 . . . . . . . . . . . . . . . . . . . . . . . . . . . . . . . . . . . . . . . . . . . . . . . . . . 2 7..XK.|     ",
"    7.U.'...g . . . . . . . . . . . . . . . . . . . . . . . . . . . . . . . . . . . . . . . . . . . . . . . . . . g 7..XH.|     ",
"    7.T.)...2 . . . . . . . . . . . . . . . . . . . . . . . . . . . . . . . . . . . . . . . . . . . . . . . . . . 2 7..XH.|     ",
"    7.U.'...2 . . . . . . . . . . . . . . . . . . . . . . . . . . . . . . . . . . . . . . . . . . . . . . . . . . g 7..XH.|     ",
"    7.T.)...2 . . . . . . . . . . . . . . . . . . . . . . . . . . . . . . . . . . . . . . . . . . . . . . . . . . 2 7..XH.|     ",
"    7.T.)...2 . . . . . . . . . . . . . . . . . . . . . . . . . . . . . . . . . . . . . . . . . . . . . . . . . . 2 7..XH.|     ",
"    7.U.'.| g . . . . . . . . . . . . . . . . . . . . . . . . . . . . . . . . . . . . . . . . . . . . . . . . . . g 7..XH.|     ",
"    7.T.'.| 2 . . . . . . . . . . . . . . . . . . . . . . . . . . . . . . . . . . . . . . . . . . . . . . . . . . g 7..XH.|     ",
"    7.U.)...g . . . . . . . . . . . . . . . . . . . . . . . . . . . . . . . . . . . . . . . . . . . . . . . . . . 2 7..XK.|     ",
"    7.T.'...2 . . . . . . . . . . . . . . . . . . . . . . . . . . . . . . . . . . . . . . . . . . . . . . . . . . 2 7..XH.|     ",
"    0.).#X-.2 . . . . . . . . . . . . . . . . . . . . . . . . . . . . . . . . . . . . . . . . . . . . . . . . . . g :.T.V.`     ",
"    1.).=Xv.V . . . . . . . . . . . . . . . . . . . . . . . . . . . . . . . . . . . . . . . . . . . . . . . . . . J 7.S.t./     ",
"      t.Q.|. .g . . . . . . . . . . . . . . . . . . . . . . . . . . . . . . . . . . . . . . . . . . . . . . . . g -.'.V.|       ",
"      8.U.'.| g . . . . . . . . . . . . . . . . . . . . . . . . . . . . . . . . . . . . . . . . . . . . . . . . g 1.+XS.|       ",
"      8.U.].| 7 . . . . . . . . . . . . . . . . . . . . . . . . . . . . . . . . . . . . . . . . . . . . . . . . c 1.+XG.|       ",
"      0.U.].| g . . . . . . . . . . . . . . . . . . . . . . . . . . . . . . . . . . . . . . . . . . . . . . . . g 1.+XG.|       ",
"      8.U.].| g . . . . . . . . . . . . . . . . . . . . . . . . . . . . . . . . . . . . . . . . . . . . . . . . c :.+XS.|       ",
"      8.U.]. .g . . . . . . . . . . . . . . . . . . . . . . . . . . . . . . . . . . . . . . . . . . . . . . . . g 1.+XG.|       ",
"      8.U.].| j . . . . . . . . . . . . . . . . . . . . . . . . . . . . . . . . . . . . . . . . . . . . . . . . c 1.+XG.|       ",
"      8.U.].| g . . . . . . . . . . . . . . . . . . . . . . . . . . . . . . . . . . . . . . . . . . . . . . . . g 1.+XG.|       ",
"      8.U.].| g . . . . . . . . . . . . . . . . . . . . . . . . . . . . . . . . . . . . . . . . . . . . . . . . c 1.+XS.|       ",
"      8.U.].| g . . . . . . . . . . . . . . . . . . . . . . . . . . . . . . . . . . . . . . . . . . . . . . . . g 1.+XG.|       ",
"      8.U.'.| e . . . . . . . . . . . . . . . . . . . . . . . . . . . . . . . . . . . . . . . . . . . . . . . . c 1.+XG.|       ",
"      8.U.].| g . . . . . . . . . . . . . . . . . . . . . . . . . . . . . . . . . . . . . . . . . . . . . . . . g 1.+XG.|       ",
"      8.U.].| g . . . . . . . . . . . . . . . . . . . . . . . . . . . . . . . . . . . . . . . . . . . . . . . . c :.+XS.|       ",
"      8.U.].| 7 . . . . . . . . . . . . . . . . . . . . . . . . . . . . . . . . . . . . . . . . . . . . . . . . g 1.+XG.|       ",
"      8.U.'.| g . . . . . . . . . . . . . . . . . . . . . . . . . . . . . . . . . . . . . . . . . . . . . . . . c 1.+XG.|       ",
"      8.U.'.| g . . . . . . . . . . . . . . . . . . . . . . . . . . . . . . . . . . . . . . . . . . . . . . . . c 1.+XS.|       ",
"      0.Q.+X*.g . . . . . . . . . . . . . . . . . . . . . . . . . . . . . . . . . . . . . . . . . . . . . . . . c -.'.B.`       ",
"      7.).-Xq.V . . . . . . . . . . . . . . . . . . . . . . . . . . . . . . . . . . . . . . . . . . . . . . . . V -.K.t.`       ",
"        w.'.'...g . . . . . . . . . . . . . . . . . . . . . . . . . . . . . . . . . . . . . . . . . . . . . . c *.).B.|         ",
"        :.Q.'...c . . . . . . . . . . . . . . . . . . . . . . . . . . . . . . . . . . . . . . . . . . . . . . c 1.$XS.`         ",
"        ;.T.'...g . . . . . . . . . . . . . . . . . . . . . . . . . . . . . . . . . . . . . . . . . . . . . . c 1.$XS.`         ",
"        ;.R.'...g . . . . . . . . . . . . . . . . . . . . . . . . . . . . . . . . . . . . . . . . . . . . . . c 1.$XS.`         ",
"        ;.R._...g . . . . . . . . . . . . . . . . . . . ; . . . . & . . . . . . . . . . . . . . . . . . . . . c 1.$XS.`         ",
"        -.Q.'.o.g . . . < ; . 2 ; . < . . . . . . . . . . < < < 2 2 * * . . . . . . . . . < * < . < ; . . . . c 1.$XS.`         ",
"        -.T._...g . . . ; < 9 e e e 2 < < . ; . . . < < q e e e s e 9 < < . . . . . . ; < 2 9 e e e 2 < < . . c 1.*XS.|         ",
"        ;.R._...g . < ; < e e e e e e 2 < ; . . . < < 1 e d x x x s e 9 < < < . . ; . < 2 e e e e e e < ; ; . c 1.$XS.`         ",
"        -.U.^.| g . ; < e g x b x x a e < ; . . . ; q e d b M M M M b s e 2 . . . . < 1 e d d x x b d 2 < ; . c :.+XV./         ",
"        | S.L.| j . < < x O.a.g.g.a.O.x < < < . ; < q 1 P #.l.f.f.g.#.L < < ; . . * > 2 x O.a.g.g.a.O.x < < . c *.^.b./         ",
"        R ..:.R J V C D K +.s.j.j.s.+.K C C C C C D D D ~ p.k.d.d.k.i.~ D D C V V V F S K +.s.j.k.s.+.K D V V J R 1...Y         ",
"        W 7.c.c.z.y.c.t.t.c.t.z.u.u.u.u.u.u.u.u.u.u.u.u.u.u.u.u.u.u.z.u.u.z.u.u.z.z.y.z.t.y.c.t.t.c.y.y.c.t.t.c.c.c.7.Q         ",
"        U Q / ) / / / / / / / / / ) / ) / ) / ) / ) / ) ) / ) / ) / ) / / ) / / ) / / ) / / / / / ) / / / / / / / / R U         "
};
