/* XPM */
static char *b3aa793251f245f0d49f1d4cf5729e00TLjMkERLwMsEAxyF[] = {
/* columns rows colors chars-per-pixel */
"64 64 179 2 ",
"   c None",
".  c #070C0A",
"X  c #090E0C",
"o  c #0B100E",
"O  c #07110E",
"+  c #0C1512",
"@  c #0C1915",
"#  c #0E1D19",
"$  c #111614",
"%  c #131817",
"&  c #141B19",
"*  c #191D1C",
"=  c #0F211C",
"-  c #11231E",
";  c #122621",
":  c #142B24",
">  c #1A2C28",
",  c #173029",
"<  c #1A342D",
"1  c #1A382F",
"2  c #1B3C33",
"3  c #1F3630",
"4  c #242424",
"5  c #2C2C2C",
"6  c #22312D",
"7  c #243731",
"8  c #213B34",
"9  c #333333",
"0  c #3C3C3C",
"q  c #1E4137",
"w  c #1F4239",
"e  c #22453B",
"r  c #27453D",
"t  c #3F403F",
"y  c #264E43",
"u  c #2C4E44",
"i  c #3A4341",
"p  c #2B564A",
"a  c #2D5B4D",
"s  c #275145",
"d  c #37544C",
"f  c #2D5F50",
"g  c #325E51",
"h  c #3B5B51",
"j  c #2D6152",
"k  c #2F6858",
"l  c #316455",
"z  c #336758",
"x  c #346A5A",
"c  c #3B6B5D",
"v  c #34705F",
"b  c #386F60",
"n  c #337563",
"m  c #3A7564",
"M  c #367966",
"N  c #397967",
"B  c #397D6A",
"V  c #367D68",
"C  c #454545",
"Z  c #4B4C4B",
"A  c #474848",
"S  c #4F504F",
"D  c #4F5150",
"F  c #535353",
"G  c #5F5E5E",
"H  c #565857",
"J  c #426A5F",
"K  c #406459",
"L  c #486E63",
"P  c #4B7267",
"I  c #4C766B",
"U  c #437768",
"Y  c #626262",
"T  c #6B6B6B",
"R  c #747474",
"E  c #7C7C7C",
"W  c #3D826E",
"Q  c #37806C",
"!  c #3E8571",
"~  c #3C8B75",
"^  c #3F8F78",
"/  c #3F927B",
"(  c #408672",
")  c #418A76",
"_  c #418E79",
"`  c #488674",
"'  c #528879",
"]  c #42917B",
"[  c #49927D",
"{  c #568F80",
"}  c #459981",
"|  c #4A9D86",
" . c #499982",
".. c #559885",
"X. c #549F8A",
"o. c #599D8A",
"O. c #619E8C",
"+. c #4BA289",
"@. c #4EA98F",
"#. c #54A48D",
"$. c #5AA28E",
"%. c #4FAE94",
"&. c #57AE95",
"*. c #5AAD95",
"=. c #5EAF98",
"-. c #5FA592",
";. c #4EB295",
":. c #50B196",
">. c #59B097",
",. c #53B69A",
"<. c #5BB39A",
"1. c #54BC9E",
"2. c #5CB99F",
"3. c #64A693",
"4. c #64AA96",
"5. c #68A997",
"6. c #64B59E",
"7. c #5FBBA0",
"8. c #63BCA3",
"9. c #33E6B3",
"0. c #3DE7B7",
"q. c #3EE8B8",
"w. c #66C0A6",
"e. c #64C5AA",
"r. c #6BC7AD",
"t. c #6DC9AF",
"y. c #72C6AE",
"u. c #6ACEB2",
"i. c #71CFB5",
"p. c #64D7B6",
"a. c #69D3B5",
"s. c #65D8B7",
"d. c #6CD7B9",
"f. c #64DBBA",
"g. c #6BDABB",
"h. c #67D7B8",
"j. c #73D5B9",
"k. c #74D1B7",
"l. c #43E7B9",
"z. c #43E9BA",
"x. c #4CEABD",
"c. c #52EABF",
"v. c #69E1BF",
"b. c #78DEC2",
"n. c #53ECC0",
"m. c #5AEDC3",
"M. c #66E7C2",
"N. c #6AE4C1",
"B. c #62EAC4",
"V. c #6AE9C5",
"C. c #6CEDC8",
"Z. c #66EFC8",
"A. c #73E4C4",
"S. c #7BE3C6",
"D. c #71E9C7",
"F. c #7DE6C9",
"G. c #73EDCA",
"H. c #7AEBCB",
"J. c #6DF0CA",
"K. c #78F1CE",
"L. c #7CF2D1",
"P. c #838383",
"I. c #8C8C8C",
"U. c #939393",
"Y. c #9D9D9D",
"T. c #A5A5A5",
"R. c #AEAEAE",
"E. c #B6B6B6",
"W. c #BCBCBC",
"Q. c #80DEC3",
"!. c #83E6CA",
"~. c #81EDCE",
"^. c #86EFD1",
"/. c #82F1D2",
"(. c #88F4D6",
"). c #C7C7C7",
"_. c gray86",
"`. c gainsboro",
"'. c #E2E2E2",
/* pixels */
"  4 0 Z Z Z Z A Z A Z Z A Z A Z A Z Z A Z A Z Z A Z Z A Z Z Z Z A Z Z Z A Z A Z Z Z Z A Z Z Z Z Z A Z A Z A Z Z A Z Z Z Z 0 4   ",
"  T W.'._._._._._._._._._._._._._._._._._._._._._._._._.`.`._._._._._._._._._._.`.`._._._._.`.`._._._.`.`.`._._._._._._.'.R.G   ",
"0 Y.).E.E.R.R.R.R.R.R.R.R.R.R.R.E.R.R.R.R.R.R.R.R.R.R.R.R.R.R.R.R.R.R.R.R.R.R.R.R.R.R.R.R.R.R.R.R.R.R.R.R.R.R.R.R.R.R.E.E.T.E 9 ",
"4 F H F S Z Z Z Z Z D F F S S S D Z Z S S F S D S S Z S Z D D S S S S S S S Z S D D S S Z Z S Z D D D D D S S Z Z Z Z D S S C 4 ",
"  9 R R 9 $ + % & 8 P 5.3.3.3.J 8 < 7 K O.4.3.3.' 8 3 < h { 4.3.-.4.{ d < 3 8 ' 3.3.5.O.K 8 6 8 J 3.4.3.5.P 7 & $ $ o 0 E T 5   ",
"  Z Y.T.0 . O & : u $.(.G.H.^.o.a y a ..!.L.G.~.y.g s y ` k.L.Z.C.L.k.` y s g y.~.G.L.!...a s a o.^.G.D.(.$.u : % X . H T.I.9   ",
"  A Y.Y.0 X + - , a $.J.x.c.G.$.z a l #.A.n.x.V.y.c f a [ a.B.q.0.m.a.[ f f b y.Z.x.n.A.$.l a z $.G.c.x.G.*.p , - + . H T.I.9   ",
"  Z Y.Y.0 X + ; < g *.C.l.x.D.*.n x c #.N.n.z.B.u.N x k  .a.m.9.9.m.a. .k x m u.B.z.x.A.#.x z v *.D.x.l.J.*.g < - + X H T.I.0   ",
"  A Y.Y.t X @ : 2 l *.J.z.x.C.*.N b N *.N.x.z.M.u.! v v | h.m.9.9.m.g.| n n V u.m.l.x.N.*.m v N *.C.x.l.C.*.l 2 : @ O H T.I.9   ",
"  A Y.Y.t X @ : 2 l >.J.l.x.C.*.B n N &.N.x.z.B.u.Q M n +.h.m.9.9.m.h.+.n n ! u.B.l.x.A.*.V n B *.C.x.l.J.=.z 2 : @ . H T.I.9   ",
"  Z Y.Y.0 X @ : 2 l *.J.l.x.C.<.B M B &.N.x.z.B.u.! M n +.h.m.9.9.m.h.+.n n Q u.B.z.x.N.*.Q m B <.C.x.l.C.>.l 2 : @ . H T.I.0   ",
"  A T.Y.t X + : 2 l *.J.l.x.C.<.W M W &.N.n.z.B.u.Q M n | p.m.9.9.m.p.+.n M ! u.B.z.n.N.>.Q m W <.C.x.z.J.*.l 2 : + . H T.I.9   ",
"  Z R.R.A X + ; 2 l =.J.l.c.A.<.! N W &.N.x.l.B.u.! n n +.p.n.9.9.m.p.+.n n ! u.B.z.x.N.>.W N ( <.V.x.x.C.*.l 1 ; @ X Z U.E 9   ",
"  A T.W.T % + ; < g =.H.c.c.D.<.( B W <.N.n.z.B.u.Q M n +.p.m.9.9.m.p.+.n M Q u.M.z.c.V.<.W B ( <.D.c.n.L.=.g 1 ; + * F R Y 5   ",
"    G Y.R.0 + - < p ..b.C.m.G.r...W ( <.M.x.l.M.u.~ M n +.p.m.9.9.m.p.+.n n ~ u.B.z.x.N.<.! W | r.D.m.V.b...p < - @ S Y.E 0     ",
"    F U.T.i + # < e m <.D.c.Z.H.8.( ( 2.N.x.l.m.u.Q V V +.h.m.9.9.m.p.+.n V ! u.B.z.x.N.<.) W w.H.C.n.D.2.b e < # $ F R.P.0     ",
"    F U.T.0 + # , w x <.C.z.c.D.w.( ) <.N.x.z.B.u.! B M +.f.m.9.9.m.s.+.M B ( u.B.z.n.N.<.) ~ 8.D.n.l.C.<.x e , # + F R.P.0     ",
"    F U.T.0 + @ , q x >.C.z.x.V.6.( ) <.S.m.x.B.i.) B B +.f.m.9.9.m.s.+.V B ) a.B.x.m.F.<.) ! 8.V.x.z.C.>.k q : % o F R.P.0     ",
"    F U.T.0 + @ : q l *.C.z.x.V.w.! ! >.S.C.m.B.d. .! B @.p.n.9.9.m.p.@.W !  .k.B.m.C.b.=.! ! 8.V.x.z.C.>.l q : # + F R.P.0     ",
"    F U.T.t + + : 2 l &.C.l.x.V.7.! W ) 8.V.B.B.F.u./ B @.p.m.9.9.m.p.%.Q _ u.F.B.m.N.8.( ! ! 8.V.x.z.C.>.k 2 : @ o F R.P.0     ",
"    F U.T.0 + + : q k &.V.l.x.C.6.( W W 6.v.c.c.D.d. .! @.f.m.9.9.m.s.%.! ] d.V.n.n.N.<.B B ! 7.V.x.z.Z.*.l 2 : @ o F R.P.9     ",
"    D U.T.0 + @ : 2 k &.C.l.x.V.2.B V B >.v.c.l.B.a.} B %.f.m.9.9.m.s.%.~ ] a.M.l.n.N.<.B B B 8.N.x.z.Z.*.l 2 : @ o F R.P.0     ",
"    F U.T.t + + : 2 l &.C.z.x.M.2.Q M V <.v.c.z.B.u.} ~ %.f.m.9.9.m.s.%.~ } a.B.q.n.g.<.M B B 7.V.x.l.C.>.l 2 : @ o F R.P.0     ",
"    F U.T.0 + @ : 2 k &.C.z.x.V.6.V M V >.v.n.q.m.u.} ~ %.f.m.9.9.m.f.%.~ } a.B.q.n.g.<.M M M 7.V.x.z.C.&.l q : @ o F R.P.0     ",
"    F U.T.0 + @ : 2 k *.C.z.x.M.2.V M M >.v.n.q.m.a. .~ %.f.m.9.9.m.f.%.~ } a.m.q.n.N.>.M M M 7.V.x.l.C.&.k 2 : @ o F R.P.0     ",
"    F U.T.t + + : 2 l &.C.z.x.M.2.B M N >.N.n.0.B.a.} ~ %.f.m.9.9.m.f.%.~ } a.B.0.n.f.>.M M M 7.V.x.l.C.&.k 2 : @ o F R.P.0     ",
"    F U.T.0 + @ : 2 k *.C.z.x.V.6.V M M >.g.n.z.m.a.} ~ %.f.m.9.9.m.f.%.~ } a.m.0.n.N.>.M M B 7.V.x.z.Z.&.l 2 : @ o F R.P.0     ",
"    F U.T.0 o @ : 2 l >.C.l.x.V.2.V M M :.N.n.q.B.a.} ~ %.f.m.9.9.m.s.;.~ } u.B.0.n.N.>.M M B 7.N.x.z.V.&.k 2 : @ o F R.P.0     ",
"    F U.T.0 + + : 2 l &.C.l.x.N.2.B M V >.v.n.q.B.u.} ~ %.f.m.9.9.m.f.%.~ } a.m.z.n.N.>.N M N 2.V.x.z.C.&.l 2 : @ o F R.P.9     ",
"    F U.T.0 o @ : 1 l *.C.z.x.V.8.B M N >.g.n.q.m.a.} ~ %.f.m.9.9.m.f.%.~ } u.B.q.n.f.>.B N B 2.V.x.z.C.*.l < : + o F R.P.0     ",
"    F U.T.0 + + ; 2 j *.C.z.x.V.6.W V B <.N.x.z.B.a.} ~ %.f.n.9.9.m.f.%.~ } a.m.q.n.v.>.B B W 8.V.x.z.C.*.j 2 : + o F R.P.0     ",
"    F T.E.C X + = 1 f =.H.x.c.C.8.! Q W <.v.n.q.B.u.} ~ %.f.m.9.9.m.f.;.~  .u.B.q.n.v.<.W B W 8.C.c.c.H.=.j < = + o A Y.R 9     ",
"    Z T.).Y % + - < a X.F.C.m.D.r. .! ! >.N.n.l.m.p.} ~ %.f.m.9.9.m.f.%.~ } a.m.0.n.N.<.B !  .r.D.m.V.F...a < - + & S E G 9     ",
"      G Y.R.0 % # < e b 8.V.m.B.S.8.! ! ,.N.n.q.M.p.} ~ %.f.m.9.9.m.f.%.~ } a.B.0.n.N.=.! ! 8.F.C.n.V.8.b y < # % A R.R 0       ",
"      F U.T.0 $ @ < e z <.M.x.n.D.w.~ ( 7.N.n.0.m.u.} ~ %.f.m.9.9.m.f.%.! } a.m.0.n.N.>.~ ~ 8.D.n.n.V.=.z w , # % S E.E 0       ",
"      F U.T.0 $ @ , 8 l 2.N.z.x.M.e.) ~ 7.f.n.l.m.u.} ~ %.f.m.9.9.m.f.%.~  .u.B.0.n.N.7.^ ^ r.B.n.l.V.<.k q : @ % Z E.E 0       ",
"      F U.T.0 $ @ : 2 j <.M.l.x.V.e._ ^ 7.N.n.0.B.a.} ~ %.f.m.9.9.m.f.%.~ } h.m.0.n.N.,._ ^ e.M.l.l.V.<.j 2 : @ % S W.E 0       ",
"      F U.T.0 $ @ : 2 j >.C.z.x.M.e._ ^ ,.N.x.0.B.u.} ~ %.f.m.9.9.m.f.%.~ } a.B.0.n.N.7.^ _ e.M.n.l.M.<.l 2 : + $ Z E.E 0       ",
"      F U.T.0 $ @ : 2 j =.M.0.x.M.e._ ^ 7.N.n.l.m.a.} ~ %.f.m.9.9.m.f.%.! } a.m.0.n.N.7.^ _ e.B.l.z.V.=.j 2 : @ $ Z E.E 0       ",
"      F U.T.0 + @ : 2 j <.V.z.x.M.e._ ^ ,.N.n.l.B.a.} ~ %.f.m.9.9.m.f.%.~  .u.B.0.n.N.7.^ _ e.M.x.z.M.<.j 2 : @ % Z E.E 0       ",
"      F U.T.0 $ @ : 2 j :.B.z.x.B.e.^ ^ 7.v.x.0.B.a.] ~ ;.s.m.9.9.m.f.%.~ } h.B.n.n.f.7.^ _ e.B.x.z.V.>.j q : @ $ Z W.E 0       ",
"      F U.T.0 + @ : 2 j =.V.0.x.M.e.] ^ 7.N.n.l.B.a.} ^ %.f.m.9.9.m.f.%.~ } a.m.0.n.f.7.^ / e.B.x.z.N.<.j 2 : O % Z E.E 0       ",
"      F U.T.0 $ + : 2 j <.V.l.x.M.e.^ ^ 1.N.n.0.B.a.} ~ ;.f.m.9.9.m.f.%.~ } i.m.0.n.f.7._ _ e.B.z.z.B.<.j 2 : @ $ Z E.E 0       ",
"      F U.T.0 $ @ : 2 j >.B.l.n.B.e._ ^ 7.N.n.0.B.h.} ~ %.f.m.9.9.n.f.%.~  .a.B.0.n.m.7._ _ e.V.x.z.M.:.j 2 ; @ $ Z W.E 0       ",
"      F U.T.0 $ + : 2 j <.V.q.x.M.e.) ^ 2.N.x.l.B.h.| ^ :.f.m.9.9.m.f.;./ } a.B.0.n.N.7.~ ~ e.B.x.z.V.>.j 2 : @ % Z W.E 0       ",
"      F U.T.0 + @ ; 2 j =.M.z.x.M.w.^ ^ 2.N.n.l.M.d.+.^ :.h.m.9.9.m.f.%./ | a.B.n.n.N.7.) ~ 8.B.x.z.V.<.j 2 ; @ $ Z E.E 0       ",
"      F U.T.0 $ @ : 2 j >.B.z.x.M.w.! ! 8.b.B.n.B.d.+.] ,.f.m.9.9.m.f.,.} +.N.N.n.B.b.7.B ) 8.V.x.z.V.>.j 2 : @ $ Z E.E 0       ",
"      F U.T.0 o @ : 2 f =.V.z.x.M.e.! ! X.i.D.m.M.A.1.+.:.v.m.9.9.m.f.1.| 7.N.m.n.V.i.X.) ) 8.C.x.z.V.>.f 2 : @ % Z E.E 0       ",
"      F U.T.0 o + : 2 a >.V.z.x.V.e.( W ( >.N.m.c.H.j.@.,.c.c.9.9.m.c.,.&.d.K.c.m.v.4.( W ) e.N.x.z.V.>.f 2 : @ + Z E.E 0       ",
"      F Y.W.C $ + - 1 a <.V.z.x.v.e.( ( W 4.v.m.z.Z.h.%.,.f.m.9.9.m.d.,.%.d.B.z.m.v.<.W W W w.V.x.z.V.<.a 1 - + $ A T.R 9       ",
"      F Y.).G % + - < a <.S.c.c.v.e.( ( W <.v.c.0.B.h.:.1.v.m.9.9.m.f.1.%.a.B.0.c.N.<.W W ) e.N.c.c.S.<.a 1 - + % C P.G 9       ",
"        G T.T.0 % - < p $.!.Z.m.V.t.[ ( W <.v.c.0.B.h.;.1.f.m.9.9.m.v.1.;.s.B.0.m.v.<.W ( [ t.C.m.Z.S.$.p < = % C T.R 0         ",
"        Z Y.T.C $ = < e x 8.v.m.B.F.e.) W ,.v.c.0.B.f.;.1.v.n.9.9.c.f.1.;.h.B.0.c.v.<.W ) w.F.B.m.N.8.x r < # % Z W.E 9         ",
"        A U.T.0 @ # , e l 6.V.x.c.D.e.) ! 2.N.c.0.B.h.;.,.c.m.9.9.m.v.1.;.h.B.0.c.N.2.! _ r.D.c.c.N.6.l w , # % Z W.E 0         ",
"        A Y.T.0 $ @ : w f 6.v.z.z.V.e.] ~ <.v.m.0.B.f.;.1.v.m.9.9.m.c.1.;.f.m.0.c.v.1.! ] e.B.x.x.v.2.j w , @ % D W.E 9         ",
"        A U.T.0 $ @ : q a 2.M.x.x.V.e.] _ 2.v.c.0.B.h.;.1.g.m.9.9.m.f.2.;.f.M.0.m.N.2.~ ] e.M.x.z.V.<.a q : @ $ D W.E 9         ",
"        A Y.T.t $ + : 2 a 6.v.z.x.v.e._ ) 2.v.m.q.B.h.&.1.v.m.9.9.m.v.1.%.h.B.0.m.v.2.) ] e.M.z.x.N.<.p 2 : @ $ Z W.E 9         ",
"        A U.T.0 + + ; 2 p <.M.x.z.V.e._ ( <.v.m.q.m.a.&.,.g.m.9.9.m.f.,.@.a.B.0.c.N.<.W ) e.M.x.x.V.<.p 1 ; + $ Z ).E 9         ",
"        C U.T.C + + - < y <.N.z.x.V.w.( N 6.v.c.q.B.a.| &.f.m.9.9.m.g.&.| a.B.q.c.v.6.N ( 8.N.z.z.M.<.s < - o $ Z W.E 9         ",
"        A U.Y.0 o o = : r 4.D.m.m.A.8.c x #.v.B.c.J.a.] #.d.Z.z.z.B.g.#.[ a.J.x.B.A.$.z m 8.S.m.m.D.4.r : = . $ Z E.R 9         ",
"        0 E I.9 X X @ ; 8 3.!.L.L.!.6.g p o.Q./.H.^.t.U [ k.^.D.D./.j.' U y.^.H.^.Q.o.p g 6.!.~.L.!.3.2 - @ X $ C Y.T 9         ",
"        4 0 Z 5 % % * * > d I I P P h 7 6 d L I I I K r u J I U I I J u r K I I I J d 6 7 h P P I P h > * & % & 5 Z 0 4         ",
"        5 F Y G Y G G G G G G G G G G G G G G G G G G G G G G G G G G G G G G G G G G G Y G G G G G G G G G G G G Y F 5         ",
"        4 5 9 9 9 9 9 9 9 9 9 9 9 9 9 9 9 9 9 9 9 9 9 9 9 9 9 9 9 9 9 9 9 9 9 9 9 9 9 9 9 9 9 9 9 9 9 9 9 9 9 9 9 9 5 4         "
};
