/* XPM */
static char *_3fe41a588544398fdca5a198fe9c773KxCvBjurUDDhdgDE[] = {
/* columns rows colors chars-per-pixel */
"64 64 67 1 ",
"  c #B58E5A",
". c #B5925E",
"X c #B8935E",
"o c #AA9169",
"O c #B49464",
"+ c #B99664",
"@ c #BD9A64",
"# c #B49368",
"$ c #B59969",
"% c #BE9C6A",
"& c #B39B71",
"* c #B79F79",
"= c #BFA16E",
"- c #BFA273",
"; c #BDA47B",
": c #CA9C5E",
"> c #C39D65",
", c #CB9E63",
"< c #C39E6B",
"1 c #CE9F68",
"2 c #C29F73",
"3 c #C6A166",
"4 c #CCA266",
"5 c #C5A26C",
"6 c #CCA46C",
"7 c #CEA86D",
"8 c #D2A466",
"9 c #D4A966",
"0 c #D3A66B",
"q c #D4AB6D",
"w c #D8AD6E",
"e c #D7B06E",
"r c #C5A473",
"t c #CAA672",
"y c #C7A973",
"u c #CDA974",
"i c #C4A779",
"p c #CAA778",
"a c #C6A97B",
"s c #CCAC7B",
"d c #D2A772",
"f c #D4AD73",
"g c #D8AE73",
"h c #D3AE79",
"j c #D9AE79",
"k c #CFB07D",
"l c #D6B175",
"z c #D9B175",
"x c #D5B27B",
"c c #D9B47C",
"v c #DAB87E",
"b c #BCA580",
"n c #CBAE81",
"m c #D0AF82",
"M c #CDB183",
"N c #D4B482",
"B c #D9B682",
"V c #D7B883",
"C c #DAB984",
"Z c #D3B68A",
"A c #DAB789",
"S c #D6B98B",
"D c #DBBC8B",
"F c #DBBE91",
"G c #E0BE8E",
"H c #DCC18E",
"J c #DDC092",
/* pixels */
"tDCBvfqd0z37j97ffxxV73zqzzBBABDZscxlez080g>5t5tfurt>%<A98qlzzvvC",
"tDBvCf0f0w3dl70qlxkxf5zqzlcBABGhsCxzlxq90g2tdduuxf77<yv8qzlzlclx",
"sCNBCfdf0w,dlql7jxxcf5llzqcjvBDknJBcxj080g5tu7hfcud455z9gzqllvlz",
"sBxBCjffw0>jx7qlxxxvf5zezqfxCBDVMFBxlB000d5t07uxxd06>>lqzz0ezcxv",
"sccBAgjjqf3hxfffjlfNf5zqzqeNCCCVsDxcfv08qj>706qlff76,5lqql9eellv",
"tccBBjjjql5xNcdxjllNx6eqzeeDCDHxMDvcqzd0dj<dq6f70qfq45q9ze9ezzlv",
"tBBBVjfjdz5xxjfjxxjxx3eelqzCCDDknJNf9gdqdz57fqqqqql74<f0zqeql7ev",
"tBjcBxzjdz5uxufqfhfxu5zqeqlDVDDNnJCj9gd0qc56fff7fquf63gfzllellel",
"tcfzgcfjggtthftdfhuuu3eqezlxVCHSnJDj9qgqdc>6qfffj7ff35glvlgqle9e",
"tCzqjgdjgwttphtfxuuxs5lqqefCDVDxnDCf9fjdjl<47f7qfqud,5flxccqqqqg",
"tvfw0gqggg<5tx7ufttxs5cfleqCCVDskSxf0df0fj>67luqf7ft4>fcvvlqqeze",
"tvqqqdwg0jt1uhusu7uhu<fqllqCVVClaDxcvhd0df@66hlq7fhf7>gvcxlzlqzw",
"6zfq0gwdqdr1usuf777uu5lqqlzxNCCsySxhuuf4dd>67hq9q7fu54cxzclzlqeq",
"3ffzqg0gqq%1fuss346sr5qlzzlCvCCxiSxq9ed47q>t0xf4l7dd6<glccllzlzq",
"3zfz0gwgq9r5fshs366syrqqgllxxxVNaFxuul7:04@ufhx7xufd45llvvzzzflz",
"4zqz0wwg0w555huu7uusa<ffzxzvxCVxaSMxhk7,67>ffxxjVlff75cVVvlqqffl",
"6zqxqqqd0w<<5dtuuuskk5lelllzlVCkaSkkfs0876+xfxcfCl7dd3cvCCzfqqwz",
"6zql0qgw8w1t0tuuuxkNa5lqlq0zlxxlakhhff1446@ffxcxvfdfu3zxCClqwwlc",
"5zlcgqww0w>u6tduuhskk-zeqj0qfxg7axuhuf1:44@xfxNCVlfdf5zxcVvfqqlz",
"3zlcgdqw9q5547d77uukM5zqqzqfzlqdavlhxk4,4d%xfxNxVcfdd5cxvVBllzzz",
"3zqxdlgd0w1547q677uNs%cqqfxzfqqfnxkuxx44,d%xxxCxxxf775vBcNBlzeqz",
"4cdzfggf0qy140uuuhkMu5jqqlccfqq7nZkelxt,40%xxxNxhxj00rcvcCDlqeez",
"5vfgdffw0w5377quukMxy3lfjcxBcqwdavvhfsf180<uxNNxxff7trczzVCzlflz",
"6Cfzgfjq0wy6u66uukxs><zzfjjvzqfhavkkjhd11t5lvSVxcxjqdtgqlvNellez",
"uCfqdlzd8g<4s4477ukh5>zqdxcxfcjsaxll7l7,1drlNCVclcjjftqgzvvqzzqz",
"sCqffjcg8015u4677uyky-BjqlccvcBhauueekq,,u<fxCVlflxff5qccBcqqqqz",
"kCffjlcg8w<5u66uusskrrDxgxxjcBVfslyuhhd81d%xxCxfzxcfdpzzvllqeqez",
"uCxfdjgf8g<%u56p7uyarrCvcjzxNVBsallsjhd68trNBCvfljcjf3qzxllfelez",
"txxd0zjd0w<=t35pyyytrrCccdzcNBCfahuldud41drxBCxlcljff<qqzqeqlqee",
"tCvfwcjgwg5rp55u35ya-=CNvcgvxjlqaxkt77q04frxvxljcvxvf3f0zeqlzezz",
"sDxf0xcd0jt#%+$@XX+$O%DxBclcfcfuo$OO.+. .+#BBcfjcBBBx%3:54,55553",
"uDxj0jcd8gtrMsu6667u35DcCxdzlxqd&=<pyt>>12%BBcjxjcNVx3qqfBvcxvlD",
"tGvf0ccd9dryNktu445745BcCcfqjcq7;iy>pt54<t>hBdhvxNNBx5clcBNcvcjv",
"pDxfgcg00g5anpuu34674<BBCvcjlzff;ni35up1tt<hjwjjcjcvhyvxxCDccxxl",
"sDlljjg0w05ussu676u7>5DDCBBzljwfbnatttt>d5>jgqjcxzgdj5cvBVDxffcq",
"sDcljjjdgj%uMx7566t63rDABNBxllw7;Maa,dp>65@fjjcfBcfwj5ccvDVcqqzq",
"sFBjjjjjgg<sNsp756t63rFBABjBBjq7;Mpu1dt1t6>fgdcccjgq06cvcVDvlflq",
"sAcjgddg0g1snnp6434q1iDDDBjBvzzf;Zpu5tt,57@dw0qczq0qq5lzlCDxzzzq",
"sDcjjgjgfg2mNNsf64t64iGFABBBcjz7iMhud5t,40>fdqzfzzqqq5qlcVCxllzq",
"sDBjBdwddjtsnmNs6tu7>pFFAjjBcfg7-Zsh6dd:66Xfgqgqqqzw75zxxCVlfezz",
"pGBhBfgqgg5hnZms66hu5pFFAjBBjfz0aZsh0d7,77@jgqfqqfjqq5vxDDclqzll",
"sDDcjj0gqz5shNnht6uutrDFFjBBvjfdiZkd477440@qgfgqzqll7>xvDvflqqqz",
"tGDBBcdddf5thNnhtuuutrDFFBcBBc00iSku604046>7qzlzcqlj85ccCcqeqqlc",
"uFDBjgzc0l6thNmhtddu6pGFFBjcBcgqiSVu704,46>6qlfqzqfj44llVClq9elz",
"uDABBjjf8wtfsNNxtf7furBFDAxBDxl7nZNu70,:40@qdclflexj7>xxxCBeqelz",
"sDDBBjdw8wtufNNhhf7sxrBDFCBCDCxfiZNu40,,47>fqcfqqlxfq4vvCNCzzzlc",
"tDAcBf0w0g5thNNmhffxhrDDDBvxDCcuiZk7404847<77Nl9f7ff7rvvvNvlleez",
"tCBBBfwd0qr6fNNxhuujsrBDDNNvxClfiZkflu7,40<ddxl8lfdf0rccvBClqwqx",
"sBcAClddgqtdfxNx7qlxsyCDCBCCNCzdrSxlhhd16737fsxqvlff0rcccvDzzzqz",
"sBcBCjjfff5dhxNxqqucxrDDDNBCDCcqrZh7d0w14d%fdxxfxftft5gflvCzzfqz",
"pccBCjdjdw5uBxBx97fxsaDDCBxxDNl7aSxfqfd80drdfkkfNfdu75fwfvxqzzez",
"pccBNjgcqw6fcxBc7qfcxrCDBBxvCBvhaJNllxd88jruflxxxuqdd5qzxvvfqeqe",
"tABBBjgjdz5udxNclllvx5CDBNCvvxvhMJVvccd88j5kuxxkVxddu5qccvcqeqqe",
"pvgvccjxjztf0jjxxxNSVyCDBBfzllzsaJCVlcf00d5hfxVxNxf765gzvczqeqwl",
"6vdqdcqgjq5fdlflxvxDV5cDBBf9qqwfsDxxczg00jyxxxVxfxu775ffclzqeqel",
"pBzfqcqggqyjgfljzcVVZ5xCBBjqqq9fsCxxczgqdl5uxNVNxxfd75qqlqleeeqv",
"pvqwqfqzgquhdflllckVV5vCBCzqqezunCxczcjqwfpfxZxxxxf005qql9wzeqev",
"tvqq9fqg0gud0qfqezlSV5cDCCvqqezhNCcvvxf80gtdvCNxjxhd76fqzq9zzzlc",
"4zlqqgwdqwtdqqlq7lzCV5jHDBcqllz7nCxzCBq88dyfxVNjfxhdu6fqqq9qllll",
">ffz0q8w0gt0qqfjlxvSNyBFDDlzlll7MCclCcq90qrukvVffxjdu5qfqq9wezzz",
"3zfzqfwfqwtdqfxflNZClyHHDCcllfq6kSvvcxg00q5xNCNffuxd75gqqqqqzvzl",
"4zqzqqqgqqyffqfflNVv75DDBNzcleq9MDxzzzg00q7jxCV7lfjf4pv0qeelzvcz",
"ucqvdgfgqzuulqqelxSx73vCvvlzcee7kvclfcw88f5NVDCjcNjd6sC8qelxlxlc",
"@7>t3464>0-ql70fllvvu=ak7t66u44>axllfg888f<rasu55py5>rC98wlxlvVv"
};
