/* XPM */
static char *result[] = {
/* columns rows colors chars-per-pixel */
"64 53 196 2 ",
"   c #080A08",
".  c #10100F",
"X  c #0E0E11",
"o  c #100F13",
"O  c #131414",
"+  c #161319",
"@  c #1A1A1D",
"#  c #2B221A",
"$  c #1E1D22",
"%  c #222225",
"&  c #29282C",
"*  c #2C2D32",
"=  c #302E35",
"-  c #323234",
";  c #35343D",
":  c #3B3B3B",
">  c #5D330A",
",  c #493725",
"<  c #3D5F1E",
"1  c #764511",
"2  c #547A3F",
"3  c #3C3B43",
"4  c #7A3B53",
"5  c #3C4143",
"6  c #414143",
"7  c #45444A",
"8  c #4B4A4C",
"9  c #46484A",
"0  c #4C4B54",
"q  c #484653",
"w  c #544D5C",
"e  c #515052",
"r  c #54545B",
"t  c #59595A",
"y  c #54585B",
"u  c #5C4D49",
"i  c #78784C",
"p  c #595564",
"a  c #5B5A64",
"s  c #565464",
"d  c #4E4A61",
"f  c #655A68",
"g  c #675F75",
"h  c #7A5563",
"j  c #5D6164",
"k  c #626264",
"l  c #65656B",
"z  c #6C6C6E",
"x  c #6A6168",
"c  c #6D6C72",
"v  c #6A6A78",
"b  c #726A76",
"n  c #737475",
"m  c #74747A",
"M  c #76787C",
"N  c #864F10",
"B  c #A05B10",
"V  c #BD6C14",
"C  c #97642F",
"Z  c #AD7231",
"A  c #CD7417",
"S  c #C37625",
"D  c #915F72",
"F  c #845366",
"G  c #9E687C",
"H  c #528732",
"J  c #6C8023",
"K  c #6A8C5B",
"L  c #69AD41",
"P  c #748A6D",
"I  c #87912A",
"U  c #838F28",
"Y  c #E8851A",
"T  c #F18B1C",
"R  c #E68821",
"E  c #6E6983",
"W  c #756F88",
"Q  c #7E7E86",
"!  c #7C7A8B",
"~  c #777582",
"^  c #7B7496",
"/  c #7C7696",
"(  c #7D74A1",
")  c #7F78A0",
"_  c #817D94",
"`  c #A86C83",
"'  c #837BA5",
"]  c #837CA7",
"[  c #DD5F8F",
"{  c #C75983",
"}  c #E84984",
"|  c #C16789",
" . c #FF78AC",
".. c #7D8285",
"X. c #85868A",
"o. c #848789",
"O. c #8D8C94",
"+. c #888797",
"@. c #918C9D",
"#. c #958C92",
"$. c #939396",
"%. c #95959D",
"&. c #9B9A9C",
"*. c #93999C",
"=. c #8F969A",
"-. c #A0919C",
";. c #A98D9B",
":. c #8A83AB",
">. c #8C87A6",
",. c #9089AF",
"<. c #9E9DA6",
"1. c #9896A7",
"2. c #938CB1",
"3. c #9B96B5",
"4. c #A297A7",
"5. c #A29BBC",
"6. c #A79BB5",
"7. c #BE9CBE",
"8. c #9DA2A7",
"9. c #A4A3AC",
"0. c #AAAAAB",
"q. c #A4A6A8",
"w. c #A6A4B3",
"e. c #ABAAB4",
"r. c #A6A2BB",
"t. c #ADA1B3",
"y. c #B4ADB6",
"u. c #B7ADBA",
"i. c #B3B3B4",
"p. c #BBBBBC",
"a. c #B6B5B9",
"s. c #AFB6BA",
"d. c #D183A1",
"f. c #CD9CBF",
"g. c #D39BBF",
"h. c #F981AF",
"j. c #EF8EB3",
"k. c #F685B1",
"l. c #FE88B5",
"z. c #FF8BB7",
"x. c #E09CBF",
"c. c #FF94BD",
"v. c #FF98BF",
"b. c #F394BB",
"n. c #C4A9B5",
"m. c #ABA5C3",
"M. c #AEABC3",
"N. c #B1ADC4",
"B. c #B6ACC7",
"V. c #B8B7C4",
"C. c #BDBCC2",
"Z. c #BDBBCB",
"A. c #B7B3C9",
"S. c #BEBBD1",
"D. c #FE9AC1",
"F. c #C1BECE",
"G. c #CFB6C0",
"H. c #C1BED3",
"J. c #DCBED5",
"K. c #D2B6C6",
"L. c #EAB2CD",
"P. c #BFC1C6",
"I. c #C4C3C4",
"U. c #C4C3CB",
"Y. c #CBCACC",
"T. c #C2C8CC",
"R. c #C4C2D5",
"E. c #CDCCD4",
"W. c #C9C7D9",
"Q. c #CDCBDB",
"!. c #D1CEDE",
"~. c #D0C7D5",
"^. c #D3D3D5",
"/. c #D3D1DE",
"(. c #DBDADD",
"). c #D8D0DC",
"_. c #E2C1D7",
"`. c #E7CADD",
"'. c #D5D3E1",
"]. c #DAD5E3",
"[. c #DBDAE5",
"{. c #DEDDE8",
"}. c #E1DEE9",
"|. c #E3D8E5",
" X c #FED6E6",
".X c #FBD8E8",
"XX c #E1E2E5",
"oX c #E5E3EC",
"OX c #E9E6EE",
"+X c #ECECEC",
"@X c #EDECF3",
"#X c #F3F2F4",
"$X c #F5F4F9",
"%X c #FEFEFE",
"&X c #F8F4F9",
"*X c None",
/* pixels */
"*X*X*X*X*X*X*X*X*X*X*X*X*X*X*X*X*X*X*X*X*X*X*X*X*X*X*X*X*X*X*X*X*X*X*X*X*X*X*X*X*X*X*X*X*X*X*X*X*X*X*X*X*X*X*X*X*X*X*X*X*X*X*X*X",
"*X*X*X*X*X*X*X*X*X*X*X*X*X*X*X*X*X*X*X*X*X*X*X*X*X*X*X*X*X*X*X*X*X*X*X*X*X*X*X*X*X*X*X*X*X*X*X*X*X*X*X*X*X*X*X*X*X*X*X*X*X*X*X*X",
"*X*X*X*X*X*X*X*X*X*X*X*X*X*X*X*X*X*X*X*X*X*X*X*X*X*X*X*X*X*X*X*X*X*X*X*X*X*X*X*X*X*X*X*X*X*X*X*X*X*X*X*X*X*X*X*X*X*X*X*X*X*X*X*X",
"*X*X*X*X*X*X*X*X*X*X*X*X*X*X*X*X*X*X*X*X*X*X*X*X*X*X*X*X*X*X*X*X*X*X*X*X*X*X*X*X*X*X*X*X*X*X*X*X*X*X*X*X*X*X*X*X*X*X*X*X*X*X*X*X",
"*X*X*X*X*X*X*X*X*X*X*X*X*X*X*X*X*X*X*X*X*X*X*X*X*X*X*X*X*X*X*X*X*X*X*X*X*X*X*X*X*X*X*X*X*X*X*X*X*X*X*X*X*X*X*X*X*X*X*X*X*X*X*X*X",
"*X*X*X*X*X*X*X*X*X*X*X*X*X*X*X*X*X*X*X*X*X*X*X*X*X*X*X*X*X*X*X*X*X*X*X*X*X*X*X*X*X*X*X*X*X*X*X*X*X*X*X*X*X*X*X*X*X*X*X*X*X*X*X*X",
"*X*X*X*X*X*X*X*X*X*X*X*X*X*X*X*X*X*X*X*X*X*X*X*X*X*X*X*X*X*X*X*X*X*X*X*X*X*XO - e *X*X*X*X*X*X*X*X*X*X*X*X*X*X*X*X*X*X*X*X*X*X*X",
"*X*X*X*X*X*X*X*X*X*X*X*X*X*X*X*X*X*X*X*X*X*X*X*X*X*X*X*X*X*X*X*X*X*X*X@ e o.a.(.^.6 *X*X*X*X*X*X*X*X*X*X*X*X*X*X*X*X*X*X*X*X*X*X",
"*X*X*X*X*X*X*X*X*X*X*X*X*X*X*X*X*X*X*X*X*X*X*X*X*X*X*X*X*X*X*X*X*X*X6 i.+X$X@XOXW.9 *X*X*X*X*X*X*X*X*X*X*X*X*X*X*X*X*X*X*X*X*X*X",
"*X*X*X*X*X*X*X*X*X*X*X*X*X*X*X*X*X*X*X*X*X*X*X*X*X*X*X*X*X*X*X*X*X8 E.#XOXoX{.[.U.q *X*X*X*X*X*X*X*X*X*X*X*X*X*X*X*X*X*X*X*X*X*X",
"*X*X*X*X*X*X*X*X*X*X*X*X*X*X*X*X*X*X*X*X*X*X*X*X*X*X*X*X*X*X*X*X& p.@XOXoX[.[.Q.N.6 *X*X*X*X*X*X*X*X*X*X*X% *X*X*X*X*X*X*X*X*X*X",
"*X*X*X*X*X*X*X*X*X*X*X*X*X*X*X*X*X*X*X*X*X*X*X*X*X*X*X*X*X*X*X*Xn oX}./.'.].'.S.1.*X*X*X*X*X*X*X*X5 k o.a.&.*X*X*X*X*X*X*X*X*X*X",
"*X*X*X*X*X*X*X*X*X*X*X*X*X*X*X*X*X*X*X*X*X*X*X*X*X*X*X*X*X*X*X*X&.0.#.$.O.&.M.m.E *X*X*X*X*X8 O.p.(.+X$X#XC.*X*X*X*X*X*X*X*X*X*X",
"*X*X*X*X*X*X*X*X*X*X*X*X*X*X*X*X*X*X*X*X*X*X*X*X*X*X*Xn p.(.Y.o.k a.+X%X#Xp.s w % *X*X*X- n Y.$X#X@XoXoX}.U.*X*X*X*X*X*X*X*X*X*X",
"*X*X*X*X*X*X*X*X*X*X*X*X*X*X*X*X*X*X*X*X*X*X*X*X*X*XM +X%X%X%Xp.i.%X%X%X%X%Xp.n _ - *X- a.(.P.oX}.`.].{.[.F.*X*X*X*X*X*X*X*X*X*X",
"*X*X*X*X*X*X*X*X*X*X*X*X*X*X*X*X*X*X*X*X*X*X*X*X*X*XY.OX#.t.#X-.#X(.6.).%X%X%X&.XXU.7 q.#X|.L.b.k.h._.'.'.e.*X*X*X*X*X*X*X*X*X*X",
"*X*X*X*X*X*X*X*X*X*X*X*X*X*X*X*X*X*X*X` d.G *X*X*Xt +X4.9 f ^.&.%Xb z b #X%X%Xq.Y.(.X.oX`. . .k.c.v.J./.R.! *X*X*X*X*X*X*X*X*X*X",
"*X*X*X*X*X*X*X*X*X*X*X*X*X*X*X*X*X*Xh j.D.b.D *X*X*X+Xy.+ f oX&.%X~   w &X%X%X0.U.E.y.|.k.l.D.D.v.v.J.S.3.7 *X*X*X*X*X*X*X*X*X*X",
"*X*X*X*X*X*X*X*X*X*X*X*X*X*X*X*X*X*XF k.v.z.| *X*X*Xi.%X~.@X%X&.OX}.4.).%X%X%X#./.E.F.J.l.D.c.c.z.L.N.3.p *X*X*X*X*X*X*X*X*X*X*X",
"*X*X*X*X*X*X*X*X*X*X*X*X*X*X*X*X*X*X*X[  . .{ c l a c ^.%X%X%Xa.q.%X%X%X%X%XI.O.{.].R.J.c.c.b.D.g.5.>.w *X*X*X*X*X*X*X*X*X*X*X*X",
"*X*X*X*X*X*X*X*X*X*X*X*X*X*X*X*X*X*X*X4 } } ` XX^.E.(.&.q.p.i.=.M 0.+X%X#XF._ F.].'.R.B.f.f.7.6._ g = *X*X*X*X*X*X*X*X*X*X*X*X*X",
"*X*X*X*X*X*X*X*X*X*X*X*X*X*X*X*X*X*X*X*Xf ;.Y.#XoX}.oXoXE.p.C./.).<.X.O.X.+.p./.'.'.R.N.1.^ p 7 % *X*X*X*X*X*X*X*X*X*X*X*X*X*X*X",
"*X*X*X*X*X*X*X*X*X*X*X*X*X*X*X*X*X*X*X*Xv oX@X@XOXOXOXoXoXoX}.[.[.[.~.H.H.Q.'././.!.!.H.3.W + *X*X*X*X*X*X*X*X*X*X*X*X*X*X*X*X*X",
"*X*X*X*X*X*X*X*X*X*X*X*X*X*X*X*X*X*X*X*X7 !.}.OXoXoXoX[.[.[.].[.].].]./.'.!.Q.Q.Q.Q.W.A.5./ + *X*X*X*X*X*X*X*X*X*X*X*X*X*X*X*X*X",
"*X*X*X*X*X*X*X*X*X*X*X*X*X*X*X*X*X*X*X*X+ 9.'.{.}.{.{.{.[.[.'.'.'.'./.Q.!.Q.W.R.W.W.R.5.3.E o *X*X*X*X*X*X*X*X*X*X*X*X*X*X*X*X*X",
"*X*X*X*X*X*X*X*X*X*X*X*X*X*X*X*X*X*X*X*X*Xp R.Q.].[.].].'.Q.R.'.'.!.'.!.'.Q.w.Z.W.P.B.,.2.s *X*X*X*X*X*X*X*X*X*X*X*X*X*X*X*X*X*X",
"*X*X*X*X*X*X*X*X*X*X*X*X*X*X*X*X*X*X*X*X*X@ >.H.R.'.'.'.'.Q.w.Z.!.'.'./.P.1.w.P.S.A.3.] ( 3 *X*X*X*X*X*X*X*X*X*X*X*X*X*X*X*X*X*X",
"*X*X*X*X*X*X*X*X*X*X*X*X*X*X*X*X*X*X*X*X*X*X: r.B.S.Q.!.Q.Q.Z.1.1.<.1.8...m.S.S.B.2.] ] E X *X*X*X*X*X*X*X*X*X*X*X*X*X*X*X*X*X*X",
"*X*X*X*X*X*X*X*X*X*X*X*X*X*X*X*X*X*X*X*X*X*X*X0 r.m.B.S.W.W.W.R.N.&.0.I.I.3.N.3.:.' ' ^ * *X*X*X*X*X*X*X*X*X*X*X*X*X*X*X*X*X*X*X",
"*X*X*X*X*X*X*X*X*X*X*X*X*X*X*X*X*X*X*X*X*X*X*X*X0 3.5.5.5.m.M.M.M.@.I.a.oX! ] ) ' ( ^ 3 *X*X*X*X*X*X*X*X*X*X*X*X*X*X*X*X*X*X*X*X",
"*X*X*X*X*X*X*X*X*X*X*X*X*X*X*X*X*X*X*X*X*X*X*X*X*X3 +.3.2.,.,.:.:./ / ~ +.v ( ] ] W 3 *X*X*X*X*X*X*X*X*X*X*X*X*X*X*X*X*X*X*X*X*X",
"*X*X*X*X*X*X*X*X*X*X*X*X*X*X*X*X*X*X*X*X*X*X*X*X*X*X$ s / ,.:.:.:.] ( ^ W ^ ^ E q @ *X*X*X*X*X*X*X*X*X*X*X*X*X*X*X*X*X*X*X*X*X*X",
"*X*X*X*X*X*X*X*X*X*X*X*X*X*X*X*X*X*X*X*X*X*X*X*X*X*X*X*X@ ; 0 s p s 0 0 ; 0 %   *X*X*X*X*X*X*X*X*X*X*X*X*X*X*X*X*X*X*X*X*X*X*X*X",
"*X*X*X*X*X*X*X*X*X*X*X*X*X*X*X*X*X*X*X*X*X*X*X*X*X*X*X*X*X@ #.n.n.u.V.M.l A.+.*X*X*X*X*X*X*X*X*X*X*X*X*X*X*X*X*X*X*X*X*X*X*X*X*X",
"*X*X*X*X*X*X*X*X*X*X*X*X*X*X*X*X*X*X*X*X*X*X*X*X*X*X*X*X*Xx  X X X X).H.! +.!.c *X*X*X*X*X*X*X*X*X*X*X*X*X*X*X*X*X*X*X*X*X*X*X*X",
"*X*X*X*X*X*X*X*X*X*X*X*X*X*X*X*X*X*X*X*X*X*X*X*X*X*X*X*X+ -. X X X X|.W.N.z Z.9.: *X*X*X*X*X*X*X*X*X*X*X*X*X*X*X*X*X*X*X*X*X*X*X",
"*X*X*X*X*X*X*X*X*X*X*X*X*X*X*X*X*X*X*X*X*X*X*X*X*X*X..l l y. X X X.X].W.H.z @.'.~ *X*X*X*X*X*X*X*X*X*X*X*X*X*X*X*X*X*X*X*X*X*X*X",
"*X*X*X*X*X*X*X*X*X*X*X*X*X*X*X*X*X*X*X*X*X*X*X*X*Xo.o.n j e..X X X.X].Q.R.l 0 ! y e n *X*X*X*X*X*X*X*X*X*X*X*X*X*X*X*X*X*X*X*X*X",
"*X*X*X*X*X*X*X*X*X*X*X*X*X*X*X*X*X*X*X*X*X*X*X*X5 =.o.9 % n N.K.G.a.s.0.9.j M T.O.* *X*X*X*X*X*X*X*X*X*X*X*X*X*X*X*X*X*X*X*X*X*X",
"*X*X*X*X*X*X*X*X*X*X*X*X*X*X*X*X*X*X*X*X*X*X*X*X*Xj w.y   H P 3 K L L L L 2 ..s.o.*X*X*X*X*X*X*X*X*X*X*X*X*X*X*X*X*X*X*X*X*X*X*X",
"*X*X*X*X*X*X*X*X*X*X*X*X*X*X*X*X*X*X*X*X*X*X*X*X*X*X*X*X*X< i e C J I I J P 9.*...*X*X*X*X*X*X*X*X*X*X*X*X*X*X*X*X*X*X*X*X*X*X*X",
"*X*X*X*X*X*X*X*X*X*X*X*X*X*X*X*X*X*X*X*X*X*X*X*X*X*X*X*X*X*X1 V R R R R > 0 c =...*X*X*X*X*X*X*X*X*X*X*X*X*X*X*X*X*X*X*X*X*X*X*X",
"*X*X*X*X*X*X*X*X*X*X*X*X*X*X*X*X*X*X*X*X*X*X*X*X*X*X*X*X*X*XB A 1 1 Y V *X*X*X*X*X*X*X*X*X*X*X*X*X*X*X*X*X*X*X*X*X*X*X*X*X*X*X*X",
"*X*X*X*X*X*X*X*X*X*X*X*X*X*X*X*X*X*X*X*X*X*X*X*X*X*X*X*X*X*XC Z , # Z C # *X*X*X*X*X*X*X*X*X*X*X*X*X*X*X*X*X*X*X*X*X*X*X*X*X*X*X",
"*X*X*X*X*X*X*X*X*X*X*X*X*X*X*X*X*X*X*X*X*X*X*X*X*X*X*X*X*X8 z k e e c l 8 *X*X*X*X*X*X*X*X*X*X*X*X*X*X*X*X*X*X*X*X*X*X*X*X*X*X*X",
"*X*X*X*X*X*X*X*X*X*X*X*X*X*X*X*X*X*X*X*X*X*X*X*X*X*X*X6 y.V.k t p.s.t 8 6 *X*X*X*X*X*X*X*X*X*X*X*X*X*X*X*X*X*X*X*X*X*X*X*X*X*X*X",
"*X*X*X*X*X*X*X*X*X*X*X*X*X*X*X*X*X*X*X*X*X*X*X*X*X*X*X7 %.$.y e *.O.8 : - *X*X*X*X*X*X*X*X*X*X*X*X*X*X*X*X*X*X*X*X*X*X*X*X*X*X*X",
"*X*X*X*X*X*X*X*X*X*X*X*X*X*X*X*X*X*X*X*X*X*X*X*X*X*X*X*X*Xo *X*X. *X*X*X*X*X*X*X*X*X*X*X*X*X*X*X*X*X*X*X*X*X*X*X*X*X*X*X*X*X*X*X",
"*X*X*X*X*X*X*X*X*X*X*X*X*X*X*X*X*X*X*X*X*X*X*X*X*X*X*X*X*X*X*X*X*X*X*X*X*X*X*X*X*X*X*X*X*X*X*X*X*X*X*X*X*X*X*X*X*X*X*X*X*X*X*X*X",
"*X*X*X*X*X*X*X*X*X*X*X*X*X*X*X*X*X*X*X*X*X*X*X*X*X*X*X*X*X*X*X*X*X*X*X*X*X*X*X*X*X*X*X*X*X*X*X*X*X*X*X*X*X*X*X*X*X*X*X*X*X*X*X*X",
"*X*X*X*X*X*X*X*X*X*X*X*X*X*X*X*X*X*X*X*X*X*X*X*X*X*X*X*X*X*X*X*X*X*X*X*X*X*X*X*X*X*X*X*X*X*X*X*X*X*X*X*X*X*X*X*X*X*X*X*X*X*X*X*X",
"*X*X*X*X*X*X*X*X*X*X*X*X*X*X*X*X*X*X*X*X*X*X*X*X*X*X*X*X*X*X*X*X*X*X*X*X*X*X*X*X*X*X*X*X*X*X*X*X*X*X*X*X*X*X*X*X*X*X*X*X*X*X*X*X",
"*X*X*X*X*X*X*X*X*X*X*X*X*X*X*X*X*X*X*X*X*X*X*X*X*X*X*X*X*X*X*X*X*X*X*X*X*X*X*X*X*X*X*X*X*X*X*X*X*X*X*X*X*X*X*X*X*X*X*X*X*X*X*X*X"
};
