/* XPM */
static char *result[] = {
/* columns rows colors chars-per-pixel */
"64 53 196 2 ",
"   c #080A08",
".  c #10100F",
"X  c #0E0E11",
"o  c #100F13",
"O  c #131414",
"+  c #161319",
"@  c #1A1A1D",
"#  c #2B221A",
"$  c #1E1D22",
"%  c #222225",
"&  c #29282C",
"*  c #2C2D32",
"=  c #302E35",
"-  c #323234",
";  c #35343D",
":  c #3B3B3B",
">  c #5D330A",
",  c #493725",
"<  c #3D5F1E",
"1  c #764511",
"2  c #547A3F",
"3  c #3C3B43",
"4  c #7A3B53",
"5  c #3C4143",
"6  c #414143",
"7  c #45444A",
"8  c #4B4A4C",
"9  c #46484A",
"0  c #4C4B54",
"q  c #484653",
"w  c #544D5C",
"e  c #515052",
"r  c #54545B",
"t  c #59595A",
"y  c #54585B",
"u  c #5C4D49",
"i  c #78784C",
"p  c #595564",
"a  c #5B5A64",
"s  c #565464",
"d  c #4E4A61",
"f  c #655A68",
"g  c #675F75",
"h  c #7A5563",
"j  c #5D6164",
"k  c #626264",
"l  c #65656B",
"z  c #6C6C6E",
"x  c #6A6168",
"c  c #6D6C72",
"v  c #6A6A78",
"b  c #726A76",
"n  c #737475",
"m  c #74747A",
"M  c #76787C",
"N  c #864F10",
"B  c #A05B10",
"V  c #BD6C14",
"C  c #97642F",
"Z  c #AD7231",
"A  c #CD7417",
"S  c #C37625",
"D  c #915F72",
"F  c #845366",
"G  c #9E687C",
"H  c #528732",
"J  c #6C8023",
"K  c #6A8C5B",
"L  c #69AD41",
"P  c #748A6D",
"I  c #87912A",
"U  c #838F28",
"Y  c #E8851A",
"T  c #F18B1C",
"R  c #E68821",
"E  c #6E6983",
"W  c #756F88",
"Q  c #7E7E86",
"!  c #7C7A8B",
"~  c #777582",
"^  c #7B7496",
"/  c #7C7696",
"(  c #7D74A1",
")  c #7F78A0",
"_  c #817D94",
"`  c #A86C83",
"'  c #837BA5",
"]  c #837CA7",
"[  c #DD5F8F",
"{  c #C75983",
"}  c #E84984",
"|  c #C16789",
" . c #FF78AC",
".. c #7D8285",
"X. c #85868A",
"o. c #848789",
"O. c #8D8C94",
"+. c #888797",
"@. c #918C9D",
"#. c #958C92",
"$. c #939396",
"%. c #95959D",
"&. c #9B9A9C",
"*. c #93999C",
"=. c #8F969A",
"-. c #A0919C",
";. c #A98D9B",
":. c #8A83AB",
">. c #8C87A6",
",. c #9089AF",
"<. c #9E9DA6",
"1. c #9896A7",
"2. c #938CB1",
"3. c #9B96B5",
"4. c #A297A7",
"5. c #A29BBC",
"6. c #A79BB5",
"7. c #BE9CBE",
"8. c #9DA2A7",
"9. c #A4A3AC",
"0. c #AAAAAB",
"q. c #A4A6A8",
"w. c #A6A4B3",
"e. c #ABAAB4",
"r. c #A6A2BB",
"t. c #ADA1B3",
"y. c #B4ADB6",
"u. c #B7ADBA",
"i. c #B3B3B4",
"p. c #BBBBBC",
"a. c #B6B5B9",
"s. c #AFB6BA",
"d. c #D183A1",
"f. c #CD9CBF",
"g. c #D39BBF",
"h. c #F981AF",
"j. c #EF8EB3",
"k. c #F685B1",
"l. c #FE88B5",
"z. c #FF8BB7",
"x. c #E09CBF",
"c. c #FF94BD",
"v. c #FF98BF",
"b. c #F394BB",
"n. c #C4A9B5",
"m. c #ABA5C3",
"M. c #AEABC3",
"N. c #B1ADC4",
"B. c #B6ACC7",
"V. c #B8B7C4",
"C. c #BDBCC2",
"Z. c #BDBBCB",
"A. c #B7B3C9",
"S. c #BEBBD1",
"D. c #FE9AC1",
"F. c #C1BECE",
"G. c #CFB6C0",
"H. c #C1BED3",
"J. c #DCBED5",
"K. c #D2B6C6",
"L. c #EAB2CD",
"P. c #BFC1C6",
"I. c #C4C3C4",
"U. c #C4C3CB",
"Y. c #CBCACC",
"T. c #C2C8CC",
"R. c #C4C2D5",
"E. c #CDCCD4",
"W. c #C9C7D9",
"Q. c #CDCBDB",
"!. c #D1CEDE",
"~. c #D0C7D5",
"^. c #D3D3D5",
"/. c #D3D1DE",
"(. c #DBDADD",
"). c #D8D0DC",
"_. c #E2C1D7",
"`. c #E7CADD",
"'. c #D5D3E1",
"]. c #DAD5E3",
"[. c #DBDAE5",
"{. c #DEDDE8",
"}. c #E1DEE9",
"|. c #E3D8E5",
" X c #FED6E6",
".X c #FBD8E8",
"XX c #E1E2E5",
"oX c #E5E3EC",
"OX c #E9E6EE",
"+X c #ECECEC",
"@X c #EDECF3",
"#X c #F3F2F4",
"$X c #F5F4F9",
"%X c #FEFEFE",
"&X c #F8F4F9",
"*X c None",
/* pixels */
"*X*X*X*X*X*X*X*X*X*X*X*X*X*X*X*X*X*X*X*X*X*X*X*X*X*X*X*X*X*X*X*X*X*X*X*X*X*X*X*X*X*X*X*X*X*X*X*X*X*X*X*X*X*X*X*X*X*X*X*X*X*X*X*X",
"*X*X*X*X*X*X*X*X*X*X*X*X*X*X*X*X*X*X*X*X*X*X*X*X*X*X*X*X*X*X*X*X*X*X*X*X*X*X*X*X*X*X*X*X*X*X*X*X*X*X*X*X*X*X*X*X*X*X*X*X*X*X*X*X",
"*X*X*X*X*X*X*X*X*X*X*X*X*X*X*X*X*X*X*X*X*X*X*X*X*X*X*X*X*X*X*X*X*X*X*X*X*X*X*X*X*X*X*X*X*X*X*X*X*X*X*X*X*X*X*X*X*X*X*X*X*X*X*X*X",
"*X*X*X*X*X*X*X*X*X*X*X*X*X*X*X*X*X*X*X*X*X*X*X*X*X*X*X*X*X*X*X*X*X*X*X*X*X*X*X*X*X*X*X*X*X*X*X*X*X*X*X*X*X*X*X*X*X*X*X*X*X*X*X*X",
"*X*X*X*X*X*X*X*X*X*X*X*X*X*X*X*X*X*X*X*X*X*X*X*X*X*X*X*X*X*X*X*X*X*X*X*X*X*X*X*X*X*X*X*X*X*X*X*X*X*X*X*X*X*X*X*X*X*X*X*X*X*X*X*X",
"*X*X*X*X*X*X*X*X*X*X*X*X*X*X*X*X*X*X*X*X*X*X*X*X*X*X*X*X*X*X*X*X*X*X*X*X*X*X*X*X*X*X*X*X*X*X*X*X*X*X*X*X*X*X*X*X*X*X*X*X*X*X*X*X",
"*X*X*X*X*X*X*X*X*X*X*X*X*X*X*X*X*X*X*X*X*X*X*Xe ; O *X*X*X*X*X*X*X*X*X*X*X*X*X*X*X*X*X*X*X*X*X*X*X*X*X*X*X*X*X*X*X*X*X*X*X*X*X*X",
"*X*X*X*X*X*X*X*X*X*X*X*X*X*X*X*X*X*X*X*X*X*X: E.(.i.o.e @ *X*X*X*X*X*X*X*X*X*X*X*X*X*X*X*X*X*X*X*X*X*X*X*X*X*X*X*X*X*X*X*X*X*X*X",
"*X*X*X*X*X*X*X*X*X*X*X*X*X*X*X*X*X*X*X*X*X*X7 E.oX#X$X@Xi.6 *X*X*X*X*X*X*X*X*X*X*X*X*X*X*X*X*X*X*X*X*X*X*X*X*X*X*X*X*X*X*X*X*X*X",
"*X*X*X*X*X*X*X*X*X*X*X*X*X*X*X*X*X*X*X*X*X*X8 F.[.[.oXOX#X^.8 *X*X*X*X*X*X*X*X*X*X*X*X*X*X*X*X*X*X*X*X*X*X*X*X*X*X*X*X*X*X*X*X*X",
"*X*X*X*X*X*X*X*X*X*X% *X*X*X*X*X*X*X*X*X*X*X7 N.!.[.{.XXoX@Xp.& *X*X*X*X*X*X*X*X*X*X*X*X*X*X*X*X*X*X*X*X*X*X*X*X*X*X*X*X*X*X*X*X",
"*X*X*X*X*X*X*X*X*X*X&.i.o.k 3 *X*X*X*X*X*X*X*X1.S.'.[./.^.{.OXn *X*X*X*X*X*X*X*X*X*X*X*X*X*X*X*X*X*X*X*X*X*X*X*X*X*X*X*X*X*X*X*X",
"*X*X*X*X*X*X*X*X*X*XC.$X$X+X(.p.o.e *X*X*X*X*XE m.M.1.O.$.#.q.&.*X*X*X*X*X*X*X*X*X*X*X*X*X*X*X*X*X*X*X*X*X*X*X*X*X*X*X*X*X*X*X*X",
"*X*X*X*X*X*X*X*X*X*XU.{.XXOX@X$X$XY.n * *X*X*X% d s p.#X%X#Xa.k o.Y.^.p.n *X*X*X*X*X*X*X*X*X*X*X*X*X*X*X*X*X*X*X*X*X*X*X*X*X*X*X",
"*X*X*X*X*X*X*X*X*X*XF.{.{.].`.}.OXI.(.a.; *X- ..M p.%X%X%X%X%Xy.a.%X%X%X+XM *X*X*X*X*X*X*X*X*X*X*X*X*X*X*X*X*X*X*X*X*X*X*X*X*X*X",
"*X*X*X*X*X*X*X*X*X*Xe.'.'._.h.k.b.L.|.#Xq.7 U.XX&.&X%X%X).6.).#X&.#Xt.#.OXY.*X*X*X*X*X*X*X*X*X*X*X*X*X*X*X*X*X*X*X*X*X*X*X*X*X*X",
"*X*X*X*X*X*X*X*X*X*X! R.'.J.D.z.l. .k.`.}.X.[.Y.q.%X%X$Xb z b %X&.).f 7 4.+Xt *X*X*XG d.` *X*X*X*X*X*X*X*X*X*X*X*X*X*X*X*X*X*X*X",
"*X*X*X*X*X*X*X*X*X*X7 3.S.J.D.D.D.D.l.k.|.e.E.U.0.%X%X&Xw   m %X&.OXf + u.OX*X*X*XD b.D.j.h *X*X*X*X*X*X*X*X*X*X*X*X*X*X*X*X*X*X",
"*X*X*X*X*X*X*X*X*X*X*Xp 3.N.L.z.c.z.D.l._.P.E.).$.%X%X%X).4.}.+X-.%X+X~.&Xi.*X*X*X| c.c.k.F *X*X*X*X*X*X*X*X*X*X*X*X*X*X*X*X*X*X",
"*X*X*X*X*X*X*X*X*X*X*X*Xr >.3.g.D.b.z.c.J.Q.'.{.O.I.%X%X%X%X%Xq.p.%X%X%X^.n a z b {  . .[ *X*X*X*X*X*X*X*X*X*X*X*X*X*X*X*X*X*X*X",
"*X*X*X*X*X*X*X*X*X*X*X*X*X= g +.6.7.f.g.B.H.].].F.Q I.#X%X+X0.~ $.i.p.q.1.(.E.^.XX` } } 4 *X*X*X*X*X*X*X*X*X*X*X*X*X*X*X*X*X*X*X",
"*X*X*X*X*X*X*X*X*X*X*X*X*X*X*X% 7 p ! 2.B.R.'.'.'.A.+.X.O.X.<.'.^.C.p.Y.oXoXXXoX#XY.;.f *X*X*X*X*X*X*X*X*X*X*X*X*X*X*X*X*X*X*X*X",
"*X*X*X*X*X*X*X*X*X*X*X*X*X*X*X*X*Xo W 3.H.Q.!.'.'.!.Q.R.Z.Q.[.[.[.oXoXoXoXOXOXOX@X@XoXb *X*X*X*X*X*X*X*X*X*X*X*X*X*X*X*X*X*X*X*X",
"*X*X*X*X*X*X*X*X*X*X*X*X*X*X*X*X*X+ _ 5.A.Q.W.Q.Q.Q./.'.'.'.'.[.[.'.[.[.{.XXoXoXOX}.!.7 *X*X*X*X*X*X*X*X*X*X*X*X*X*X*X*X*X*X*X*X",
"*X*X*X*X*X*X*X*X*X*X*X*X*X*X*X*X*XX E 3.5.P.Q.W.R.W.Q.!.Q.'.'.'.'.'.].[.{.{.{.}.}./.9.+ *X*X*X*X*X*X*X*X*X*X*X*X*X*X*X*X*X*X*X*X",
"*X*X*X*X*X*X*X*X*X*X*X*X*X*X*X*X*X*Xs ,.2.B.R.R.S.r.Q.'././.!.!.'.R.Q.'.'.[.[.[.Q.R.p *X*X*X*X*X*X*X*X*X*X*X*X*X*X*X*X*X*X*X*X*X",
"*X*X*X*X*X*X*X*X*X*X*X*X*X*X*X*X*X*X3 ( :.2.A.S.P.r.1.P./.'././.Z.w.Q.'.!.'./.R.H.>.@ *X*X*X*X*X*X*X*X*X*X*X*X*X*X*X*X*X*X*X*X*X",
"*X*X*X*X*X*X*X*X*X*X*X*X*X*X*X*X*X*XX g ] :.2.B.S.S.r...<.<.8.1.<.Z.Q.Q.Q.Q.S.A.6.3 *X*X*X*X*X*X*X*X*X*X*X*X*X*X*X*X*X*X*X*X*X*X",
"*X*X*X*X*X*X*X*X*X*X*X*X*X*X*X*X*X*X*X* ^ ] ( :.5.N.w.P.P.0.&.N.H.W.W.W.S.N.m.r.e *X*X*X*X*X*X*X*X*X*X*X*X*X*X*X*X*X*X*X*X*X*X*X",
"*X*X*X*X*X*X*X*X*X*X*X*X*X*X*X*X*X*X*X*X3 ^ ( ( ( ) / {.i.I.>.m.M.M.m.5.5.5.3.0 *X*X*X*X*X*X*X*X*X*X*X*X*X*X*X*X*X*X*X*X*X*X*X*X",
"*X*X*X*X*X*X*X*X*X*X*X*X*X*X*X*X*X*X*X*X*X3 W ] ( ( E +.~ X.) ] :.,.,.2.3.+.3 *X*X*X*X*X*X*X*X*X*X*X*X*X*X*X*X*X*X*X*X*X*X*X*X*X",
"*X*X*X*X*X*X*X*X*X*X*X*X*X*X*X*X*X*X*X*X*X*X$ q E ) ^ W ^ / :.:.:.:.,._ s $ *X*X*X*X*X*X*X*X*X*X*X*X*X*X*X*X*X*X*X*X*X*X*X*X*X*X",
"*X*X*X*X*X*X*X*X*X*X*X*X*X*X*X*X*X*X*X*X*X*X*X*X  % 0 ; 0 0 r p s w ; @ *X*X*X*X*X*X*X*X*X*X*X*X*X*X*X*X*X*X*X*X*X*X*X*X*X*X*X*X",
"*X*X*X*X*X*X*X*X*X*X*X*X*X*X*X*X*X*X*X*X*X*X*X*X*XX.V.l M.V.n.n.n.#.$ *X*X*X*X*X*X*X*X*X*X*X*X*X*X*X*X*X*X*X*X*X*X*X*X*X*X*X*X*X",
"*X*X*X*X*X*X*X*X*X*X*X*X*X*X*X*X*X*X*X*X*X*X*X*Xb !.@.! R.'. X X X Xf *X*X*X*X*X*X*X*X*X*X*X*X*X*X*X*X*X*X*X*X*X*X*X*X*X*X*X*X*X",
"*X*X*X*X*X*X*X*X*X*X*X*X*X*X*X*X*X*X*X*X*X*X*X; w.Z.l N.W.|. X X X X-.+ *X*X*X*X*X*X*X*X*X*X*X*X*X*X*X*X*X*X*X*X*X*X*X*X*X*X*X*X",
"*X*X*X*X*X*X*X*X*X*X*X*X*X*X*X*X*X*X*X*X*X*X*XM '.=.l H.Q.]. X X X.Xi.l l ..*X*X*X*X*X*X*X*X*X*X*X*X*X*X*X*X*X*X*X*X*X*X*X*X*X*X",
"*X*X*X*X*X*X*X*X*X*X*X*X*X*X*X*X*X*X*X*X*Xm e y Q q v H.Q.'..X X X.Xe.j M o.o.*X*X*X*X*X*X*X*X*X*X*X*X*X*X*X*X*X*X*X*X*X*X*X*X*X",
"*X*X*X*X*X*X*X*X*X*X*X*X*X*X*X*X*X*X*X*X*X*X* O.T.m j 9.i.i.I.n.K.u.M % 9 ..=.5 *X*X*X*X*X*X*X*X*X*X*X*X*X*X*X*X*X*X*X*X*X*X*X*X",
"*X*X*X*X*X*X*X*X*X*X*X*X*X*X*X*X*X*X*X*X*X*X*Xo.s...2 L L L L K 3 P H   y 9.j *X*X*X*X*X*X*X*X*X*X*X*X*X*X*X*X*X*X*X*X*X*X*X*X*X",
"*X*X*X*X*X*X*X*X*X*X*X*X*X*X*X*X*X*X*X*X*X*X*X..*.8.P J I I I i u i < *X*X*X*X*X*X*X*X*X*X*X*X*X*X*X*X*X*X*X*X*X*X*X*X*X*X*X*X*X",
"*X*X*X*X*X*X*X*X*X*X*X*X*X*X*X*X*X*X*X*X*X*X*X..=.z 0 > A T T Y S 1 *X*X*X*X*X*X*X*X*X*X*X*X*X*X*X*X*X*X*X*X*X*X*X*X*X*X*X*X*X*X",
"*X*X*X*X*X*X*X*X*X*X*X*X*X*X*X*X*X*X*X*X*X*X*X*X*X*X*X*XV Y 1 1 V B *X*X*X*X*X*X*X*X*X*X*X*X*X*X*X*X*X*X*X*X*X*X*X*X*X*X*X*X*X*X",
"*X*X*X*X*X*X*X*X*X*X*X*X*X*X*X*X*X*X*X*X*X*X*X*X*X*X*X# C Z # , Z C *X*X*X*X*X*X*X*X*X*X*X*X*X*X*X*X*X*X*X*X*X*X*X*X*X*X*X*X*X*X",
"*X*X*X*X*X*X*X*X*X*X*X*X*X*X*X*X*X*X*X*X*X*X*X*X*X*X*X9 l c 8 8 k z 8 *X*X*X*X*X*X*X*X*X*X*X*X*X*X*X*X*X*X*X*X*X*X*X*X*X*X*X*X*X",
"*X*X*X*X*X*X*X*X*X*X*X*X*X*X*X*X*X*X*X*X*X*X*X*X*X*X*X6 8 t a.V.t k V.y.6 *X*X*X*X*X*X*X*X*X*X*X*X*X*X*X*X*X*X*X*X*X*X*X*X*X*X*X",
"*X*X*X*X*X*X*X*X*X*X*X*X*X*X*X*X*X*X*X*X*X*X*X*X*X*X*X- : 8 O.%.e t %.%.7 *X*X*X*X*X*X*X*X*X*X*X*X*X*X*X*X*X*X*X*X*X*X*X*X*X*X*X",
"*X*X*X*X*X*X*X*X*X*X*X*X*X*X*X*X*X*X*X*X*X*X*X*X*X*X*X*X*X*X*X. *X*XO *X*X*X*X*X*X*X*X*X*X*X*X*X*X*X*X*X*X*X*X*X*X*X*X*X*X*X*X*X",
"*X*X*X*X*X*X*X*X*X*X*X*X*X*X*X*X*X*X*X*X*X*X*X*X*X*X*X*X*X*X*X*X*X*X*X*X*X*X*X*X*X*X*X*X*X*X*X*X*X*X*X*X*X*X*X*X*X*X*X*X*X*X*X*X",
"*X*X*X*X*X*X*X*X*X*X*X*X*X*X*X*X*X*X*X*X*X*X*X*X*X*X*X*X*X*X*X*X*X*X*X*X*X*X*X*X*X*X*X*X*X*X*X*X*X*X*X*X*X*X*X*X*X*X*X*X*X*X*X*X",
"*X*X*X*X*X*X*X*X*X*X*X*X*X*X*X*X*X*X*X*X*X*X*X*X*X*X*X*X*X*X*X*X*X*X*X*X*X*X*X*X*X*X*X*X*X*X*X*X*X*X*X*X*X*X*X*X*X*X*X*X*X*X*X*X",
"*X*X*X*X*X*X*X*X*X*X*X*X*X*X*X*X*X*X*X*X*X*X*X*X*X*X*X*X*X*X*X*X*X*X*X*X*X*X*X*X*X*X*X*X*X*X*X*X*X*X*X*X*X*X*X*X*X*X*X*X*X*X*X*X",
"*X*X*X*X*X*X*X*X*X*X*X*X*X*X*X*X*X*X*X*X*X*X*X*X*X*X*X*X*X*X*X*X*X*X*X*X*X*X*X*X*X*X*X*X*X*X*X*X*X*X*X*X*X*X*X*X*X*X*X*X*X*X*X*X"
};
