/* XPM */
static char *result[] = {
/* columns rows colors chars-per-pixel */
"64 52 56 1 ",
"  c #5A5D5D",
". c #5E6362",
"X c #626665",
"o c #646867",
"O c #666A69",
"+ c #696E6D",
"@ c #6B706F",
"# c #6E7271",
"$ c #717675",
"% c #737877",
"& c #757A79",
"* c #797E7D",
"= c #7B807F",
"- c #7D8281",
"; c #818685",
": c #838887",
"> c #868B8A",
", c #898E8D",
"< c #8B908F",
"1 c #8D9291",
"2 c #919695",
"3 c #939897",
"4 c #959B9A",
"5 c #999D9C",
"6 c #9AA09F",
"7 c #9EA3A2",
"8 c #A1A6A5",
"9 c #A3A8A7",
"0 c #A5AAA9",
"q c #A9AEAD",
"w c #ABB0AF",
"e c #AEB3B2",
"r c #B1B6B5",
"t c #B3B8B7",
"y c #B6BABA",
"u c #B9BDBD",
"i c #BCC0BF",
"p c #BEC2C2",
"a c #C2C6C5",
"s c #C4C8C7",
"d c #C5CAC9",
"f c #CACECD",
"g c #CCD0CF",
"h c #CED2D1",
"j c #D1D6D5",
"k c #D4D8D7",
"l c #D6DAD9",
"z c #DADEDD",
"x c #DCE0DF",
"c c #DEE2E1",
"v c #E2E5E5",
"b c #E4E8E7",
"n c #E6EAEA",
"m c #E9EDED",
"M c #ECF0F0",
"N c None",
/* pixels */
"NNNNNNNNNNNNNNNNNNNNNNNNNNNNNNNNNNNNNNNNNNNNNNNNNNNNNNNNNNNNNNNN",
"NNNNNNNNNNNNNNNNNNNNNNNNNNNNNNNNNNNNNNNNNNNNNNNNNNNNNNNNNNNNNNNN",
"NNNNNNNNNNNNNNNNNNNNNNNNNNNNNNNNNNNNNNNNNNNNNNNNNNNNNNNNNNNNNNNN",
"NNNNNNNNNNNNNNNNNNNNNNNNNNN27qerw05,*NNNNNNNNNNNNNNNNNNNNNNNNNNN",
"NNNNNNNNNNNNNNNNNNNNNNNN2eajkllkkkhfu0,#NNNNNNNNNNNNNNNNNNNNNNNN",
"NNNNNNNNNNNNNNNNNNNNNN7pkzzzzzkkkjhhhgpe1NNNNNNNNNNNNNNNNNNNNNNN",
"NNNNNNNNNNNNNNNNNNNN2pzcxzxxzlzkjjkhhggfp7-NNNNNNNNNNNNNNNNNNNNN",
"NNNNNNNNNNNNNNNNNNN9kvccccxxzzlzlkkhhhgffse,NNNNNNNNNNNNNNNNNNNN",
"NNNNNNNNNNNNNNNNNNwxvvvcccccczclzlkjhhhgddpy1NNNNNNNNNNNNNNNNNNN",
"NNNNNNNNNNNNNNNNN9xvvvvvncncczcczllkkhhggddpi-NNNNNNNNNNNNNNNNNN",
"NNNNNNNNNNNNNNNN2jnvvvvvncccccccxlllkkhhgddppe-NNNNNNNNNNNNNNNNN",
"NNNNNNNNNNNNNNNNyvnvnbnbnnncccccxxxlkkjhggdfpp7#NNNNNNNNNNNNNNNN",
"NNNNNNNNNNNNNNN3lnnnnnnnnncnncccxxzlkkhhhgdpdpr1NNNNNNNNNNNNNNNN",
"NNNNNNNNNNNNNNNevnnnnnnnnnnncncncxzllkkhgggdfpp0&NNNNNNNNNNNNNNN",
"NNNNNNNNNNNNNNNamnnnmmmnnnnnncnccczzzkjkhggdpppt1NNNNNNNNNNNNNNN",
"NNNNNNNNNNNNNNNhnnmnmmmmmmnnnnccccxzzkkhhgddfppp7NNNNNNNNNNNNNNN",
"NNNNNNN0ut7NNN1kmmnmmmmmmmnnnncnccxzzlljjhkppfppe-NNNNNNNNNNNNNN",
"NNNNNNqkllk0NNNznmmmmmmmmmmmnnnnccczzlkkhhhggpppr<NNNNNNNNNNNNNN",
"NNNNNNalklkg2NNhkmmmmmMmMmmmmnncccczzlljjhgppgppt6NNNNNNNNNNNNNN",
"NNNNNNallklk0NNtlmmmmmMMMmmmnnncnccxzlljhhgggpppy7NNNNNNNNNNNNNN",
"NNNNNNuzlklk0N2gmnhdjxmMMMMMnncvbccxxzljjkphdpppy0$NNNNNNNNNNNNN",
"NNNNNNrzkkfsNN7cnp--1rhccjcmcr0ulccxcclkhpphddppiq=NNN =33:oNNNN",
"NNNN3rfkllu1NN4cz,#%%&,517cmva-&-ppclppplp0pdpppyq-NN.5uuuu6ONNN",
"NNN5jklkllhq-NNlg&#%%%&&%0mmmc;#---60---jhetfpppyq-NN:piuuyy:NNN",
"NNNikkkkhhhkp02pp#$$$%%%%4nnml=###+OOOX-fhi7dpppyq;NN5aiiuyy2NNN",
"NNNykkhp057ihkpph##$$%%%%2vnnl*##@++OOX#shi7pdppyqNNN5piiuyr-NNN",
"NNN4ipu3NNN-0ssul%@$$$$%$6nnnz;+#@+OOXX-dgr9dpppt8NNN1iiuyr2NNNN",
"NNNN:1;NNNNNN17ic>.#$#$$$unnvv4O+++OOX -fi7idpppr4NNN6aii9@NNNNN",
"NNNNNNNNNNNNNN-fmyoo@@#+>znnvva+o+++XX.6p7ydaapyw<28wppiiqONNNNN",
"NNNNNNNNNNNNNN0cncy,%@#,fnaucvce+.... %p9rgsapuy86daaapiiyw4*NNN",
"NNNNNNNNNNNNNNdvccnclhjcvn8+8zczp4-.%-pp0wdsaiue3tsputryiyyyr:NN",
"NNNNNN>1-NNNN0xvcnncvvvvvz>O#pczzzlpppjji3usaiy9>e94>*-6tyyyt5NN",
"NNNNNrfgi,NNNrvvvvcvvccvv9OOo6xzlllkjkpkdw8autw-#=@NNNN$7tyyr2NN",
"NNNNuhhhku&NN,raflcccvccp+ooo<zlllkkpllpda6rrq<NNNNNNNNN*0ee8$NN",
"NNNNshhhfh0NNNN&>7fcccxceo4& 5zllkjzkppjau533&NNNNNNNNNNN-21#NNN",
"NNN;aggghfgr2:2qpqpxxxzzjula2alljjjpprepr9-oNNNNNNNNNNNNNNNNNNNN",
"NNNNwgfhffggfddferzzzzzzzzzlllljkkkhj6377:XNNNNNNNNNNNNNNNNNNNNN",
"NNNN&essffdffdds7uzkjzzzlzkkljjjhlphprekhdq;NNNNNNNo:2,+NNNNNNNN",
"NNNNNN:2sfffsuq6>>rqflkkkkkkjjjjhhjppe-pgffa9&NNNN+6yytq*NNNNNNN",
"NNNNNNN3sdddu>NNNNN*thufljfjjafhpppp07+2wpssay,XNN5uuytt9+NNNNNN",
"NNNNNN2aaasar&NNNNNNN2>tsuwhhwsgp7p7&NNN#1wipap0>2yuyytte%NNNNNN",
"NNNNN$usaaaaq$NNNNNNNNNN;-*15:13-#%NNNNNNN$1qupaiuuuyttt0ONNNNNN",
"NNNNN#wsaaay5NNNNNNNNNNNNNNNNNNNNNNNNNNNNNNN&3euiiuyyyr7*NNNNNNN",
"NNNNNN*quit9*NNNNNNNNNNNNNNNNNNNNNNNNNNNNNNNNN-7tyuuy5%NNNNNNNNN",
"NNNNNNNO*:,*NNNNNNNNNNNNNNNNNNNNNNNNNNNNNNNNNNN@5ryyy,NNNNNNNNNN",
"NNNNNNNNNNNNNNNNNNNNNNNNNNNNNNNNNNNNNNNNNNNNNNNN>ruuyr=NNNNNNNNN",
"NNNNNNNNNNNNNNNNNNNNNNNNNNNNNNNNNNNNNNNNNNNNNNNN2yuuyy0+NNNNNNNN",
"NNNNNNNNNNNNNNNNNNNNNNNNNNNNNNNNNNNNNNNNNNNNNNNN4uiyyyt*NNNNNNNN",
"NNNNNNNNNNNNNNNNNNNNNNNNNNNNNNNNNNNNNNNNNNNNNNNN>iiyyy9+NNNNNNNN",
"NNNNNNNNNNNNNNNNNNNNNNNNNNNNNNNNNNNNNNNNNNNNNNNNN5ww92@NNNNNNNNN",
"NNNNNNNNNNNNNNNNNNNNNNNNNNNNNNNNNNNNNNNNNNNNNNNNNNNNNNNNNNNNNNNN",
"NNNNNNNNNNNNNNNNNNNNNNNNNNNNNNNNNNNNNNNNNNNNNNNNNNNNNNNNNNNNNNNN"
};
