/* XPM */
static char *_27940e908f443e7f469e9acc1b3c41fiB3QE9RAi1aPtIOH[] = {
/* columns rows colors chars-per-pixel */
"64 64 11 1 ",
"  c #BC5C24",
". c black",
"X c #6D2901",
"o c #BE8F74",
"O c #A76239",
"+ c #AE9384",
"@ c #AC6035",
"# c #B65E2B",
"$ c #BA5D26",
"% c #C45818",
"& c #B85D28",
/* pixels */
". ooooooooooooo.Xoooooooooooooo.. ooooooooooooo.Xoooooooooooooo.",
".X            o.XX            o..X            o.XX            o.",
".X            o.XXX           o..X            o.XXX           o.",
".X            o.XXXX          o..X            o.XXXX          o.",
".X            o.XXXXX         o..X            o.XXXXX         o.",
".X            o.XX  XX        o..X            o.XX  XX        o.",
".XXXXXXXXXXXXX ..XXXXXXXXXXXXX ..XXXXXXXXXXXXX ..XXXXXXXXXXXXX .",
"................................................................",
"ooooooo.XoooooX..oooooo...Xoooooooooooo.XoooooX..oooooo...Xooooo",
"      o.X     oXX #$  o..X            o.X     oXX #$  o..X      ",
"      o.X     oo  #$  o.X             o.X     oo  #$  o.X       ",
"      o.X         #$ oo.X  X          o.X         #$ oo.X  X    ",
"      o.X   X     #$  o.XX            o.X   X     #$  o.XX      ",
"      o.X  %  X   &$   ..XXX          o.X  %  X   &$   ..XXX    ",
"XXXXXX .XXXXXXXXXXXXXX....XXXXXXXXXXXX .XXXXXXXXXXXXXX....XXXXXX",
"................................................................",
". ooooooo+++o+o.Xo++XX.+oXo++o+.. ooooooo+++o+o.Xo++XX.+oXo++o+.",
".X O   OO %%% o.X    +o  +    +..X O   OO %%% o.X    +o  +    +.",
".XOOOOOOO O O o.X O  O        +..XOOOOOOO O O o.X O  O        +.",
".X O   oX O   o.X OOO O  O    +..X O   oX O   o.X OOO O  O    +.",
".XO O O oXX O o.X   # OOOOO   o..XO O O oXX O o.X   # OOOOO   o.",
".XO OOO  oo   o.X   #OO###    +..XO OOO  oo   o.X   #OO###    +.",
".XXXXXXXXXXXXX .XXXXXXXXXXXXXX ..XXXXXXXXXXXXX .XXXXXXXXXXXXXX .",
"................................................................",
"ooooooo. oooooooooooooo. oooooooooooooo. oooooooooooooo. ooooooo",
"O OO  o.X  O    O     o.X O     O OO  o.X  O    O     o.X O     ",
"OOOO Oo.X  O@OOOOOO O o.X OOO O OOOO Oo.X  O@OOOOOO O o.X OOO O ",
"  O OOo.X OO O O@     o.X OOO OO  O OOo.X OO O O@     o.X OOO OO",
"OO OO o.X  @@ @O O@OO o.XOOOO OOOO OO o.X  @@ @O O@OO o.XOOOO OO",
" O  O o.X @@O @@@OO O o.X   O    O  O o.X @@O @@@OO O o.X   O   ",
"XXXXXX .XXXXXXXXXXXXXX .XXXXXXXXXXXXXX .XXXXXXXXXXXXXX .XXXXXXXX",
"................................................................",
". ooooooooooooo.Xoooooooooooooo.. ooooooooooooo.Xoooooooooooooo.",
".X            o.XX            o..X            o.XX            o.",
".X            o.XXX           o..X            o.XXX           o.",
".X            o.XXXX          o..X            o.XXXX          o.",
".X            o.XXXXX         o..X            o.XXXXX         o.",
".X            o.XX  XX        o..X            o.XX  XX        o.",
".XXXXXXXXXXXXX ..XXXXXXXXXXXXX ..XXXXXXXXXXXXX ..XXXXXXXXXXXXX .",
"................................................................",
"ooooooo.XoooooX..oooooo...Xoooooooooooo.XoooooX..oooooo...Xooooo",
"      o.X     oXX #$  o..X            o.X     oXX #$  o..X      ",
"      o.X     oo  #$  o.X             o.X     oo  #$  o.X       ",
"      o.X         #$ oo.X  X          o.X         #$ oo.X  X    ",
"      o.X   X     #$  o.XX            o.X   X     #$  o.XX      ",
"      o.X  %  X   &$   ..XXX          o.X  %  X   &$   ..XXX    ",
"XXXXXX .XXXXXXXXXXXXXX....XXXXXXXXXXXX .XXXXXXXXXXXXXX....XXXXXX",
"................................................................",
". ooooooo+++o+o.Xo++XX.+oXo++o+.. ooooooo+++o+o.Xo++XX.+oXo++o+.",
".X O   OO %%% o.X    +o  +    +..X O   OO %%% o.X    +o  +    +.",
".XOOOOOOO O O o.X O  O        +..XOOOOOOO O O o.X O  O        +.",
".X O   oX O   o.X OOO O  O    +..X O   oX O   o.X OOO O  O    +.",
".XO O O oXX O o.X   # OOOOO   o..XO O O oXX O o.X   # OOOOO   o.",
".XO OOO  oo   o.X   #OO###    +..XO OOO  oo   o.X   #OO###    +.",
".XXXXXXXXXXXXX .XXXXXXXXXXXXXX ..XXXXXXXXXXXXX .XXXXXXXXXXXXXX .",
"................................................................",
"ooooooo. oooooooooooooo. oooooooooooooo. oooooooooooooo. ooooooo",
"O OO  o.X  O    O     o.X O     O OO  o.X  O    O     o.X O     ",
"OOOO Oo.X  O@OOOOOO O o.X OOO O OOOO Oo.X  O@OOOOOO O o.X OOO O ",
"  O OOo.X OO O O@     o.X OOO OO  O OOo.X OO O O@     o.X OOO OO",
"OO OO o.X  @@ @O O@OO o.XOOOO OOOO OO o.X  @@ @O O@OO o.XOOOO OO",
" O  O o.X @@O @@@OO O o.X   O    O  O o.X @@O @@@OO O o.X   O   ",
"XXXXXX .XXXXXXXXXXXXXX .XXXXXXXXXXXXXX .XXXXXXXXXXXXXX .XXXXXXXX",
"................................................................"
};
